<svg xmlns="http://www.w3.org/2000/svg" width="25" height="25" viewBox="0 0 25 25" fill="none">
  <path d="M19.3121 8.36021C19.1728 8.22082 19.0074 8.11025 18.8253 8.0348C18.6433 7.95936 18.4482 7.92053 18.2511 7.92053C18.054 7.92053 17.8589 7.95936 17.6769 8.0348C17.4948 8.11025 17.3294 8.22082 17.1901 8.36021L12.6041 12.9452C12.5103 13.0389 12.3832 13.0916 12.2506 13.0916C12.118 13.0916 11.9909 13.0389 11.8971 12.9452L7.3121 8.36021C7.03084 8.07882 6.64931 7.92068 6.25146 7.92058C5.8536 7.92049 5.472 8.07845 5.1906 8.35971C4.90921 8.64097 4.75107 9.0225 4.75098 9.42036C4.75088 9.81822 4.90884 10.1998 5.1901 10.4812L9.7761 15.0672C10.1011 15.3923 10.487 15.6501 10.9116 15.826C11.3363 16.0019 11.7914 16.0925 12.2511 16.0925C12.7108 16.0925 13.1659 16.0019 13.5906 15.826C14.0152 15.6501 14.4011 15.3923 14.7261 15.0672L19.3121 10.4812C19.5933 10.1999 19.7513 9.81846 19.7513 9.42071C19.7513 9.02297 19.5933 8.6415 19.3121 8.36021Z" fill="#A8A8A8"/>
</svg>