<svg xmlns="http://www.w3.org/2000/svg" width="21" height="22" viewBox="0 0 21 22" fill="none">
  <path d="M9.62854 17.7245C9.62854 18.2058 10.0187 18.5959 10.5 18.5959C10.9813 18.5959 11.3715 18.2058 11.3715 17.7245H9.62854ZM11.3715 10.7528C11.3715 10.2715 10.9813 9.88135 10.5 9.88135C10.0187 9.88135 9.62854 10.2715 9.62854 10.7528H11.3715ZM8.50184 15.3654C8.16151 15.025 7.60973 15.025 7.2694 15.3654C6.92908 15.7057 6.92908 16.2575 7.2694 16.5978L8.50184 15.3654ZM11.4859 17.61L12.1022 18.2262L12.1022 18.2262L11.4859 17.61ZM13.7306 16.5978C14.0709 16.2575 14.0709 15.7057 13.7306 15.3654C13.3903 15.025 12.8385 15.025 12.4982 15.3654L13.7306 16.5978ZM10.2307 18.1923L10.5 17.3635L10.2307 18.1923ZM10.7693 18.1923L10.5 17.3635L10.7693 18.1923ZM15.7232 6.48154L15.8954 5.62728L15.7232 6.48154ZM6.22874 5.52961L5.37447 5.35737L5.37447 5.35737L6.22874 5.52961ZM14.7713 5.52961L13.917 5.70185V5.70186L14.7713 5.52961ZM5.2768 6.48154L5.10456 5.62727L5.10456 5.62728L5.2768 6.48154ZM16.2513 13.949C15.8103 14.1417 15.609 14.6554 15.8017 15.0964C15.9944 15.5375 16.5081 15.7388 16.9491 15.5461L16.2513 13.949ZM4.05087 15.5461C4.49191 15.7388 5.00565 15.5375 5.19835 15.0964C5.39104 14.6554 5.18972 14.1417 4.74869 13.949L4.05087 15.5461ZM11.3715 17.7245L11.3715 10.7528H9.62854L9.62854 17.7245H11.3715ZM7.2694 16.5978L8.89784 18.2262L10.1303 16.9938L8.50184 15.3654L7.2694 16.5978ZM12.1022 18.2262L13.7306 16.5978L12.4982 15.3654L10.8697 16.9938L12.1022 18.2262ZM8.89784 18.2262C9.06023 18.3886 9.2186 18.5479 9.36319 18.6707C9.51556 18.8 9.70893 18.9391 9.96141 19.0211L10.5 17.3635C10.5535 17.3809 10.5611 17.4014 10.4912 17.342C10.4135 17.276 10.313 17.1765 10.1303 16.9938L8.89784 18.2262ZM10.8697 16.9938C10.687 17.1765 10.5865 17.276 10.5088 17.342C10.4389 17.4014 10.4465 17.3809 10.5 17.3635L11.0386 19.0211C11.2911 18.9391 11.4844 18.8 11.6368 18.6707C11.7814 18.5479 11.9398 18.3886 12.1022 18.2262L10.8697 16.9938ZM9.96141 19.0211C10.3115 19.1349 10.6885 19.1349 11.0386 19.0211L10.5 17.3635L10.5 17.3635L9.96141 19.0211ZM15.551 7.33581C17.1439 7.65699 18.3431 9.06582 18.3431 10.7528H20.0861C20.0861 8.21981 18.2858 6.10923 15.8954 5.62728L15.551 7.33581ZM7.083 5.70185C7.40418 4.10891 8.81302 2.90967 10.5 2.90967V1.16675C7.967 1.16675 5.85643 2.96701 5.37447 5.35737L7.083 5.70185ZM10.5 2.90967C12.187 2.90967 13.5958 4.10891 13.917 5.70185L15.6255 5.35737C15.1436 2.96701 13.033 1.16675 10.5 1.16675V2.90967ZM2.65686 10.7528C2.65686 9.06582 3.8561 7.65699 5.44905 7.33581L5.10456 5.62728C2.7142 6.10923 0.91394 8.21981 0.91394 10.7528H2.65686ZM18.3431 10.7528C18.3431 12.1809 17.4843 13.4103 16.2513 13.949L16.9491 15.5461C18.794 14.74 20.0861 12.8983 20.0861 10.7528H18.3431ZM4.74869 13.949C3.51573 13.4103 2.65686 12.1809 2.65686 10.7528H0.91394C0.91394 12.8983 2.206 14.74 4.05087 15.5461L4.74869 13.949ZM5.37447 5.35737C5.34868 5.48527 5.23246 5.60149 5.10456 5.62727L5.44905 7.33581C6.26474 7.17135 6.91854 6.51755 7.083 5.70185L5.37447 5.35737ZM15.8954 5.62728C15.7675 5.60149 15.6513 5.48527 15.6255 5.35737L13.917 5.70186C14.0815 6.51755 14.7353 7.17135 15.551 7.33581L15.8954 5.62728Z" fill="black"/>
</svg>