<svg width="173" height="223" viewBox="0 0 173 223" fill="none" xmlns="http://www.w3.org/2000/svg">
<rect x="0.95166" y="0.286743" width="171.586" height="222.426" rx="8" fill="white"/>
<path d="M59.2135 24.8566H58.374C58.3243 24.6152 58.2375 24.403 58.1133 24.2202C57.9915 24.0374 57.8425 23.884 57.6665 23.7599C57.4927 23.6335 57.2998 23.5387 57.0876 23.4755C56.8755 23.4123 56.6543 23.3807 56.4241 23.3807C56.0044 23.3807 55.6241 23.4868 55.2833 23.6989C54.9448 23.9111 54.6752 24.2236 54.4743 24.6366C54.2757 25.0496 54.1764 25.5562 54.1764 26.1565C54.1764 26.7568 54.2757 27.2635 54.4743 27.6765C54.6752 28.0895 54.9448 28.402 55.2833 28.6142C55.6241 28.8263 56.0044 28.9324 56.4241 28.9324C56.6543 28.9324 56.8755 28.9008 57.0876 28.8376C57.2998 28.7744 57.4927 28.6807 57.6665 28.5566C57.8425 28.4302 57.9915 28.2756 58.1133 28.0928C58.2375 27.9078 58.3243 27.6956 58.374 27.4564H59.2135C59.1503 27.8107 59.0352 28.1278 58.8682 28.4077C58.7012 28.6875 58.4936 28.9256 58.2453 29.1219C57.9971 29.316 57.7184 29.4638 57.4092 29.5654C57.1023 29.6669 56.7739 29.7177 56.4241 29.7177C55.8329 29.7177 55.307 29.5733 54.8467 29.2844C54.3863 28.9955 54.0241 28.5848 53.76 28.0522C53.496 27.5196 53.364 26.8877 53.364 26.1565C53.364 25.4253 53.496 24.7935 53.76 24.2609C54.0241 23.7283 54.3863 23.3175 54.8467 23.0287C55.307 22.7398 55.8329 22.5954 56.4241 22.5954C56.7739 22.5954 57.1023 22.6461 57.4092 22.7477C57.7184 22.8493 57.9971 22.9982 58.2453 23.1945C58.4936 23.3886 58.7012 23.6256 58.8682 23.9054C59.0352 24.183 59.1503 24.5001 59.2135 24.8566ZM62.5741 29.7312C62.1047 29.7312 61.6928 29.6195 61.3385 29.3961C60.9865 29.1727 60.7111 28.8601 60.5125 28.4584C60.3162 28.0567 60.218 27.5873 60.218 27.0502C60.218 26.5086 60.3162 26.0358 60.5125 25.6318C60.7111 25.2279 60.9865 24.9142 61.3385 24.6908C61.6928 24.4674 62.1047 24.3556 62.5741 24.3556C63.0435 24.3556 63.4542 24.4674 63.8063 24.6908C64.1606 24.9142 64.4359 25.2279 64.6323 25.6318C64.8309 26.0358 64.9302 26.5086 64.9302 27.0502C64.9302 27.5873 64.8309 28.0567 64.6323 28.4584C64.4359 28.8601 64.1606 29.1727 63.8063 29.3961C63.4542 29.6195 63.0435 29.7312 62.5741 29.7312ZM62.5741 29.0136C62.9307 29.0136 63.224 28.9222 63.4542 28.7394C63.6844 28.5566 63.8548 28.3163 63.9654 28.0184C64.076 27.7205 64.1313 27.3978 64.1313 27.0502C64.1313 26.7027 64.076 26.3788 63.9654 26.0787C63.8548 25.7785 63.6844 25.5359 63.4542 25.3509C63.224 25.1658 62.9307 25.0733 62.5741 25.0733C62.2175 25.0733 61.9242 25.1658 61.694 25.3509C61.4638 25.5359 61.2934 25.7785 61.1828 26.0787C61.0722 26.3788 61.0169 26.7027 61.0169 27.0502C61.0169 27.3978 61.0722 27.7205 61.1828 28.0184C61.2934 28.3163 61.4638 28.5566 61.694 28.7394C61.9242 28.9222 62.2175 29.0136 62.5741 29.0136ZM66.9486 26.4951V29.6229H66.1497V24.4233H66.9215V25.2358H66.9892C67.111 24.9717 67.2961 24.7596 67.5443 24.5994C67.7926 24.4369 68.113 24.3556 68.5057 24.3556C68.8578 24.3556 69.1658 24.4279 69.4299 24.5723C69.6939 24.7145 69.8993 24.9311 70.046 25.2222C70.1926 25.5111 70.266 25.8767 70.266 26.319V29.6229H69.4671V26.3732C69.4671 25.9647 69.361 25.6465 69.1489 25.4186C68.9368 25.1884 68.6456 25.0733 68.2755 25.0733C68.0205 25.0733 67.7926 25.1286 67.5917 25.2392C67.3931 25.3497 67.2363 25.5111 67.1212 25.7232C67.0061 25.9354 66.9486 26.1926 66.9486 26.4951ZM72.5247 26.4951V29.6229H71.7258V24.4233H72.4976V25.2358H72.5654C72.6872 24.9717 72.8723 24.7596 73.1205 24.5994C73.3688 24.4369 73.6892 24.3556 74.0819 24.3556C74.4339 24.3556 74.742 24.4279 75.006 24.5723C75.2701 24.7145 75.4754 24.9311 75.6221 25.2222C75.7688 25.5111 75.8422 25.8767 75.8422 26.319V29.6229H75.0433V26.3732C75.0433 25.9647 74.9372 25.6465 74.7251 25.4186C74.5129 25.1884 74.2218 25.0733 73.8517 25.0733C73.5967 25.0733 73.3688 25.1286 73.1679 25.2392C72.9693 25.3497 72.8125 25.5111 72.6974 25.7232C72.5823 25.9354 72.5247 26.1926 72.5247 26.4951ZM79.482 29.7312C78.981 29.7312 78.5489 29.6207 78.1855 29.3995C77.8245 29.1761 77.5457 28.8647 77.3494 28.4652C77.1553 28.0635 77.0583 27.5964 77.0583 27.0638C77.0583 26.5312 77.1553 26.0618 77.3494 25.6555C77.5457 25.2471 77.8188 24.9289 78.1686 24.7009C78.5207 24.4707 78.9314 24.3556 79.4008 24.3556C79.6716 24.3556 79.939 24.4008 80.2031 24.491C80.4671 24.5813 80.7075 24.728 80.9241 24.9311C81.1408 25.132 81.3134 25.3983 81.442 25.73C81.5707 26.0618 81.635 26.4702 81.635 26.9554V27.2939H77.627V26.6034H80.8226C80.8226 26.31 80.7639 26.0482 80.6465 25.818C80.5314 25.5878 80.3667 25.4062 80.1523 25.273C79.9402 25.1399 79.6897 25.0733 79.4008 25.0733C79.0826 25.0733 78.8073 25.1523 78.5748 25.3103C78.3446 25.466 78.1675 25.6691 78.0434 25.9196C77.9192 26.1701 77.8572 26.4386 77.8572 26.7252V27.1856C77.8572 27.5783 77.9249 27.9112 78.0603 28.1842C78.1979 28.4551 78.3886 28.6615 78.6324 28.8037C78.8761 28.9436 79.1593 29.0136 79.482 29.0136C79.6919 29.0136 79.8815 28.9843 80.0507 28.9256C80.2223 28.8647 80.3701 28.7744 80.4942 28.6548C80.6183 28.5329 80.7142 28.3817 80.7819 28.2012L81.5538 28.4178C81.4725 28.6796 81.336 28.9098 81.1442 29.1084C80.9523 29.3047 80.7154 29.4582 80.4333 29.5688C80.1512 29.6771 79.8341 29.7312 79.482 29.7312ZM84.9626 29.7312C84.4751 29.7312 84.0554 29.6162 83.7033 29.386C83.3513 29.1558 83.0805 28.8387 82.8909 28.4347C82.7013 28.0308 82.6065 27.5693 82.6065 27.0502C82.6065 26.5221 82.7036 26.0561 82.8977 25.6522C83.094 25.2459 83.3671 24.9289 83.7169 24.7009C84.0689 24.4707 84.4796 24.3556 84.9491 24.3556C85.3146 24.3556 85.6441 24.4233 85.9375 24.5588C86.2309 24.6942 86.4712 24.8837 86.6585 25.1275C86.8459 25.3712 86.9621 25.6555 87.0072 25.9805H86.2083C86.1474 25.7436 86.012 25.5337 85.8021 25.3509C85.5945 25.1658 85.3146 25.0733 84.9626 25.0733C84.6512 25.0733 84.3781 25.1545 84.1434 25.317C83.9109 25.4773 83.7293 25.7041 83.5984 25.9974C83.4697 26.2886 83.4054 26.6305 83.4054 27.0231C83.4054 27.4248 83.4686 27.7746 83.595 28.0725C83.7236 28.3704 83.9042 28.6017 84.1366 28.7665C84.3713 28.9312 84.6466 29.0136 84.9626 29.0136C85.1702 29.0136 85.3587 28.9775 85.5279 28.9053C85.6972 28.8331 85.8405 28.7292 85.9578 28.5938C86.0752 28.4584 86.1587 28.2959 86.2083 28.1064H87.0072C86.9621 28.4133 86.8504 28.6898 86.6721 28.9357C86.4961 29.1795 86.2625 29.3736 85.9714 29.518C85.6825 29.6602 85.3462 29.7312 84.9626 29.7312ZM90.4364 24.4233V25.1004H87.7418V24.4233H90.4364ZM88.5271 23.1776H89.326V28.1335C89.326 28.3591 89.3588 28.5284 89.4242 28.6412C89.4919 28.7518 89.5777 28.8263 89.6815 28.8647C89.7875 28.9008 89.8993 28.9188 90.0166 28.9188C90.1046 28.9188 90.1768 28.9143 90.2333 28.9053C90.2897 28.894 90.3348 28.885 90.3687 28.8782L90.5312 29.5958C90.477 29.6162 90.4014 29.6365 90.3043 29.6568C90.2073 29.6793 90.0843 29.6906 89.9354 29.6906C89.7097 29.6906 89.4885 29.6421 89.2719 29.5451C89.0575 29.448 88.8792 29.3002 88.737 29.1016C88.5971 28.903 88.5271 28.6525 88.5271 28.3501V23.1776ZM95.6867 29.6229L93.791 22.6902H94.6441L96.0929 28.3366H96.1606L97.6366 22.6902H98.5844L100.06 28.3366H100.128L101.577 22.6902H102.43L100.534 29.6229H99.6677L98.1376 24.0984H98.0834L96.5533 29.6229H95.6867ZM104.414 29.7448C104.084 29.7448 103.785 29.6827 103.517 29.5586C103.248 29.4322 103.035 29.2506 102.877 29.0136C102.719 28.7744 102.64 28.4855 102.64 28.147C102.64 27.8491 102.698 27.6076 102.816 27.4226C102.933 27.2353 103.09 27.0886 103.286 26.9825C103.483 26.8764 103.699 26.7975 103.936 26.7456C104.176 26.6914 104.416 26.6485 104.657 26.6169C104.973 26.5763 105.229 26.5458 105.426 26.5255C105.624 26.503 105.769 26.4657 105.859 26.4138C105.952 26.3619 105.998 26.2716 105.998 26.143V26.1159C105.998 25.7819 105.906 25.5224 105.724 25.3373C105.543 25.1523 105.269 25.0598 104.901 25.0598C104.52 25.0598 104.221 25.1433 104.004 25.3103C103.787 25.4773 103.635 25.6555 103.547 25.8451L102.789 25.5743C102.924 25.2583 103.105 25.0124 103.33 24.8363C103.558 24.658 103.807 24.5339 104.075 24.464C104.346 24.3918 104.612 24.3556 104.874 24.3556C105.041 24.3556 105.233 24.376 105.449 24.4166C105.668 24.4549 105.879 24.5351 106.082 24.6569C106.288 24.7788 106.458 24.9627 106.594 25.2087C106.729 25.4547 106.797 25.7842 106.797 26.1972V29.6229H105.998V28.9188H105.957C105.903 29.0317 105.813 29.1524 105.686 29.281C105.56 29.4097 105.392 29.5191 105.182 29.6094C104.972 29.6997 104.716 29.7448 104.414 29.7448ZM104.535 29.0271C104.851 29.0271 105.118 28.9651 105.334 28.841C105.553 28.7168 105.718 28.5566 105.829 28.3603C105.941 28.1639 105.998 27.9574 105.998 27.7408V27.0096C105.964 27.0502 105.89 27.0875 105.774 27.1213C105.662 27.1529 105.531 27.1811 105.382 27.2059C105.235 27.2285 105.092 27.2488 104.952 27.2669C104.814 27.2827 104.702 27.2962 104.617 27.3075C104.409 27.3346 104.215 27.3786 104.034 27.4395C103.856 27.4982 103.712 27.5873 103.601 27.7069C103.493 27.8243 103.439 27.9845 103.439 28.1876C103.439 28.4652 103.541 28.6751 103.747 28.8173C103.954 28.9572 104.217 29.0271 104.535 29.0271ZM109.054 22.6902V29.6229H108.255V22.6902H109.054ZM111.316 22.6902V29.6229H110.517V22.6902H111.316ZM114.959 29.7312C114.458 29.7312 114.026 29.6207 113.663 29.3995C113.302 29.1761 113.023 28.8647 112.827 28.4652C112.632 28.0635 112.535 27.5964 112.535 27.0638C112.535 26.5312 112.632 26.0618 112.827 25.6555C113.023 25.2471 113.296 24.9289 113.646 24.7009C113.998 24.4707 114.409 24.3556 114.878 24.3556C115.149 24.3556 115.416 24.4008 115.68 24.491C115.944 24.5813 116.185 24.728 116.401 24.9311C116.618 25.132 116.791 25.3983 116.919 25.73C117.048 26.0618 117.112 26.4702 117.112 26.9554V27.2939H113.104V26.6034H116.3C116.3 26.31 116.241 26.0482 116.124 25.818C116.009 25.5878 115.844 25.4062 115.629 25.273C115.417 25.1399 115.167 25.0733 114.878 25.0733C114.56 25.0733 114.284 25.1523 114.052 25.3103C113.822 25.466 113.645 25.6691 113.521 25.9196C113.396 26.1701 113.334 26.4386 113.334 26.7252V27.1856C113.334 27.5783 113.402 27.9112 113.537 28.1842C113.675 28.4551 113.866 28.6615 114.11 28.8037C114.353 28.9436 114.636 29.0136 114.959 29.0136C115.169 29.0136 115.359 28.9843 115.528 28.9256C115.699 28.8647 115.847 28.7744 115.971 28.6548C116.095 28.5329 116.191 28.3817 116.259 28.2012L117.031 28.4178C116.95 28.6796 116.813 28.9098 116.621 29.1084C116.429 29.3047 116.193 29.4582 115.91 29.5688C115.628 29.6771 115.311 29.7312 114.959 29.7312ZM120.589 24.4233V25.1004H117.894V24.4233H120.589ZM118.679 23.1776H119.478V28.1335C119.478 28.3591 119.511 28.5284 119.577 28.6412C119.644 28.7518 119.73 28.8263 119.834 28.8647C119.94 28.9008 120.052 28.9188 120.169 28.9188C120.257 28.9188 120.329 28.9143 120.386 28.9053C120.442 28.894 120.487 28.885 120.521 28.8782L120.683 29.5958C120.629 29.6162 120.554 29.6365 120.457 29.6568C120.36 29.6793 120.237 29.6906 120.088 29.6906C119.862 29.6906 119.641 29.6421 119.424 29.5451C119.21 29.448 119.032 29.3002 118.889 29.1016C118.749 28.903 118.679 28.6525 118.679 28.3501V23.1776Z" fill="black"/>
<rect x="16.8394" y="47.9496" width="139.811" height="40.0368" rx="2.54202" fill="url(#paint0_linear_659_507)"/>
<path d="M76.7488 71.5662H75.9273L78.3032 65.0956H79.1121L81.488 71.5662H80.6665L78.7329 66.1192H78.6824L76.7488 71.5662ZM77.0521 69.0386H80.3632V69.7337H77.0521V69.0386ZM82.3947 71.5662V66.7132H83.1151V67.4462H83.1656C83.2541 67.2061 83.4142 67.0113 83.6459 66.8617C83.8776 66.7122 84.1388 66.6374 84.4294 66.6374C84.4842 66.6374 84.5527 66.6384 84.6348 66.6406C84.7169 66.6427 84.7791 66.6458 84.8212 66.65V67.4083C84.7959 67.402 84.738 67.3925 84.6474 67.3799C84.559 67.3651 84.4652 67.3578 84.3662 67.3578C84.1303 67.3578 83.9197 67.4073 83.7344 67.5062C83.5511 67.6031 83.4058 67.7379 83.2983 67.9107C83.193 68.0813 83.1404 68.2761 83.1404 68.4952V71.5662H82.3947ZM87.5162 73.4871C87.1561 73.4871 86.8464 73.4408 86.5874 73.3481C86.3283 73.2575 86.1124 73.1375 85.9397 72.9879C85.769 72.8405 85.6332 72.6825 85.5321 72.514L86.1261 72.097C86.1935 72.1854 86.2788 72.2865 86.382 72.4003C86.4852 72.5161 86.6263 72.6162 86.8054 72.7004C86.9865 72.7868 87.2235 72.8299 87.5162 72.8299C87.908 72.8299 88.2313 72.7352 88.4862 72.5456C88.7411 72.356 88.8685 72.059 88.8685 71.6546V70.6689H88.8053C88.7505 70.7573 88.6726 70.8669 88.5715 70.9975C88.4725 71.1259 88.3293 71.2407 88.1418 71.3418C87.9565 71.4408 87.7058 71.4903 87.3899 71.4903C86.9981 71.4903 86.6463 71.3977 86.3346 71.2123C86.025 71.0269 85.7796 70.7573 85.5984 70.4035C85.4194 70.0496 85.3299 69.6199 85.3299 69.1144C85.3299 68.6173 85.4173 68.1845 85.5921 67.8159C85.7669 67.4452 86.0102 67.1587 86.322 66.9565C86.6337 66.7522 86.9939 66.65 87.4025 66.65C87.7184 66.65 87.9691 66.7027 88.1544 66.808C88.3419 66.9112 88.4851 67.0292 88.5841 67.1619C88.6852 67.2925 88.7632 67.3999 88.8179 67.4841H88.8938V66.7132H89.6141V71.7052C89.6141 72.1222 89.5193 72.4613 89.3298 72.7225C89.1423 72.9858 88.8896 73.1785 88.5715 73.3007C88.2556 73.425 87.9038 73.4871 87.5162 73.4871ZM87.491 70.8205C87.7901 70.8205 88.0428 70.7521 88.2492 70.6152C88.4556 70.4783 88.6126 70.2813 88.72 70.0243C88.8274 69.7674 88.8811 69.4599 88.8811 69.1018C88.8811 68.7521 88.8285 68.4436 88.7232 68.1761C88.6178 67.9086 88.462 67.699 88.2556 67.5473C88.0491 67.3957 87.7943 67.3198 87.491 67.3198C87.175 67.3198 86.9117 67.3999 86.7011 67.56C86.4926 67.72 86.3356 67.9349 86.2303 68.2045C86.1271 68.4741 86.0755 68.7732 86.0755 69.1018C86.0755 69.4388 86.1282 69.7368 86.2335 69.9959C86.3409 70.2529 86.4989 70.4551 86.7074 70.6025C86.918 70.7479 87.1792 70.8205 87.491 70.8205ZM93.0137 71.6673C92.5461 71.6673 92.1427 71.5641 91.8036 71.3576C91.4666 71.1491 91.2065 70.8584 91.0232 70.4856C90.8421 70.1107 90.7515 69.6747 90.7515 69.1776C90.7515 68.6805 90.8421 68.2424 91.0232 67.8633C91.2065 67.482 91.4614 67.185 91.7878 66.9723C92.1164 66.7575 92.4998 66.65 92.9379 66.65C93.1906 66.65 93.4402 66.6922 93.6867 66.7764C93.9331 66.8607 94.1574 66.9976 94.3596 67.1871C94.5618 67.3746 94.723 67.6231 94.843 67.9328C94.9631 68.2424 95.0231 68.6236 95.0231 69.0765V69.3924H91.2823V68.7479H94.2649C94.2649 68.4741 94.2101 68.2298 94.1006 68.0149C93.9931 67.8001 93.8394 67.6305 93.6393 67.5062C93.4413 67.382 93.2075 67.3198 92.9379 67.3198C92.6409 67.3198 92.3839 67.3936 92.167 67.541C91.9521 67.6863 91.7868 67.8759 91.6709 68.1097C91.5551 68.3435 91.4972 68.5942 91.4972 68.8617V69.2913C91.4972 69.6578 91.5604 69.9685 91.6867 70.2234C91.8152 70.4761 91.9932 70.6689 92.2207 70.8016C92.4482 70.9322 92.7125 70.9975 93.0137 70.9975C93.2096 70.9975 93.3865 70.9701 93.5445 70.9153C93.7046 70.8584 93.8425 70.7742 93.9584 70.6626C94.0742 70.5488 94.1638 70.4077 94.2269 70.2392L94.9473 70.4414C94.8715 70.6857 94.744 70.9006 94.565 71.0859C94.386 71.2692 94.1648 71.4124 93.9015 71.5156C93.6382 71.6167 93.3423 71.6673 93.0137 71.6673ZM96.903 68.6468V71.5662H96.1574V66.7132H96.8777V67.4715H96.9409C97.0547 67.2251 97.2274 67.0271 97.4591 66.8775C97.6908 66.7259 97.9899 66.65 98.3564 66.65C98.685 66.65 98.9725 66.7174 99.2189 66.8522C99.4653 66.9849 99.657 67.1871 99.7939 67.4589C99.9308 67.7285 99.9993 68.0697 99.9993 68.4825V71.5662H99.2537V68.5331C99.2537 68.1518 99.1547 67.8548 98.9567 67.6421C98.7587 67.4273 98.487 67.3198 98.1415 67.3198C97.9035 67.3198 97.6908 67.3714 97.5033 67.4747C97.318 67.5779 97.1716 67.7285 97.0641 67.9265C96.9567 68.1244 96.903 68.3646 96.903 68.6468ZM103.472 66.7132V67.3451H100.957V66.7132H103.472ZM101.69 65.5505H102.436V70.176C102.436 70.3866 102.467 70.5446 102.528 70.6499C102.591 70.7531 102.671 70.8226 102.768 70.8584C102.867 70.8921 102.971 70.909 103.081 70.909C103.163 70.909 103.23 70.9048 103.283 70.8964C103.335 70.8858 103.378 70.8774 103.409 70.8711L103.561 71.5409C103.51 71.5598 103.44 71.5788 103.349 71.5978C103.259 71.6188 103.144 71.6294 103.005 71.6294C102.794 71.6294 102.588 71.5841 102.385 71.4935C102.185 71.4029 102.019 71.265 101.886 71.0796C101.756 70.8942 101.69 70.6604 101.69 70.3782V65.5505Z" fill="black"/>
<g clip-path="url(#clip0_659_507)">
<path d="M49.542 61.2952H45.7806C45.6551 61.2952 45.5542 61.3963 45.5515 61.5221C45.4755 65.0543 43.6274 68.4069 40.4465 70.7817C40.3456 70.8572 40.3225 70.9987 40.3963 71.1007L42.597 74.1437C42.6719 74.2473 42.8178 74.2706 42.9205 74.1946C44.9094 72.7196 46.5092 70.9399 47.6614 68.9674C48.8133 70.9399 50.4132 72.7196 52.4023 74.1946C52.5047 74.2706 52.6507 74.2473 52.7256 74.1437L54.9263 71.1007C55.0001 70.9987 54.9772 70.8572 54.8761 70.7817C51.6952 68.4069 49.8471 65.0543 49.7711 61.5221C49.7684 61.3963 49.6678 61.2952 49.542 61.2952Z" fill="#FF875B"/>
</g>
<rect x="17.1571" y="101.65" width="139.175" height="39.4013" rx="2.22426" stroke="url(#paint1_linear_659_507)" stroke-width="0.635504"/>
<path d="M76.2465 124.949V118.478H78.5087C78.9594 118.478 79.3312 118.556 79.624 118.712C79.9167 118.866 80.1347 119.073 80.278 119.334C80.4212 119.593 80.4928 119.881 80.4928 120.197C80.4928 120.475 80.4433 120.704 80.3443 120.885C80.2474 121.067 80.1189 121.21 79.9589 121.315C79.8009 121.42 79.6292 121.498 79.4439 121.549V121.612C79.6419 121.625 79.8409 121.694 80.041 121.821C80.2411 121.947 80.4086 122.128 80.5434 122.364C80.6782 122.6 80.7456 122.889 80.7456 123.23C80.7456 123.554 80.6718 123.846 80.5244 124.105C80.377 124.364 80.1442 124.569 79.8262 124.721C79.5081 124.873 79.0942 124.949 78.5845 124.949H76.2465ZM77.03 124.253H78.5845C79.0963 124.253 79.4597 124.154 79.6745 123.956C79.8915 123.756 79.9999 123.514 79.9999 123.23C79.9999 123.011 79.9441 122.809 79.8325 122.623C79.7209 122.436 79.5618 122.286 79.3554 122.175C79.149 122.061 78.9047 122.004 78.6224 122.004H77.03V124.253ZM77.03 121.321H78.4834C78.7193 121.321 78.932 121.275 79.1216 121.182C79.3133 121.09 79.4649 120.959 79.5766 120.791C79.6903 120.622 79.7472 120.424 79.7472 120.197C79.7472 119.912 79.6482 119.671 79.4502 119.473C79.2522 119.273 78.9384 119.173 78.5087 119.173H77.03V121.321ZM81.932 124.949V120.096H82.6523V120.829H82.7029C82.7913 120.588 82.9514 120.394 83.1831 120.244C83.4148 120.095 83.676 120.02 83.9666 120.02C84.0214 120.02 84.0899 120.021 84.172 120.023C84.2542 120.025 84.3163 120.028 84.3584 120.032V120.791C84.3331 120.784 84.2752 120.775 84.1847 120.762C84.0962 120.748 84.0025 120.74 83.9035 120.74C83.6676 120.74 83.4569 120.79 83.2716 120.889C83.0883 120.986 82.943 121.12 82.8356 121.293C82.7302 121.464 82.6776 121.658 82.6776 121.878V124.949H81.932ZM86.6704 125.062C86.3628 125.062 86.0838 125.004 85.8331 124.889C85.5825 124.771 85.3834 124.601 85.236 124.38C85.0885 124.157 85.0148 123.887 85.0148 123.571C85.0148 123.293 85.0696 123.068 85.1791 122.895C85.2886 122.72 85.435 122.583 85.6183 122.484C85.8015 122.385 86.0037 122.311 86.2249 122.263C86.4481 122.212 86.6725 122.172 86.8978 122.143C87.1927 122.105 87.4318 122.077 87.615 122.058C87.8004 122.037 87.9352 122.002 88.0195 121.953C88.1058 121.905 88.149 121.821 88.149 121.701V121.675C88.149 121.364 88.0637 121.121 87.8931 120.949C87.7246 120.776 87.4687 120.69 87.1253 120.69C86.7694 120.69 86.4903 120.768 86.2881 120.923C86.0859 121.079 85.9437 121.246 85.8615 121.423L85.1538 121.17C85.2802 120.875 85.4487 120.645 85.6593 120.481C85.8721 120.315 86.1038 120.199 86.3544 120.134C86.6072 120.066 86.8557 120.032 87.1 120.032C87.2559 120.032 87.435 120.051 87.6372 120.089C87.8415 120.125 88.0384 120.2 88.228 120.314C88.4197 120.427 88.5787 120.599 88.7051 120.829C88.8314 121.058 88.8946 121.366 88.8946 121.751V124.949H88.149V124.291H88.1111C88.0605 124.397 87.9763 124.509 87.8583 124.629C87.7404 124.75 87.5834 124.852 87.3876 124.936C87.1917 125.02 86.9526 125.062 86.6704 125.062ZM86.7841 124.392C87.079 124.392 87.3275 124.335 87.5297 124.219C87.734 124.103 87.8878 123.953 87.991 123.77C88.0963 123.587 88.149 123.394 88.149 123.192V122.509C88.1174 122.547 88.0479 122.582 87.9405 122.614C87.8352 122.643 87.713 122.67 87.574 122.693C87.4371 122.714 87.3033 122.733 87.1727 122.75C87.0442 122.764 86.94 122.777 86.8599 122.787C86.6661 122.813 86.485 122.854 86.3165 122.911C86.1501 122.965 86.0153 123.049 85.9121 123.16C85.811 123.27 85.7604 123.419 85.7604 123.609C85.7604 123.868 85.8563 124.064 86.0479 124.197C86.2417 124.327 86.4871 124.392 86.7841 124.392ZM91.6836 125.062C91.3761 125.062 91.097 125.004 90.8464 124.889C90.5957 124.771 90.3967 124.601 90.2492 124.38C90.1018 124.157 90.0281 123.887 90.0281 123.571C90.0281 123.293 90.0828 123.068 90.1924 122.895C90.3019 122.72 90.4483 122.583 90.6315 122.484C90.8148 122.385 91.017 122.311 91.2382 122.263C91.4614 122.212 91.6858 122.172 91.9111 122.143C92.206 122.105 92.4451 122.077 92.6283 122.058C92.8137 122.037 92.9485 122.002 93.0327 121.953C93.1191 121.905 93.1623 121.821 93.1623 121.701V121.675C93.1623 121.364 93.077 121.121 92.9064 120.949C92.7379 120.776 92.4819 120.69 92.1386 120.69C91.7826 120.69 91.5036 120.768 91.3013 120.923C91.0991 121.079 90.957 121.246 90.8748 121.423L90.1671 121.17C90.2935 120.875 90.462 120.645 90.6726 120.481C90.8854 120.315 91.117 120.199 91.3677 120.134C91.6205 120.066 91.869 120.032 92.1133 120.032C92.2692 120.032 92.4482 120.051 92.6504 120.089C92.8548 120.125 93.0517 120.2 93.2413 120.314C93.4329 120.427 93.592 120.599 93.7183 120.829C93.8447 121.058 93.9079 121.366 93.9079 121.751V124.949H93.1623V124.291H93.1244C93.0738 124.397 92.9896 124.509 92.8716 124.629C92.7537 124.75 92.5967 124.852 92.4008 124.936C92.205 125.02 91.9659 125.062 91.6836 125.062ZM91.7974 124.392C92.0923 124.392 92.3408 124.335 92.543 124.219C92.7473 124.103 92.9011 123.953 93.0043 123.77C93.1096 123.587 93.1623 123.394 93.1623 123.192V122.509C93.1307 122.547 93.0612 122.582 92.9537 122.614C92.8484 122.643 92.7263 122.67 92.5873 122.693C92.4503 122.714 92.3166 122.733 92.186 122.75C92.0575 122.764 91.9533 122.777 91.8732 122.787C91.6794 122.813 91.4983 122.854 91.3298 122.911C91.1634 122.965 91.0286 123.049 90.9254 123.16C90.8243 123.27 90.7737 123.419 90.7737 123.609C90.7737 123.868 90.8696 124.064 91.0612 124.197C91.255 124.327 91.5004 124.392 91.7974 124.392ZM99.0634 120.096L97.2688 124.949H96.5105L94.7159 120.096H95.5248L96.8644 123.963H96.9149L98.2545 120.096H99.0634ZM101.845 125.05C101.407 125.05 101.023 124.945 100.692 124.737C100.363 124.528 100.107 124.237 99.9212 123.862C99.7379 123.487 99.6463 123.049 99.6463 122.547C99.6463 122.042 99.7379 121.601 99.9212 121.224C100.107 120.847 100.363 120.554 100.692 120.345C101.023 120.137 101.407 120.032 101.845 120.032C102.283 120.032 102.667 120.137 102.995 120.345C103.326 120.554 103.583 120.847 103.766 121.224C103.952 121.601 104.044 122.042 104.044 122.547C104.044 123.049 103.952 123.487 103.766 123.862C103.583 124.237 103.326 124.528 102.995 124.737C102.667 124.945 102.283 125.05 101.845 125.05ZM101.845 124.38C102.178 124.38 102.452 124.295 102.667 124.124C102.882 123.953 103.041 123.729 103.144 123.451C103.247 123.173 103.299 122.872 103.299 122.547C103.299 122.223 103.247 121.921 103.144 121.641C103.041 121.36 102.882 121.134 102.667 120.961C102.452 120.789 102.178 120.702 101.845 120.702C101.512 120.702 101.239 120.789 101.024 120.961C100.809 121.134 100.65 121.36 100.547 121.641C100.444 121.921 100.392 122.223 100.392 122.547C100.392 122.872 100.444 123.173 100.547 123.451C100.65 123.729 100.809 123.953 101.024 124.124C101.239 124.295 101.512 124.38 101.845 124.38ZM108.62 121.182L107.95 121.372C107.908 121.26 107.846 121.152 107.764 121.047C107.684 120.939 107.574 120.851 107.435 120.781C107.296 120.712 107.118 120.677 106.901 120.677C106.604 120.677 106.357 120.745 106.159 120.882C105.963 121.017 105.865 121.189 105.865 121.397C105.865 121.583 105.932 121.729 106.067 121.836C106.202 121.944 106.413 122.033 106.699 122.105L107.419 122.282C107.853 122.387 108.177 122.548 108.389 122.765C108.602 122.98 108.708 123.257 108.708 123.596C108.708 123.874 108.628 124.123 108.468 124.342C108.31 124.561 108.089 124.734 107.805 124.86C107.52 124.986 107.19 125.05 106.813 125.05C106.318 125.05 105.908 124.942 105.584 124.727C105.259 124.513 105.054 124.199 104.968 123.786L105.675 123.609C105.743 123.87 105.87 124.066 106.058 124.197C106.247 124.327 106.495 124.392 106.8 124.392C107.148 124.392 107.424 124.319 107.628 124.171C107.834 124.022 107.938 123.843 107.938 123.634C107.938 123.466 107.879 123.325 107.761 123.211C107.643 123.095 107.461 123.009 107.217 122.952L106.408 122.762C105.964 122.657 105.637 122.494 105.429 122.272C105.222 122.049 105.119 121.77 105.119 121.435C105.119 121.161 105.196 120.919 105.35 120.709C105.506 120.498 105.717 120.333 105.985 120.213C106.255 120.092 106.56 120.032 106.901 120.032C107.381 120.032 107.758 120.138 108.032 120.348C108.308 120.559 108.504 120.837 108.62 121.182Z" fill="black"/>
<g clip-path="url(#clip1_659_507)">
<path d="M49.8083 115.765C49.8305 115.799 49.8012 115.841 49.7576 115.841C48.8749 115.841 48.1574 116.469 48.1406 117.249C47.8383 117.199 47.5251 117.195 47.2158 117.242C47.1944 116.465 46.4787 115.841 45.5989 115.841C45.5553 115.841 45.5259 115.799 45.5481 115.765C45.9754 115.115 46.7693 114.678 47.6782 114.678C48.5871 114.678 49.3811 115.115 49.8083 115.765Z" fill="url(#paint2_linear_659_507)"/>
<path d="M52.5945 120.64C52.8171 120.701 53.0279 120.525 52.9535 120.327C52.178 118.262 49.6063 117.42 47.6659 117.42C45.7223 117.42 43.0932 118.289 42.3789 120.336C42.3103 120.533 42.5205 120.703 42.7398 120.642L47.4931 119.333C47.5902 119.306 47.6939 119.306 47.791 119.332L52.5945 120.64Z" fill="url(#paint3_linear_659_507)"/>
<path d="M42.3911 120.969L47.4968 119.577C47.5932 119.551 47.6962 119.551 47.7927 119.577L52.9301 120.97C53.3548 121.085 53.6454 121.437 53.6454 121.836V125.99C53.6257 127.004 52.6123 127.817 51.4846 127.817H49.6115C49.4264 127.817 49.2765 127.682 49.2765 127.516V126.059C49.2765 125.486 49.6541 124.967 50.2384 124.737C51.0217 124.429 51.9483 124.012 52.1226 123.176C52.1788 122.906 51.9831 122.646 51.6837 122.593C50.9267 122.457 50.0874 122.51 49.3777 122.795C48.572 123.119 48.3612 123.658 48.2832 124.382L48.1886 125.161C48.1597 125.399 47.9112 125.582 47.6447 125.582C47.369 125.582 47.1622 125.393 47.1323 125.147L47.0395 124.382C46.9727 123.762 46.8515 123.159 46.1386 122.873C45.3255 122.546 44.5083 122.437 43.639 122.593C43.3396 122.646 43.1438 122.906 43.2001 123.176C43.3759 124.02 44.2953 124.427 45.0843 124.737C45.6686 124.967 46.0462 125.486 46.0462 126.059V127.516C46.0462 127.682 45.8963 127.817 45.7112 127.817H43.838C42.7103 127.817 41.6969 127.004 41.6772 125.99V121.835C41.6772 121.436 41.9671 121.085 42.3911 120.969Z" fill="url(#paint4_linear_659_507)"/>
</g>
<rect x="17.1571" y="155.032" width="139.175" height="39.4013" rx="2.22426" stroke="url(#paint5_linear_659_507)" stroke-width="0.635504"/>
<path d="M76.5383 178.331V171.86H78.8005C79.2512 171.86 79.623 171.938 79.9158 172.094C80.2085 172.248 80.4265 172.455 80.5698 172.717C80.713 172.976 80.7846 173.263 80.7846 173.579C80.7846 173.857 80.7351 174.087 80.6361 174.268C80.5392 174.449 80.4107 174.592 80.2507 174.698C80.0927 174.803 79.921 174.881 79.7357 174.931V174.995C79.9337 175.007 80.1327 175.077 80.3328 175.203C80.5329 175.329 80.7004 175.511 80.8352 175.746C80.97 175.982 81.0374 176.271 81.0374 176.612C81.0374 176.937 80.9636 177.228 80.8162 177.487C80.6688 177.746 80.436 177.952 80.118 178.103C79.7999 178.255 79.386 178.331 78.8763 178.331H76.5383ZM77.3218 177.636H78.8763C79.3881 177.636 79.7515 177.537 79.9663 177.339C80.1833 177.139 80.2917 176.897 80.2917 176.612C80.2917 176.393 80.2359 176.191 80.1243 176.006C80.0126 175.818 79.8536 175.669 79.6472 175.557C79.4408 175.443 79.1964 175.386 78.9142 175.386H77.3218V177.636ZM77.3218 174.704H78.7752C79.0111 174.704 79.2238 174.658 79.4134 174.565C79.6051 174.472 79.7567 174.342 79.8684 174.173C79.9821 174.005 80.039 173.807 80.039 173.579C80.039 173.295 79.94 173.054 79.742 172.856C79.544 172.655 79.2301 172.555 78.8005 172.555H77.3218V174.704ZM85.2821 176.347V173.478H86.0277V178.331H85.2821V177.509H85.2316C85.1178 177.756 84.9409 177.965 84.7008 178.138C84.4606 178.309 84.1573 178.394 83.7908 178.394C83.4875 178.394 83.2179 178.328 82.982 178.195C82.7461 178.06 82.5608 177.858 82.4259 177.588C82.2911 177.317 82.2237 176.974 82.2237 176.562V173.478H82.9694V176.511C82.9694 176.865 83.0684 177.147 83.2664 177.358C83.4665 177.568 83.7213 177.674 84.031 177.674C84.2163 177.674 84.4048 177.626 84.5965 177.532C84.7903 177.437 84.9525 177.291 85.0831 177.096C85.2158 176.9 85.2821 176.65 85.2821 176.347ZM87.3934 178.331V173.478H88.1138V174.211H88.1643C88.2528 173.971 88.4129 173.776 88.6446 173.626C88.8763 173.477 89.1374 173.402 89.4281 173.402C89.4829 173.402 89.5513 173.403 89.6335 173.405C89.7156 173.407 89.7778 173.411 89.8199 173.415V174.173C89.7946 174.167 89.7367 174.157 89.6461 174.145C89.5577 174.13 89.4639 174.123 89.3649 174.123C89.129 174.123 88.9184 174.172 88.733 174.271C88.5498 174.368 88.4044 174.503 88.297 174.675C88.1917 174.846 88.1391 175.041 88.1391 175.26V178.331H87.3934ZM91.4494 175.412V178.331H90.7038V173.478H91.4241V174.236H91.4873C91.601 173.99 91.7738 173.792 92.0055 173.642C92.2371 173.491 92.5362 173.415 92.9027 173.415C93.2313 173.415 93.5188 173.482 93.7653 173.617C94.0117 173.75 94.2034 173.952 94.3403 174.224C94.4772 174.493 94.5457 174.834 94.5457 175.247V178.331H93.8V175.298C93.8 174.917 93.701 174.62 93.503 174.407C93.305 174.192 93.0333 174.085 92.6879 174.085C92.4499 174.085 92.2371 174.136 92.0497 174.239C91.8643 174.343 91.7179 174.493 91.6105 174.691C91.5031 174.889 91.4494 175.129 91.4494 175.412ZM97.9429 178.432C97.4753 178.432 97.0719 178.329 96.7328 178.122C96.3958 177.914 96.1357 177.623 95.9524 177.25C95.7713 176.875 95.6807 176.439 95.6807 175.942C95.6807 175.445 95.7713 175.007 95.9524 174.628C96.1357 174.247 96.3905 173.95 96.717 173.737C97.0456 173.522 97.4289 173.415 97.8671 173.415C98.1198 173.415 98.3694 173.457 98.6158 173.541C98.8623 173.625 99.0866 173.762 99.2888 173.952C99.491 174.139 99.6522 174.388 99.7722 174.698C99.8923 175.007 99.9523 175.388 99.9523 175.841V176.157H96.2115V175.513H99.194C99.194 175.239 99.1393 174.995 99.0297 174.78C98.9223 174.565 98.7686 174.395 98.5685 174.271C98.3705 174.147 98.1367 174.085 97.8671 174.085C97.5701 174.085 97.3131 174.158 97.0961 174.306C96.8813 174.451 96.716 174.641 96.6001 174.874C96.4843 175.108 96.4263 175.359 96.4263 175.626V176.056C96.4263 176.423 96.4895 176.733 96.6159 176.988C96.7444 177.241 96.9224 177.434 97.1499 177.566C97.3773 177.697 97.6417 177.762 97.9429 177.762C98.1388 177.762 98.3157 177.735 98.4737 177.68C98.6338 177.623 98.7717 177.539 98.8876 177.427C99.0034 177.314 99.0929 177.172 99.1561 177.004L99.8765 177.206C99.8006 177.45 99.6732 177.665 99.4942 177.851C99.3151 178.034 99.094 178.177 98.8307 178.28C98.5674 178.381 98.2715 178.432 97.9429 178.432ZM101.087 178.331V173.478H101.807V174.211H101.857C101.946 173.971 102.106 173.776 102.338 173.626C102.569 173.477 102.831 173.402 103.121 173.402C103.176 173.402 103.244 173.403 103.327 173.405C103.409 173.407 103.471 173.411 103.513 173.415V174.173C103.488 174.167 103.43 174.157 103.339 174.145C103.251 174.13 103.157 174.123 103.058 174.123C102.822 174.123 102.612 174.172 102.426 174.271C102.243 174.368 102.098 174.503 101.99 174.675C101.885 174.846 101.832 175.041 101.832 175.26V178.331H101.087ZM108.176 178.331L106.406 171.86H107.202L108.555 177.13H108.618L109.995 171.86H110.88L112.258 177.13H112.321L113.673 171.86H114.469L112.7 178.331H111.891L110.463 173.175H110.413L108.984 178.331H108.176ZM116.321 178.445C116.013 178.445 115.734 178.387 115.483 178.271C115.233 178.153 115.034 177.983 114.886 177.762C114.739 177.539 114.665 177.269 114.665 176.953C114.665 176.675 114.72 176.45 114.829 176.277C114.939 176.102 115.085 175.966 115.269 175.867C115.452 175.768 115.654 175.694 115.875 175.645C116.098 175.595 116.323 175.555 116.548 175.525C116.843 175.487 117.082 175.459 117.265 175.44C117.451 175.419 117.586 175.384 117.67 175.336C117.756 175.287 117.799 175.203 117.799 175.083V175.058C117.799 174.746 117.714 174.504 117.543 174.331C117.375 174.158 117.119 174.072 116.776 174.072C116.42 174.072 116.141 174.15 115.938 174.306C115.736 174.462 115.594 174.628 115.512 174.805L114.804 174.552C114.931 174.257 115.099 174.028 115.31 173.863C115.522 173.697 115.754 173.581 116.005 173.516C116.258 173.449 116.506 173.415 116.75 173.415C116.906 173.415 117.085 173.434 117.288 173.472C117.492 173.507 117.689 173.582 117.878 173.696C118.07 173.81 118.229 173.981 118.355 174.211C118.482 174.441 118.545 174.748 118.545 175.134V178.331H117.799V177.674H117.761C117.711 177.779 117.627 177.892 117.509 178.012C117.391 178.132 117.234 178.234 117.038 178.318C116.842 178.403 116.603 178.445 116.321 178.445ZM116.434 177.775C116.729 177.775 116.978 177.717 117.18 177.601C117.384 177.485 117.538 177.336 117.641 177.152C117.747 176.969 117.799 176.776 117.799 176.574V175.892C117.768 175.93 117.698 175.964 117.591 175.996C117.485 176.026 117.363 176.052 117.224 176.075C117.087 176.096 116.954 176.115 116.823 176.132C116.695 176.147 116.59 176.159 116.51 176.17C116.316 176.195 116.135 176.236 115.967 176.293C115.8 176.348 115.666 176.431 115.562 176.543C115.461 176.652 115.411 176.802 115.411 176.991C115.411 177.25 115.507 177.446 115.698 177.579C115.892 177.71 116.137 177.775 116.434 177.775ZM120.652 171.86V178.331H119.906V171.86H120.652ZM122.763 171.86V178.331H122.017V171.86H122.763ZM126.163 178.432C125.696 178.432 125.292 178.329 124.953 178.122C124.616 177.914 124.356 177.623 124.173 177.25C123.992 176.875 123.901 176.439 123.901 175.942C123.901 175.445 123.992 175.007 124.173 174.628C124.356 174.247 124.611 173.95 124.937 173.737C125.266 173.522 125.649 173.415 126.087 173.415C126.34 173.415 126.59 173.457 126.836 173.541C127.083 173.625 127.307 173.762 127.509 173.952C127.711 174.139 127.873 174.388 127.993 174.698C128.113 175.007 128.173 175.388 128.173 175.841V176.157H124.432V175.513H127.414C127.414 175.239 127.36 174.995 127.25 174.78C127.143 174.565 126.989 174.395 126.789 174.271C126.591 174.147 126.357 174.085 126.087 174.085C125.79 174.085 125.533 174.158 125.316 174.306C125.102 174.451 124.936 174.641 124.82 174.874C124.705 175.108 124.647 175.359 124.647 175.626V176.056C124.647 176.423 124.71 176.733 124.836 176.988C124.965 177.241 125.143 177.434 125.37 177.566C125.598 177.697 125.862 177.762 126.163 177.762C126.359 177.762 126.536 177.735 126.694 177.68C126.854 177.623 126.992 177.539 127.108 177.427C127.224 177.314 127.313 177.172 127.376 177.004L128.097 177.206C128.021 177.45 127.894 177.665 127.715 177.851C127.535 178.034 127.314 178.177 127.051 178.28C126.788 178.381 126.492 178.432 126.163 178.432ZM131.417 173.478V174.11H128.902V173.478H131.417ZM129.635 172.315H130.381V176.941C130.381 177.151 130.412 177.309 130.473 177.415C130.536 177.518 130.616 177.587 130.713 177.623C130.812 177.657 130.916 177.674 131.026 177.674C131.108 177.674 131.175 177.67 131.228 177.661C131.281 177.651 131.323 177.642 131.354 177.636L131.506 178.306C131.455 178.325 131.385 178.344 131.294 178.363C131.204 178.384 131.089 178.394 130.95 178.394C130.739 178.394 130.533 178.349 130.331 178.258C130.13 178.168 129.964 178.03 129.831 177.844C129.701 177.659 129.635 177.425 129.635 177.143V172.315Z" fill="black"/>
<g clip-path="url(#clip2_659_507)">
<path d="M54.9329 167.438H40.3828V181.988H54.9329V167.438Z" fill="url(#paint6_linear_659_507)"/>
<path d="M47.4965 180.803C46.7076 180.803 46.0681 180.164 46.0681 179.375C46.0681 178.586 46.7076 177.947 47.4965 177.947C48.2853 177.947 48.9248 178.586 48.9248 179.375C48.9248 180.164 48.2853 180.803 47.4965 180.803Z" fill="#FF660A"/>
<path d="M46.7427 180.59C47.4447 180.297 47.6646 179.462 47.647 179.163L48.9248 179.385C48.9248 179.984 48.643 180.236 48.5441 180.361C48.364 180.59 47.5308 181.09 46.7427 180.59Z" fill="url(#paint7_radial_659_507)"/>
<g filter="url(#filter0_d_659_507)">
<path fill-rule="evenodd" clip-rule="evenodd" d="M49.768 179.941C49.7286 180.091 49.8896 180.236 50.0172 180.148C50.8926 179.543 51.5527 178.602 51.7353 177.672C52.0397 176.123 51.6254 174.701 50.209 173.467C48.6706 172.126 48.2967 171.087 48.227 169.531C48.2119 169.193 47.8726 168.969 47.5919 169.156C46.6745 169.77 45.8399 170.923 46.1049 172.425C46.1915 172.916 46.4313 173.263 46.6456 173.574C46.9156 173.966 47.1453 174.299 46.978 174.787C46.7795 175.366 46.1141 175.671 45.684 175.392C45.0804 175.001 45.0425 174.325 45.2377 173.613C45.2764 173.472 45.1343 173.354 45.0187 173.443C44.1359 174.125 43.2164 175.675 43.5689 177.672C43.9131 178.861 44.4079 179.537 44.948 179.91C45.0636 179.99 45.2042 179.873 45.1809 179.734C45.1595 179.607 45.1485 179.476 45.1485 179.343C45.1485 178.046 46.1998 176.994 47.4966 176.994C48.7935 176.994 49.8448 178.046 49.8448 179.343C49.8448 179.549 49.8181 179.75 49.768 179.941Z" fill="url(#paint8_linear_659_507)"/>
</g>
</g>
<defs>
<filter id="filter0_d_659_507" x="41.1466" y="166.743" width="13.0281" height="15.7764" filterUnits="userSpaceOnUse" color-interpolation-filters="sRGB">
<feFlood flood-opacity="0" result="BackgroundImageFix"/>
<feColorMatrix in="SourceAlpha" type="matrix" values="0 0 0 0 0 0 0 0 0 0 0 0 0 0 0 0 0 0 127 0" result="hardAlpha"/>
<feOffset/>
<feGaussianBlur stdDeviation="1.17254"/>
<feComposite in2="hardAlpha" operator="out"/>
<feColorMatrix type="matrix" values="0 0 0 0 1 0 0 0 0 0.42 0 0 0 0 0 0 0 0 0.7 0"/>
<feBlend mode="normal" in2="BackgroundImageFix" result="effect1_dropShadow_659_507"/>
<feBlend mode="normal" in="SourceGraphic" in2="effect1_dropShadow_659_507" result="shape"/>
</filter>
<linearGradient id="paint0_linear_659_507" x1="181.006" y1="67.9682" x2="4.18679" y2="67.9682" gradientUnits="userSpaceOnUse">
<stop stop-color="#A7ECFF"/>
<stop offset="1" stop-color="#E8B6FF"/>
</linearGradient>
<linearGradient id="paint1_linear_659_507" x1="16.8394" y1="121.35" x2="156.65" y2="121.35" gradientUnits="userSpaceOnUse">
<stop stop-color="#42D2F1"/>
<stop offset="1" stop-color="#B248DD"/>
</linearGradient>
<linearGradient id="paint2_linear_659_507" x1="47.5441" y1="113.968" x2="51.8703" y2="128.16" gradientUnits="userSpaceOnUse">
<stop stop-color="#F5D45E"/>
<stop offset="1" stop-color="#FF9600"/>
</linearGradient>
<linearGradient id="paint3_linear_659_507" x1="47.5439" y1="113.968" x2="51.8701" y2="128.16" gradientUnits="userSpaceOnUse">
<stop stop-color="#F5D45E"/>
<stop offset="1" stop-color="#FF9600"/>
</linearGradient>
<linearGradient id="paint4_linear_659_507" x1="47.544" y1="113.968" x2="51.8702" y2="128.16" gradientUnits="userSpaceOnUse">
<stop stop-color="#F5D45E"/>
<stop offset="1" stop-color="#FF9600"/>
</linearGradient>
<linearGradient id="paint5_linear_659_507" x1="16.8394" y1="174.733" x2="156.65" y2="174.733" gradientUnits="userSpaceOnUse">
<stop stop-color="#42D2F1"/>
<stop offset="1" stop-color="#B248DD"/>
</linearGradient>
<linearGradient id="paint6_linear_659_507" x1="47.6578" y1="167.438" x2="47.6578" y2="181.988" gradientUnits="userSpaceOnUse">
<stop stop-color="#FFF279"/>
<stop offset="1" stop-color="#FFD336"/>
</linearGradient>
<radialGradient id="paint7_radial_659_507" cx="0" cy="0" r="1" gradientUnits="userSpaceOnUse" gradientTransform="translate(49.3815 177.749) rotate(124.018) scale(3.69744 10.9649)">
<stop offset="0.64085" stop-color="#FF660A"/>
<stop offset="1" stop-color="#FFBE15"/>
</radialGradient>
<linearGradient id="paint8_linear_659_507" x1="47.6606" y1="169.088" x2="47.6606" y2="180.562" gradientUnits="userSpaceOnUse">
<stop offset="0.338542" stop-color="#FF8F3F"/>
<stop offset="0.65625" stop-color="#FF7020"/>
<stop offset="1" stop-color="#FF3D00"/>
</linearGradient>
<clipPath id="clip0_659_507">
<rect width="14.6166" height="12.9442" fill="white" transform="translate(40.353 61.2952)"/>
</clipPath>
<clipPath id="clip1_659_507">
<rect width="14.6166" height="13.1394" fill="white" transform="translate(40.353 114.678)"/>
</clipPath>
<clipPath id="clip2_659_507">
<rect width="14.6166" height="14.5752" fill="white" transform="translate(40.353 167.424)"/>
</clipPath>
</defs>
</svg>
