<svg xmlns="http://www.w3.org/2000/svg" width="17" height="17" viewBox="0 0 17 17" fill="none">
  <g clip-path="url(#clip0_505_50)">
    <path d="M9.61898 3.02214C9.61898 3.19895 9.68922 3.36852 9.81424 3.49354C9.93926 3.61856 10.1088 3.6888 10.2856 3.6888H12.9296C12.8806 3.25592 12.6906 2.85116 12.389 2.5368L10.8663 0.964135C10.5332 0.626501 10.0913 0.417718 9.61898 0.374802V3.02214ZM8.28564 3.02214V0.355469H5.61898C4.73525 0.356527 3.88802 0.708057 3.26312 1.33295C2.63823 1.95784 2.2867 2.80507 2.28564 3.6888V10.3555C2.2867 11.2392 2.63823 12.0864 3.26312 12.7113C3.88802 13.3362 4.73525 13.6877 5.61898 13.6888H9.61898C10.5027 13.6877 11.3499 13.3362 11.9748 12.7113C12.5997 12.0864 12.9513 11.2392 12.9523 10.3555V5.02214H10.2856C9.75521 5.02214 9.2465 4.81142 8.87143 4.43635C8.49636 4.06128 8.28564 3.55257 8.28564 3.02214ZM12.2856 16.3555H6.28564C6.10883 16.3555 5.93926 16.2852 5.81424 16.1602C5.68922 16.0352 5.61898 15.8656 5.61898 15.6888C5.61898 15.512 5.68922 15.3424 5.81424 15.2174C5.93926 15.0924 6.10883 15.0221 6.28564 15.0221H12.2856C12.8161 15.0221 13.3248 14.8114 13.6999 14.4363C14.0749 14.0613 14.2856 13.5526 14.2856 13.0221V5.6888C14.2856 5.51199 14.3559 5.34242 14.4809 5.2174C14.6059 5.09237 14.7755 5.02214 14.9523 5.02214C15.1291 5.02214 15.2987 5.09237 15.4237 5.2174C15.5487 5.34242 15.619 5.51199 15.619 5.6888V13.0221C15.6179 13.9059 15.2664 14.7531 14.6415 15.378C14.0166 16.0029 13.1694 16.3544 12.2856 16.3555Z" fill="white"/>
  </g>
  <defs>
    <clipPath id="clip0_505_50">
      <rect width="16" height="16" fill="white" transform="translate(0.952148 0.355469)"/>
    </clipPath>
  </defs>
</svg>