<svg width="284" height="165" viewBox="0 0 284 165" fill="none" xmlns="http://www.w3.org/2000/svg">
<g clip-path="url(#clip0_455_888)">
<rect x="0.128845" y="0.576416" width="283.381" height="163.854" rx="6.33" fill="url(#paint0_linear_455_888)"/>
<path d="M141.819 128.834L144.706 123.834L138.932 123.834L141.819 128.834ZM141.319 35.1729L141.319 37.1241L142.319 37.1241L142.319 35.1729L141.319 35.1729ZM141.319 41.0267L141.319 44.9292L142.319 44.9292L142.319 41.0267L141.319 41.0267ZM141.319 48.8318L141.319 52.7343L142.319 52.7343L142.319 48.8318L141.319 48.8318ZM141.319 56.6369L141.319 60.5394L142.319 60.5394L142.319 56.6369L141.319 56.6369ZM141.319 64.442L141.319 68.3445L142.319 68.3445L142.319 64.442L141.319 64.442ZM141.319 72.2471L141.319 76.1497L142.319 76.1497L142.319 72.2471L141.319 72.2471ZM141.319 80.0522L141.319 83.9548L142.319 83.9548L142.319 80.0522L141.319 80.0522ZM141.319 87.8573L141.319 91.7599L142.319 91.7599L142.319 87.8573L141.319 87.8573ZM141.319 95.6624L141.319 99.565L142.319 99.565L142.319 95.6624L141.319 95.6624ZM141.319 103.468L141.319 107.37L142.319 107.37L142.319 103.468L141.319 103.468ZM141.319 111.273L141.319 115.175L142.319 115.175L142.319 111.273L141.319 111.273ZM141.319 119.078L141.319 122.98L142.319 122.98L142.319 119.078L141.319 119.078Z" fill="white"/>
<circle cx="141.819" cy="-55.9602" r="91.1331" fill="#FFB0FF"/>
<circle cx="141.819" cy="-55.9602" r="91.6331" stroke="white" stroke-opacity="0.61" stroke-dasharray="2 2"/>
<circle cx="141.819" cy="219.563" r="90.7291" fill="#7749CE"/>
<circle cx="141.819" cy="219.563" r="91.2291" stroke="white" stroke-opacity="0.61" stroke-dasharray="2 2"/>
</g>
<defs>
<linearGradient id="paint0_linear_455_888" x1="141.819" y1="0.576416" x2="141.819" y2="164.431" gradientUnits="userSpaceOnUse">
<stop stop-color="#FFB0FF"/>
<stop offset="1" stop-color="#7748CD"/>
</linearGradient>
<clipPath id="clip0_455_888">
<rect x="0.128845" y="0.576416" width="283.381" height="163.854" rx="6.33" fill="white"/>
</clipPath>
</defs>
</svg>
