<svg xmlns="http://www.w3.org/2000/svg" width="17" height="17" viewBox="0 0 17 17" fill="none">
  <path fill-rule="evenodd" clip-rule="evenodd" d="M8.64326 16.3555L4.61182 16.3555C2.5961 16.3555 0.952133 14.7555 0.952133 12.8035L0.952134 3.90747C0.952134 1.94747 2.5961 0.355468 4.62834 0.355468L8.65152 0.355468C10.6672 0.355468 12.3195 1.94747 12.3195 3.89947L12.3195 7.73947L7.19756 7.73947L8.51935 6.45947C8.76718 6.21947 8.76718 5.82747 8.51935 5.58747C8.39543 5.46747 8.23021 5.41147 8.06498 5.41147C7.90802 5.41147 7.7428 5.46747 7.61888 5.58747L5.20662 7.91547C5.08271 8.02747 5.01662 8.18747 5.01662 8.35547C5.01662 8.51547 5.08271 8.67547 5.20662 8.78747L7.61888 11.1155C7.86671 11.3555 8.27151 11.3555 8.51934 11.1155C8.76718 10.8755 8.76718 10.4835 8.51934 10.2435L7.19756 8.97147L12.3195 8.97147L12.3195 12.7955C12.3195 14.7555 10.6672 16.3555 8.64326 16.3555ZM16.1521 8.35552C16.1521 8.69152 15.8679 8.97152 15.5269 8.97152L12.3197 8.97152L12.3197 7.73952L15.5269 7.73952C15.8679 7.73952 16.1521 8.01152 16.1521 8.35552Z" fill="white"/>
</svg>