<svg xmlns="http://www.w3.org/2000/svg" width="1440" height="178" viewBox="0 0 1440 178" fill="none">
  <path d="M2609.9 575.161H2685.97V572.611H2605.6L2473.09 494.052H2624.42L2685.97 526.893V524.005L2629.83 494.052H2685.97V491.502H2625.05L2494.01 421.585H2631.35L2685.97 448.084V445.251L2637.19 421.585H2685.97V419.035H2631.93L2516.57 363.076H2642.51L2685.97 382.404V379.618L2648.78 363.083H2685.97V360.533H2643.05L2532.16 311.225H2647.94L2685.98 326.836V324.084L2654.65 311.225H2685.98V308.675H2648.44L2549.36 268.01H2656.6L2685.98 279.202V276.476L2663.76 268.01H2685.98V265.46H2657.07L2559.09 228.12H2658.41L2685.97 237.922V235.217L2666.01 228.12H2685.97V225.57H2658.85L2572.56 194.875H2665.2L2685.97 201.803V199.118L2673.25 194.875H2685.97V192.325H2665.61L2583.54 164.956H2670.11L2685.96 169.934V167.263L2678.62 164.956H2685.96V162.406H2670.5L2591.77 137.695H2672.79L2685.97 141.601V138.943L2681.76 137.695H2685.97V135.145H2673.16L2592.04 111.101H2667.61L2685.96 116.256V113.611L2677.03 111.101H2685.96V108.551H2667.96L2601.28 89.8242H2672.4L2685.96 93.4401V90.8024L2682.29 89.8242H2685.96V87.2741H2672.73L2602.54 68.5469H2669.22L2685.96 72.8037V70.1727L2679.57 68.5469H2685.96V65.9968H2669.54L2608.92 50.5954H2671.77L2685.96 54.0359V51.4117L2682.58 50.5887H2685.96V48.0386H2672.08L2605.83 31.9694H2664.73L2685.96 36.894V34.2765L2675.99 31.9626H2685.96V29.4126H2665.02L2615.82 17.9981H2671.63L2685.96 21.1823V18.5715L2683.38 17.9981H2685.96V15.4481H2671.91L2618.34 3.53441H2670.98L2685.97 6.73208V4.12807L2683.18 3.53441H2685.97V0.984375H-929.94V3.53441H-883.889L-929.94 11.7579V14.3485L-869.34 3.56814H-819.046L-883.788 15.4818H-929.94V18.0318H-897.636L-929.94 23.9752V26.5657L-883.552 18.0318H-830.079L-889.971 29.4463H-929.94V31.9963H-903.341L-929.94 37.0627V39.6599L-889.729 31.9963H-833.17L-914.475 48.0656H-929.94V50.6157H-927.367L-929.94 51.1216V53.7189L-914.226 50.6157H-853.707L-928.754 66.0103H-929.94V68.8572L-928.498 68.5604H-864.147L-929.94 82.5991V85.2031L-851.936 68.5536H-787.12L-871.347 87.2809H-929.94V89.8309H-882.818L-929.94 100.308V102.918L-871.071 89.8309H-801.803L-882.522 108.558H-929.94V111.108H-893.507L-929.94 119.561V122.179L-882.225 111.108H-808.505L-907.645 135.151H-929.94V137.701H-918.152L-929.94 140.562V143.186L-907.342 137.708H-828.173L-925.42 162.413H-929.94V166.19L-925.103 164.963H-840.357L-929.94 188.857V191.495L-830.476 164.963H-745.272L-842.728 192.332H-929.94V194.882H-851.808L-929.94 216.82V219.465L-842.385 194.875H-751.112L-854.657 225.57H-929.94V228.12H-863.251L-929.94 247.886V250.544L-854.286 228.12H-756.325L-875.294 265.46H-929.94V268.01H-883.417L-929.94 282.608V285.28L-874.91 268.01H-769.021L-890.961 308.675H-929.94V311.225H-898.599L-929.94 321.675V324.36L-890.544 311.225H-776.1L-914.717 360.533H-929.94V363.083H-921.891L-929.94 365.95V368.655L-914.286 363.09H-789.672L-929.94 416.539V421.585H-800.005L-929.94 474.92V477.673L-793.289 421.585H-656.828L-814.068 491.502H-929.94V494.052H-819.807L-929.94 543.023V545.809L-813.536 494.052H-663.058L-825.02 572.611H-929.94V575.161H-830.267L-929.94 623.511V624.381H-925.892L-824.428 575.161H-658.316L-750.552 624.381H-745.137L-652.901 575.161H-486.365L-569.38 624.381H-564.383L-481.367 575.161H-314.421L-388.215 624.381H-383.628L-309.834 575.161H-142.49L-207.057 624.381H-202.854L-138.287 575.161H29.4341L-25.9116 624.381H-22.0791L33.2667 575.161H201.345L155.227 624.381H158.716L204.834 575.161H373.235L336.338 624.381H339.524L376.421 575.161H545.106L517.436 624.381H520.353L548.022 575.161H716.942L698.494 624.381H701.215L719.663 575.161H888.745L879.524 624.381H882.111L891.332 575.161H1060.5V624.381H1063.05V575.161H1232.22L1241.44 624.381H1244.02L1234.8 575.161H1403.88L1422.33 624.381H1425.05L1406.61 575.161H1575.53L1603.2 624.381H1606.11L1578.44 575.161H1747.13L1784.02 624.381H1787.21L1750.31 575.161H1918.71L1964.83 624.381H1968.32L1922.2 575.161H2090.28L2145.63 624.381H2149.46L2094.11 575.161H2261.83L2326.4 624.381H2330.6L2266.04 575.161H2433.38L2507.18 624.381H2511.77L2437.98 575.161H2604.92L2685.99 623.221V620.259L2609.92 575.161H2609.9ZM2619.65 491.502H2468.79L2350.86 421.585H2488.61L2619.65 491.502ZM1203 31.9896H1270.12L1279.16 48.0589H1209.03L1203 31.9896ZM1206.3 48.0589H1136.01L1133 31.9896H1200.28L1206.3 48.0589ZM1908.7 162.413H1819.12L1782.07 137.701H1867.03L1908.7 162.413ZM1872.02 137.701H1956.56L2002.87 162.413H1913.7L1872.02 137.701ZM1814.52 162.413H1724.54L1692.12 137.701H1777.47L1814.52 162.413H1814.52ZM1818.34 164.963L1859.37 192.332H1763.78L1727.88 164.963H1818.34ZM1822.93 164.963H1913L1959.17 192.332H1863.97L1822.94 164.963H1822.93ZM1917.99 164.963H2007.65L2058.94 192.332H1964.16L1917.99 164.963ZM1961.98 137.701H2046.1L2097.04 162.413H2008.28L1961.97 137.701H1961.98ZM1997.12 111.108H2075.83L2129.91 135.151H2046.69L1997.12 111.108ZM2040.85 135.151H1957.2L1912.14 111.108H1991.28L2040.85 135.151ZM1951.79 135.151H1867.72L1827.16 111.108H1906.72L1951.79 135.151H1951.79ZM1862.72 135.151H1778.24L1742.2 111.108H1822.17L1862.72 135.151ZM1773.65 135.151H1688.78L1657.23 111.108H1737.6L1773.65 135.151ZM1684.57 135.151H1599.32L1572.28 111.108H1653.03L1684.57 135.151ZM1687.92 137.701L1720.34 162.413H1629.98L1602.19 137.701H1687.93H1687.92ZM1723.68 164.963L1759.59 192.332H1663.61L1632.84 164.963H1723.68ZM1762.93 194.875L1803.19 225.57H1700.99L1666.48 194.875H1762.93ZM1767.13 194.875H1863.2L1909.22 225.57H1807.4L1767.13 194.875ZM1867.79 194.875H1963.46L2015.23 225.57H1913.81L1867.79 194.875ZM1968.46 194.875H2063.72L2121.24 225.57H2020.23L1968.46 194.875ZM2013.06 164.963H2102.3L2158.72 192.332H2064.36L2013.06 164.963ZM2051.94 137.701H2135.64L2191.21 162.413H2102.88L2051.94 137.701ZM2082.1 111.108H2160.37L2218.96 135.151H2136.18L2082.1 111.108ZM2115.25 89.8309H2189.1L2238.23 108.558H2160.88L2115.25 89.8309ZM2154.17 108.558H2076.37L2034.25 89.8309H2108.54L2154.17 108.558ZM2070.09 108.558H1991.86L1953.26 89.8309H2027.98L2070.09 108.558ZM1986.02 108.558H1907.36L1872.27 89.8309H1947.42L1986.02 108.558ZM1901.95 108.558H1822.86L1791.28 89.8309H1866.86L1901.95 108.558ZM1817.87 108.558H1738.38L1710.3 89.8309H1786.29L1817.87 108.558ZM1733.78 108.558H1653.89L1629.33 89.8309H1705.71L1733.78 108.558ZM1649.68 108.558H1569.41L1548.35 89.8309H1625.12L1649.68 108.558ZM1565.58 108.558H1484.95L1467.41 89.8309H1544.53L1565.58 108.558ZM1568.45 111.108L1595.48 135.151H1509.87L1487.34 111.108H1568.45ZM1598.35 137.701L1626.14 162.413H1535.42L1512.26 137.701H1598.35H1598.35ZM1629.01 164.963L1659.78 192.332H1563.46L1537.81 164.963H1629.01ZM1662.65 194.875L1697.16 225.57H1594.61L1565.85 194.875H1662.65ZM1700.03 228.12L1742.01 265.46H1631.98L1596.99 228.12H1700.03ZM1703.86 228.12H1806.53L1855.52 265.46H1745.85L1703.86 228.12ZM1810.74 228.12H1913.04L1969.02 265.46H1859.72L1810.74 228.12ZM1917.63 228.12H2019.53L2082.52 265.46H1973.62L1917.63 228.12ZM2024.53 228.12H2126.02L2196 265.46H2087.51L2024.53 228.12ZM2069.13 194.875H2163.97L2227.25 225.57H2126.65L2069.13 194.875ZM2108.14 164.963H2196.94L2258.5 192.332H2164.57L2108.14 164.963H2108.14ZM2141.91 137.701H2225.17L2285.37 162.413H2197.48L2141.9 137.701H2141.91ZM2167.09 111.108H2244.92L2308.01 135.151H2225.67L2167.09 111.108ZM2196.26 89.8309H2269.66L2322.31 108.558H2245.39L2196.26 89.8309ZM2217.45 68.5604H2286.41L2342.57 87.2876H2270.09L2217.45 68.5604ZM2262.49 87.2876H2189.56L2140.43 68.5604H2209.84L2262.49 87.2876ZM2182.42 87.2876H2109.05L2063.42 68.5604H2133.28L2182.42 87.2876ZM2102.33 87.2876H2028.52L1986.4 68.5604H2056.7L2102.32 87.2876H2102.33ZM2022.25 87.2876H1948.01L1909.4 68.5604H1980.14L2022.25 87.2876ZM1942.17 87.2876H1867.49L1832.39 68.5604H1903.56L1942.17 87.2876ZM1862.07 87.2876H1786.97L1755.38 68.5604H1826.98L1862.07 87.2876ZM1781.98 87.2876H1706.48L1678.4 68.5604H1750.4L1781.99 87.2876H1781.98ZM1701.88 87.2876H1625.98L1601.42 68.5604H1673.81L1701.88 87.2876ZM1621.78 87.2876H1545.49L1524.44 68.5604H1597.21L1621.78 87.2876ZM1541.66 87.2876H1465.02L1447.47 68.5604H1520.6L1541.66 87.2876ZM1461.53 87.2876H1384.56L1370.52 68.5604H1443.98L1461.53 87.2876ZM1463.92 89.8309L1481.46 108.558H1400.51L1386.47 89.8309H1463.92ZM1483.85 111.108L1506.38 135.151H1420.44L1402.42 111.108H1483.84H1483.85ZM1508.77 137.701L1531.93 162.413H1440.88L1422.36 137.701H1508.77ZM1534.32 164.963L1559.97 192.332H1463.32L1442.8 164.963H1534.32H1534.32ZM1562.35 194.875L1591.11 225.57H1488.23L1465.22 194.875H1562.35ZM1593.5 228.12L1628.49 265.46H1518.14L1490.15 228.12H1593.5ZM1630.88 268.01L1668.99 308.675H1550.53L1520.05 268.01H1630.88ZM1634.37 268.01H1744.88L1790.6 308.675H1672.47L1634.36 268.01H1634.37ZM1748.72 268.01H1858.87L1912.22 308.675H1794.44L1748.72 268.01ZM1863.07 268.01H1972.85L2033.82 308.675H1916.42L1863.07 268.01H1863.07ZM1977.44 268.01H2086.82L2155.41 308.675H2038.41L1977.44 268.01ZM2091.81 268.01H2200.78L2276.99 308.675H2160.4L2091.8 268.01H2091.81ZM2131.44 228.12H2232.51L2309.49 265.46H2201.42L2131.44 228.12ZM2169.81 194.875H2264.23L2333.25 225.57H2233.09L2169.81 194.875ZM2203.21 164.963H2291.58L2358.26 192.332H2264.76L2203.21 164.963ZM2231.88 137.701H2314.7L2379.53 162.413H2292.08L2231.88 137.701H2231.88ZM2252.07 111.108H2329.47L2397.06 135.151H2315.17L2252.07 111.108ZM2277.26 89.8309H2350.21L2406.37 108.558H2329.9L2277.26 89.8309ZM2294.47 68.5604H2362.98L2422.65 87.2876H2350.62L2294.47 68.5604ZM2314.3 50.6089H2378.99L2430.94 66.0103H2363.37L2314.3 50.6089ZM2354.86 66.0103H2286.82L2240.64 50.6089H2305.78L2354.85 66.0103H2354.86ZM2278.77 66.0103H2210.29L2166.99 50.6089H2232.59L2278.77 66.0103ZM2202.68 66.0103H2133.75L2093.33 50.6089H2159.38L2202.68 66.0103H2202.68ZM2126.59 66.0103H2057.21L2019.69 50.6089H2086.19L2126.6 66.0103H2126.59ZM2050.5 66.0103H1980.67L1946.03 50.6089H2012.97L2050.49 66.0103H2050.5ZM1974.4 66.0103H1904.14L1872.39 50.6089H1939.77L1974.41 66.0103H1974.4ZM1898.31 66.0103H1827.62L1798.75 50.6089H1866.55L1898.31 66.0103ZM1822.21 66.0103H1751.09L1725.11 50.6089H1793.34L1822.21 66.0103ZM1746.1 66.0103H1674.58L1651.49 50.6089H1720.12L1746.1 66.0103H1746.1ZM1669.98 66.0103H1598.07L1577.86 50.6089H1646.9L1669.98 66.0103ZM1593.87 66.0103H1521.57L1504.25 50.6089H1573.66L1593.87 66.0103ZM1517.73 66.0103H1445.08L1430.64 50.6089H1500.41L1517.73 66.0103H1517.73ZM1441.59 66.0103H1368.61L1357.07 50.6089H1427.16L1441.59 66.0103ZM1365.43 66.0103H1292.17L1283.51 50.6089H1353.89L1365.43 66.0103ZM1367.34 68.5604L1381.38 87.2876H1304.13L1293.6 68.5604H1367.34ZM1383.29 89.8309L1397.33 108.558H1316.09L1305.57 89.8309H1383.29ZM1399.24 111.108L1417.27 135.151H1331.05L1317.53 111.108H1399.24ZM1419.17 137.701L1437.7 162.413H1346.36L1332.47 137.701H1419.17H1419.17ZM1439.61 164.963L1460.13 192.332H1363.19L1347.8 164.963H1439.61ZM1462.04 194.875L1485.05 225.57H1381.88L1364.62 194.875H1462.04ZM1486.96 228.12L1514.95 265.46H1404.31L1383.31 228.12H1486.96ZM1516.86 268.01L1547.34 308.675H1428.6L1405.74 268.01H1516.86ZM1549.26 311.225L1586.22 360.533H1457.76L1430.04 311.225H1549.26ZM1552.44 311.225H1671.38L1717.58 360.533H1589.41L1552.44 311.225ZM1674.87 311.225H1793.48L1848.93 360.533H1721.07L1674.87 311.225ZM1797.31 311.225H1915.56L1980.25 360.533H1852.75L1797.31 311.225ZM1919.76 311.225H2037.64L2111.57 360.533H1984.45L1919.76 311.225ZM2042.23 311.225H2159.7L2242.87 360.533H2116.16L2042.23 311.225ZM2164.7 311.225H2281.77L2374.18 360.533H2247.87L2164.7 311.225ZM2206.19 268.01H2314.74L2398.58 308.675H2282.41L2206.2 268.01H2206.19ZM2238.34 228.12H2338.98L2422.96 265.46H2315.32L2238.34 228.12ZM2270.5 194.875H2364.47L2439.25 225.57H2339.52L2270.5 194.875ZM2298.29 164.963H2386.21L2458.03 192.332H2364.97L2298.29 164.963ZM2321.85 137.701H2404.22L2473.68 162.413H2386.68L2321.84 137.701H2321.85ZM2337.06 111.108H2414L2486.11 135.151H2404.66L2337.06 111.108ZM2358.27 89.8309H2430.77L2490.43 108.558H2414.42L2358.27 89.8309ZM2371.49 68.5604H2439.54L2502.72 87.2876H2431.15L2371.49 68.5604ZM2387.96 50.6089H2452.19L2507.03 66.0103H2439.91L2387.96 50.6089ZM2395.32 31.9896H2455.6L2515.82 48.0589H2452.53L2395.32 31.9896ZM2443.11 48.0589H2379.36L2325.16 31.9896H2385.9L2443.11 48.0589ZM2370.39 48.0589H2306.17L2254.98 31.9896H2316.18L2370.38 48.0589H2370.39ZM2297.67 48.0589H2233L2184.82 31.9896H2246.48L2297.67 48.0589ZM2224.94 48.0589H2159.83L2114.66 31.9896H2176.77L2224.94 48.0589ZM2152.22 48.0589H2086.65L2044.49 31.9896H2107.05L2152.22 48.0589ZM2079.5 48.0589H2013.48L1974.33 31.9896H2037.34L2079.5 48.0589ZM2006.77 48.0589H1940.31L1904.17 31.9896H1967.62L2006.77 48.0589ZM1934.04 48.0589H1867.14L1834.01 31.9896H1897.9L1934.04 48.0589ZM1861.3 48.0589H1793.97L1763.86 31.9896H1828.17L1861.3 48.0589ZM1788.56 48.0589H1720.82L1693.71 31.9896H1758.45L1788.56 48.0589ZM1715.82 48.0589H1647.66L1623.57 31.9896H1688.72L1715.82 48.0589ZM1643.07 48.0589H1574.52L1553.44 31.9896H1618.98L1643.08 48.0589H1643.07ZM1570.32 48.0589H1501.39L1483.32 31.9896H1549.24L1570.32 48.0589ZM1497.55 48.0589H1428.26L1413.21 31.9896H1479.48L1497.55 48.0589ZM1424.77 48.0589H1355.16L1343.12 31.9896H1409.72L1424.77 48.0589ZM1351.97 48.0589H1282.07L1273.04 31.9896H1339.93L1351.97 48.0589ZM1280.59 50.6089L1289.25 66.0103H1215.75L1209.98 50.6089H1280.59ZM1290.68 68.5604L1301.21 87.2876H1223.72L1216.7 68.5604H1290.68ZM1302.64 89.8309L1313.17 108.558H1231.7L1224.68 89.8309H1302.64ZM1314.6 111.108L1328.12 135.151H1241.67L1232.65 111.108H1314.6ZM1329.56 137.701L1343.45 162.413H1251.89L1242.63 137.701H1329.56H1329.56ZM1344.88 164.963L1360.27 192.332H1263.1L1252.84 164.963H1344.88ZM1361.71 194.875L1378.96 225.57H1275.57L1264.06 194.875H1361.71ZM1380.39 228.12L1401.39 265.46H1290.51L1276.52 228.12H1380.39ZM1402.82 268.01L1425.69 308.675H1306.71L1291.47 268.01H1402.82ZM1427.12 311.225L1454.84 360.533H1326.14L1307.66 311.225H1427.12ZM1456.27 363.083L1487.73 419.042H1348.07L1327.1 363.083H1456.27ZM1459.2 363.083H1588.13L1630.08 419.042H1490.66L1459.2 363.083ZM1591.31 363.083H1719.97L1772.4 419.042H1633.26L1591.31 363.083ZM1723.46 363.083H1851.78L1914.71 419.042H1775.89L1723.46 363.083ZM1855.62 363.083H1983.6L2057.01 419.042H1918.55L1855.62 363.083ZM1987.79 363.083H2115.38L2199.28 419.042H2061.2L1987.79 363.083ZM2119.98 363.083H2247.18L2341.56 419.042H2203.88L2119.98 363.083ZM2252.18 363.083H2378.97L2483.84 419.042H2346.57L2252.18 363.083H2252.18ZM2287.18 311.225H2403.83L2505.48 360.533H2379.59L2287.18 311.225ZM2320.58 268.01H2428.69L2520.15 308.675H2404.41L2320.58 268.01ZM2345.25 228.12H2445.46L2536.44 265.46H2429.23L2345.25 228.12ZM2371.18 194.875H2464.72L2545.25 225.57H2445.96L2371.18 194.875ZM2393.37 164.963H2480.85L2557.79 192.332H2465.18L2393.37 164.963H2393.37ZM2411.83 137.701H2493.75L2567.85 162.413H2481.3L2411.83 137.701H2411.83ZM2422.06 111.108H2498.55L2575.16 135.151H2494.16L2422.06 111.108ZM2439.27 89.8309H2511.31L2574.48 108.558H2498.93L2439.27 89.8309ZM2448.51 68.5604H2516.1L2582.78 87.2876H2511.68L2448.5 68.5604H2448.51ZM2461.61 50.6089H2525.38L2583.11 66.0103H2516.45L2461.6 50.6089H2461.61ZM2465.49 31.9896H2525.31L2588.55 48.0589H2525.71L2465.49 31.9896ZM2480.71 18.0318H2537.46L2584.51 29.4463H2525.63L2480.71 18.0318ZM2515.29 29.4463H2455.94L2413.16 18.0318H2470.37L2515.29 29.4463ZM2446.06 29.4463H2386.25L2345.61 18.0318H2403.28L2446.06 29.4463ZM2376.82 29.4463H2316.56L2278.06 18.0318H2336.19L2376.83 29.4463H2376.82ZM2307.59 29.4463H2246.86L2210.5 18.0318H2269.08L2307.58 29.4463H2307.59ZM2238.36 29.4463H2177.18L2142.96 18.0318H2202L2238.37 29.4463H2238.36ZM2169.13 29.4463H2107.5L2075.42 18.0318H2134.91L2169.13 29.4463H2169.13ZM2099.89 29.4463H2037.8L2007.86 18.0318H2067.8L2099.89 29.4463H2099.89ZM2030.65 29.4463H1968.12L1940.31 18.0318H2000.71L2030.65 29.4463ZM1961.41 29.4463H1898.44L1872.77 18.0318H1933.61L1961.41 29.4463ZM1892.17 29.4463H1828.76L1805.23 18.0318H1866.5L1892.17 29.4463ZM1822.92 29.4463H1759.08L1737.69 18.0318H1799.39L1822.91 29.4463H1822.92ZM1753.67 29.4463H1689.42L1670.17 18.0318H1732.29L1753.68 29.4463H1753.67ZM1684.42 29.4463H1619.75L1602.64 18.0318H1665.16L1684.41 29.4463H1684.42ZM1615.16 29.4463H1550.1L1535.13 18.0318H1598.05L1615.16 29.4463ZM1545.9 29.4463H1480.45L1467.62 18.0318H1530.93L1545.9 29.4463H1545.9ZM1476.62 29.4463H1410.82L1400.13 18.0318H1463.79L1476.62 29.4463ZM1407.33 29.4463H1341.2L1332.65 18.0318H1396.64L1407.33 29.4463H1407.33ZM1338.02 29.4463H1271.61L1265.19 18.0318H1329.46L1338.01 29.4463H1338.02ZM1268.69 29.4463H1202.05L1197.77 18.0318H1262.28L1268.7 29.4463H1268.69ZM1199.33 29.4463H1132.52L1130.38 18.0318H1195.04L1199.32 29.4463H1199.33ZM1130.41 31.9896L1133.42 48.0589H1063.03V31.9896H1130.41ZM1133.9 50.6089L1136.79 66.0103H1063.04V50.6089H1133.9H1133.9ZM1136.48 50.6089H1207.26L1213.03 66.0103H1139.37L1136.48 50.6089ZM1213.99 68.5604L1221.01 87.2876H1143.36L1139.85 68.5604H1213.99ZM1144.76 108.558H1063.04V89.8309H1141.25L1144.76 108.558ZM1143.84 89.8309H1221.96L1228.98 108.558H1147.35L1143.84 89.8309ZM1229.94 111.108L1238.95 135.151H1152.33L1147.83 111.108H1229.94ZM1154.85 162.413H1063.03V137.701H1150.22L1154.85 162.413ZM1152.81 137.701H1239.91L1249.17 162.413H1157.44L1152.8 137.701H1152.81ZM1250.13 164.963L1260.38 192.332H1163.05L1157.92 164.963H1250.12H1250.13ZM1166.69 225.57H1063.03V194.875H1160.93L1166.69 225.57ZM1163.53 194.875H1261.34L1272.84 225.57H1169.28L1163.53 194.875ZM1273.79 228.12L1287.79 265.46H1176.75L1169.75 228.12H1273.79ZM1288.75 268.01L1303.99 308.675H1184.85L1177.23 268.01H1288.75ZM1304.95 311.225L1323.43 360.533H1194.57L1185.33 311.225H1304.95ZM1324.38 363.083L1345.36 419.042H1205.54L1195.05 363.083H1324.38ZM1346.32 421.585L1372.52 491.502H1219.12L1206.02 421.585H1346.32ZM1349.03 421.585H1489.17L1528.48 491.502H1375.24L1349.03 421.585ZM1492.09 421.585H1631.99L1684.41 491.502H1531.39L1492.09 421.585ZM1635.18 421.585H1774.8L1840.31 491.502H1687.59L1635.18 421.585ZM1778.29 421.585H1917.58L1996.2 491.502H1843.8L1778.29 421.585ZM1921.41 421.585H2060.35L2152.07 491.502H2000.03L1921.41 421.585ZM2064.55 421.585H2203.11L2307.94 491.502H2156.28L2064.55 421.585ZM2207.7 421.585H2345.86L2463.79 491.502H2312.53L2207.69 421.585H2207.7ZM2626.1 419.035H2489.25L2384.37 363.076H2510.74L2626.1 419.035ZM2636.78 360.533H2511.33L2409.67 311.225H2525.89L2636.78 360.533ZM2641.72 308.675H2526.42L2434.96 268.01H2542.65L2641.72 308.675ZM2649.91 265.46H2543.14L2452.17 228.12H2551.93L2649.91 265.46ZM2651.24 225.57H2552.41L2471.88 194.875H2564.96L2651.24 225.57ZM2657.56 192.332H2565.4L2488.46 164.963H2575.49L2657.56 192.332ZM2662 162.413H2575.9L2501.8 137.701H2583.27L2662 162.413ZM2664.19 135.151H2583.66L2507.05 111.108H2583.08L2664.19 135.151ZM2658.54 108.558H2583.46L2520.28 89.8309H2591.86L2658.54 108.558ZM2662.86 87.2876H2592.21L2525.53 68.5604H2592.67L2662.86 87.2876ZM2659.2 66.0103H2593L2535.27 50.6089H2598.58L2659.2 66.0103H2659.2ZM2661.27 48.0589H2598.9L2535.67 31.9896H2595.03L2661.27 48.0589ZM2653.75 29.4463H2595.33L2548.28 18.0318H2604.56L2653.75 29.4463H2653.75ZM2606.6 3.56814L2660.17 15.4818H2604.83L2553.49 3.56814H2606.59H2606.6ZM2542.22 3.56814L2593.57 15.4818H2537.76L2488.65 3.56814H2542.21H2542.22ZM2477.84 3.56814L2526.95 15.4818H2470.68L2423.8 3.56814H2477.84ZM2413.46 3.56814L2460.34 15.4818H2403.61L2358.96 3.56814H2413.46ZM2349.07 3.56814L2393.72 15.4818H2336.53L2294.12 3.56814H2349.08H2349.07ZM2284.69 3.56814L2327.1 15.4818H2269.45L2229.27 3.56814H2284.68H2284.69ZM2220.31 3.56814L2260.49 15.4818H2202.39L2164.44 3.56814H2220.32H2220.31ZM2155.93 3.56814L2193.87 15.4818H2135.31L2099.59 3.56814H2155.92H2155.93ZM2091.54 3.56814L2127.26 15.4818H2068.24L2034.76 3.56814H2091.55H2091.54ZM2027.16 3.56814L2060.64 15.4818H2001.17L1969.92 3.56814H2027.15H2027.16ZM1962.76 3.56814L1994.02 15.4818H1934.1L1905.08 3.56814H1962.76ZM1898.37 3.56814L1927.4 15.4818H1867.04L1840.25 3.56814H1898.37ZM1833.98 3.56814L1860.77 15.4818H1799.98L1775.42 3.56814H1833.98ZM1769.58 3.56814L1794.14 15.4818H1732.92L1710.6 3.56814H1769.59H1769.58ZM1705.18 3.56814L1727.51 15.4818H1665.86L1645.77 3.56814H1705.18H1705.18ZM1640.78 3.56814L1660.87 15.4818H1598.82L1580.97 3.56814H1640.79H1640.78ZM1576.37 3.56814L1594.22 15.4818H1531.78L1516.15 3.56814H1576.37ZM1511.96 3.56814L1527.58 15.4818H1464.75L1451.36 3.56814H1511.96ZM1447.52 3.56814L1460.92 15.4818H1397.73L1386.57 3.56814H1447.52ZM1383.09 3.56814L1394.25 15.4818H1330.74L1321.81 3.56814H1383.08H1383.09ZM1318.63 3.56814L1327.56 15.4818H1263.77L1257.07 3.56814H1318.63H1318.63ZM1254.14 3.56814L1260.84 15.4818H1196.81L1192.34 3.56814H1254.13H1254.14ZM1189.63 3.56814L1194.09 15.4818H1129.9L1127.67 3.56814H1189.63H1189.63ZM1063.03 3.56814H1125.08L1127.31 15.4818H1063.03V3.56814ZM914.502 48.0589H844.371L853.404 31.9896H920.523L914.502 48.0589ZM923.245 31.9896H990.532L987.521 48.0589H917.223L923.245 31.9896ZM304.418 162.413H214.829L256.509 137.701H341.464L304.418 162.413ZM346.057 137.701H431.41L398.992 162.413H309.005L346.051 137.701H346.057ZM209.832 162.413H120.653L166.967 137.701H251.511L209.832 162.413ZM115.245 162.413H26.4907L77.4315 137.701H161.558L115.245 162.413ZM20.6443 162.413H-67.6852L-12.1105 137.701H71.5851L20.6443 162.413ZM21.2303 164.963H110.463L59.1715 192.332H-35.1931L21.2303 164.963ZM115.878 164.963H205.534L159.369 192.332H64.5869L115.878 164.963ZM210.525 164.963H300.593L259.56 192.332H164.367L210.532 164.963H210.525ZM305.186 164.963H395.651L359.744 192.332H264.154L305.186 164.963ZM399.847 164.963H490.689L459.915 192.332H363.94L399.847 164.963ZM403.195 162.413L435.613 137.701H521.349L493.565 162.413H403.202H403.195ZM438.954 135.151L470.496 111.108H551.248L524.212 135.151H438.954ZM434.751 135.151H349.876L385.925 111.108H466.293L434.751 135.151ZM345.283 135.151H260.799L301.354 111.108H381.331L345.283 135.151ZM255.808 135.151H171.735L216.796 111.108H296.356L255.802 135.151H255.808ZM166.327 135.151H82.6785L132.245 111.108H211.387L166.327 135.151ZM76.8455 135.151H-6.37189L47.7076 111.108H126.419L76.8455 135.151ZM-12.6494 135.151H-95.4289L-36.8434 111.108H41.4302L-12.6494 135.151ZM-102.137 135.151H-184.479L-121.388 111.108H-43.5519L-102.137 135.151ZM-191.632 135.151H-273.529L-205.932 111.108H-128.541L-191.632 135.151ZM-191.168 137.701H-108.348L-168.55 162.413H-255.997L-191.161 137.701H-191.168ZM-101.639 137.701H-18.3813L-73.9561 162.413H-161.848L-101.646 137.701H-101.639ZM-73.4105 164.963H15.3973L-41.0261 192.332H-134.96L-73.4037 164.963H-73.4105ZM-40.4468 194.875H54.3961L-3.12531 225.57H-103.72L-40.4468 194.875ZM59.8046 194.875H155.065L103.296 225.57H2.28333L59.8046 194.875ZM160.063 194.875H255.734L209.717 225.57H108.294L160.063 194.875ZM260.328 194.875H356.396L316.132 225.57H214.311L260.328 194.875ZM360.599 194.875H457.052L422.539 225.57H320.335L360.599 194.875ZM460.885 194.875H557.688L528.927 225.57H426.372L460.885 194.875ZM463.747 192.332L494.522 164.963H585.721L560.072 192.332H463.747ZM497.391 162.413L525.175 137.701H611.262L588.105 162.413H497.385H497.391ZM528.045 135.151L555.081 111.108H636.183L613.653 135.151H528.038H528.045ZM557.943 108.558L578.999 89.8309H656.12L638.574 108.558H557.943ZM554.118 108.558H473.844L498.408 89.8309H575.173L554.118 108.558ZM469.641 108.558H389.751L417.824 89.8309H494.205L469.641 108.558ZM385.157 108.558H305.658L337.241 89.8309H413.231L385.157 108.558ZM300.667 108.558H221.578L256.67 89.8309H332.25L300.667 108.558ZM216.17 108.558H137.506L176.107 89.8309H251.262L216.17 108.558ZM131.666 108.558H53.4328L95.5433 89.8309H170.267L131.666 108.558ZM47.1621 108.558H-30.6332L14.9932 89.8309H89.2792L47.1688 108.558H47.1621ZM-37.3485 108.558H-114.706L-65.5703 89.8309H8.27789L-37.3485 108.558ZM-121.859 108.558H-198.772L-146.127 89.8309H-72.7234L-121.859 108.558ZM-206.37 108.558H-282.831L-226.677 89.8309H-153.725L-206.37 108.558ZM-290.887 108.558H-366.897L-307.234 89.8309H-234.733L-290.887 108.558ZM-290.476 111.108H-213.536L-281.134 135.151H-362.58L-290.476 111.108ZM-280.696 137.701H-198.327L-263.164 162.413H-350.166L-280.703 137.701H-280.696ZM-262.685 164.963H-174.76L-241.441 192.332H-334.499L-262.685 164.963ZM-168.051 164.963H-79.6813L-141.237 192.332H-234.733L-168.051 164.963ZM-140.698 194.875H-46.2865L-109.56 225.57H-209.724L-140.698 194.875ZM-108.974 228.12H-7.90076L-77.8828 265.46H-185.954L-108.974 228.12ZM-2.49219 228.12H98.9987L36.0148 265.46H-72.4742L-2.49219 228.12ZM103.996 228.12H205.898L149.912 265.46H41.0126L103.996 228.12ZM210.492 228.12H312.791L263.803 265.46H154.506L210.492 228.12ZM316.994 228.12H419.67L377.681 265.46H268.006L316.994 228.12ZM423.503 228.12H526.536L491.545 265.46H381.513L423.503 228.12ZM530.025 228.12H633.388L605.395 265.46H495.034L530.025 228.12ZM532.416 225.57L561.177 194.875H658.309L635.301 225.57H532.416ZM563.568 192.332L589.216 164.963H680.739L660.222 192.332H563.568ZM591.601 162.413L614.758 137.701H701.174L682.652 162.413H591.608H591.601ZM617.142 135.151L639.672 111.108H721.105L703.08 135.151H617.142ZM642.063 108.558L659.609 89.8309H737.054L723.018 108.558H642.063ZM662 87.2876L679.547 68.5604H753.004L738.967 87.2876H662ZM658.512 87.2876H581.868L602.923 68.5604H676.058L658.512 87.2876ZM578.036 87.2876H501.749L526.313 68.5604H599.091L578.036 87.2876ZM497.553 87.2876H421.65L449.724 68.5604H522.117L497.553 87.2876ZM417.057 87.2876H341.545L373.134 68.5604H445.137L417.063 87.2876H417.057ZM336.547 87.2876H261.446L296.545 68.5604H368.136L336.547 87.2876ZM256.037 87.2876H181.361L219.969 68.5604H291.136L256.037 87.2876ZM175.528 87.2876H101.282L143.399 68.5604H214.136L175.528 87.2876ZM95.0044 87.2876H21.1967L66.8231 68.5604H137.122L95.0044 87.2876ZM14.4881 87.2876H-58.882L-9.74628 68.5604H60.1145L14.4881 87.2876ZM-66.0351 87.2876H-138.961L-86.3157 68.5604H-16.8994L-66.0351 87.2876ZM-146.565 87.2876H-219.039L-162.885 68.5604H-93.9202L-146.565 87.2876ZM-227.095 87.2876H-299.118L-239.454 68.5604H-170.941L-227.095 87.2876ZM-307.625 87.2876H-379.19L-316.017 68.5604H-247.961L-307.625 87.2876ZM-388.155 87.2876H-459.261L-392.58 68.5604H-324.982L-388.155 87.2876ZM-387.784 89.8309H-315.741L-375.404 108.558H-450.957L-387.784 89.8309ZM-375.014 111.108H-298.525L-370.629 135.151H-451.623L-375.014 111.108ZM-370.218 137.701H-288.294L-357.757 162.413H-444.309L-370.211 137.701H-370.218ZM-357.319 164.963H-269.838L-341.653 192.332H-434.266L-357.326 164.963H-357.319ZM-341.188 194.875H-247.652L-322.429 225.57H-421.718L-341.188 194.875ZM-240.943 194.875H-146.969L-215.995 225.57H-315.721L-240.943 194.875ZM-215.456 228.12H-114.814L-191.794 265.46H-299.434L-215.456 228.12ZM-191.208 268.01H-82.6583L-158.871 308.675H-275.038L-191.201 268.01H-191.208ZM-77.2498 268.01H31.7175L-36.877 308.675H-153.469L-77.2565 268.01H-77.2498ZM36.7153 268.01H146.093L85.1235 308.675H-31.8793L36.7153 268.01ZM150.68 268.01H260.456L207.104 308.675H89.7036L150.673 268.01H150.68ZM264.659 268.01H374.811L329.084 308.675H211.307L264.659 268.01ZM378.651 268.01H489.16L451.051 308.675H332.917L378.644 268.01H378.651ZM492.649 268.01H603.489L573.004 308.675H454.547L492.656 268.01H492.649ZM606.668 268.01H717.791L694.924 308.675H576.183L606.668 268.01ZM608.581 265.46L636.574 228.12H740.22L719.225 265.46H608.581ZM638.48 225.57L661.489 194.875H758.905L741.648 225.57H638.48ZM663.402 192.332L683.918 164.963H775.723L760.332 192.332H663.395H663.402ZM685.831 162.413L704.353 137.701H791.053L777.158 162.413H685.824H685.831ZM706.266 135.151L724.291 111.108H806.006L792.488 135.151H706.266ZM726.197 108.558L740.234 89.8309H817.962L807.434 108.558H726.197ZM742.146 87.2876L756.183 68.5604H829.924L819.396 87.2876H742.146ZM758.096 66.0103L769.641 50.6089H840.02L831.358 66.0103H758.096ZM754.917 66.0103H681.938L696.372 50.6089H766.462L754.917 66.0103ZM678.449 66.0103H605.793L623.11 50.6089H692.876L678.442 66.0103H678.449ZM601.96 66.0103H529.661L549.868 50.6089H619.277L601.96 66.0103ZM525.458 66.0103H453.543L476.632 50.6089H545.665L525.458 66.0103ZM448.949 66.0103H377.425L403.404 50.6089H472.039L448.949 66.0103ZM372.434 66.0103H301.32L330.189 50.6089H398.413L372.434 66.0103ZM295.911 66.0103H225.222L256.974 50.6089H324.78L295.911 66.0103ZM219.383 66.0103H149.124L183.765 50.6089H251.141L219.389 66.0103H219.383ZM142.854 66.0103H73.0332L110.557 50.6089H177.494L142.854 66.0103ZM66.3179 66.0103H-3.0647L37.3484 50.6089H103.841L66.3179 66.0103ZM-10.2178 66.0103H-79.1559L-35.8599 50.6089H30.1885L-10.2245 66.0103H-10.2178ZM-86.7535 66.0103H-155.24L-109.055 50.6089H-43.4576L-86.7535 66.0103ZM-163.296 66.0103H-231.331L-182.263 50.6089H-117.117L-163.303 66.0103H-163.296ZM-239.838 66.0103H-307.416L-255.458 50.6089H-190.77L-239.838 66.0103ZM-316.381 66.0103H-383.5L-328.653 50.6089H-264.423L-316.381 66.0103ZM-392.923 66.0103H-459.585L-401.855 50.6089H-338.083L-392.93 66.0103H-392.923ZM-469.473 66.0103H-535.669L-475.05 50.6089H-411.736L-469.466 66.0103H-469.473ZM-546.015 66.0103H-611.747L-548.244 50.6089H-485.395L-546.015 66.0103ZM-545.698 68.5604H-479.023L-549.214 87.2876H-619.398L-545.698 68.5604ZM-469.136 68.5604H-401.996L-468.678 87.2876H-539.327L-469.136 68.5604ZM-468.334 89.8309H-396.749L-459.922 108.558H-535.016L-468.334 89.8309ZM-459.551 111.108H-383.521L-460.13 135.151H-540.667L-459.551 111.108ZM-459.74 137.701H-378.267L-452.364 162.413H-538.464L-459.74 137.701ZM-451.953 164.963H-364.924L-441.864 192.332H-534.026L-451.953 164.963ZM-441.426 194.875H-348.341L-428.871 225.57H-527.708L-441.426 194.875ZM-428.406 228.12H-328.64L-419.616 265.46H-526.381L-428.406 228.12ZM-321.931 228.12H-221.727L-305.705 265.46H-412.908L-321.931 228.12ZM-305.166 268.01H-197.048L-280.885 308.675H-396.621L-305.166 268.01ZM-280.299 311.225H-163.653L-256.064 360.533H-381.951L-280.299 311.225ZM-158.244 311.225H-41.1743L-124.344 360.533H-250.656L-158.244 311.225ZM-36.1766 311.225H81.3044L7.37537 360.533H-119.347L-36.1766 311.225ZM85.8914 311.225H203.763L139.075 360.533H11.9623L85.8914 311.225ZM207.966 311.225H326.221L270.775 360.533H143.278L207.966 311.225ZM330.054 311.225H448.666L402.461 360.533H274.607L330.054 311.225ZM452.155 311.225H571.091L534.127 360.533H405.95L452.155 311.225ZM574.27 311.225H693.489L665.766 360.533H537.306L574.27 311.225ZM696.412 311.225H815.867L797.385 360.533H668.689L696.412 311.225ZM697.847 308.675L720.714 268.01H832.066L816.823 308.675H697.847ZM722.142 265.46L743.137 228.12H847.012L833.015 265.46H722.142ZM744.571 225.57L761.828 194.875H859.472L847.968 225.57H744.571ZM763.256 192.332L778.646 164.963H870.687L860.429 192.332H763.262H763.256ZM780.081 162.413L793.976 137.701H880.905L871.644 162.413H780.081ZM795.404 135.151L808.922 111.108H890.867L881.855 135.151H795.404ZM810.357 108.558L820.885 89.8309H898.842L891.823 108.558H810.357ZM822.319 87.2876L832.847 68.5604H906.816L899.798 87.2876H822.319ZM834.282 66.0103L842.943 50.6089H913.552L907.78 66.0103H834.288H834.282ZM841.455 48.0589H771.554L783.597 31.9896H850.487L841.455 48.0589ZM768.375 48.0589H698.763L713.817 31.9896H780.418L768.375 48.0589ZM695.267 48.0589H625.979L644.044 31.9896H710.321L695.267 48.0589ZM622.146 48.0589H553.215L574.291 31.9896H640.211L622.146 48.0589ZM549.012 48.0589H480.458L504.551 31.9896H570.094L549.019 48.0589H549.012ZM475.864 48.0589H407.708L434.811 31.9896H499.957L475.864 48.0589ZM402.71 48.0589H334.964L365.079 31.9896H429.814L402.71 48.0589ZM329.556 48.0589H262.227L295.353 31.9896H359.67L329.556 48.0589ZM256.388 48.0589H189.49L225.626 31.9896H289.513L256.388 48.0589ZM183.226 48.0589H116.767L155.914 31.9896H219.362L183.226 48.0589ZM110.052 48.0589H44.0301L86.1877 31.9896H149.192L110.045 48.0589H110.052ZM36.8837 48.0589H-28.6866L16.4818 31.9896H79.0413L36.8837 48.0589ZM-36.291 48.0589H-101.41L-53.2308 31.9896H8.87732L-36.291 48.0589ZM-109.466 48.0589H-174.133L-122.943 31.9896H-61.2865L-109.466 48.0589ZM-182.647 48.0589H-246.857L-192.656 31.9896H-131.457L-182.647 48.0589ZM-255.829 48.0589H-319.58L-262.369 31.9896H-201.628L-255.829 48.0589ZM-329.003 48.0589H-392.297L-332.075 31.9896H-271.792L-329.003 48.0589ZM-402.185 48.0589H-465.02L-401.787 31.9896H-341.962L-402.185 48.0589ZM-475.366 48.0589H-537.737L-471.493 31.9896H-412.133L-475.366 48.0589ZM-548.554 48.0589H-610.46L-541.206 31.9896H-482.31L-548.554 48.0589ZM-621.736 48.0589H-683.177L-610.905 31.9896H-552.474L-621.729 48.0589H-621.736ZM-621.439 50.6089H-559.055L-622.557 66.0103H-687.825L-621.433 50.6089H-621.439ZM-622.254 68.5604H-556.044L-629.744 87.2876H-699.464L-622.254 68.5604ZM-629.428 89.8309H-558.765L-628.956 108.558H-703.128L-629.428 89.8309ZM-548.884 89.8309H-477.757L-544.439 108.558H-619.075L-548.884 89.8309ZM-544.089 111.108H-468.516L-549.632 135.151H-629.711L-544.089 111.108ZM-549.261 137.701H-468.247L-546.971 162.413H-632.614L-549.255 137.701H-549.261ZM-546.587 164.963H-460.009L-542.081 192.332H-633.792L-546.594 164.963H-546.587ZM-541.671 194.875H-449.03L-535.312 225.57H-633.705L-541.664 194.875H-541.671ZM-534.881 228.12H-435.566L-533.541 265.46H-639.854L-534.881 228.12ZM-533.069 268.01H-425.826L-524.906 308.675H-639.767L-533.069 268.01ZM-419.118 268.01H-311.437L-402.892 308.675H-518.191L-419.111 268.01H-419.118ZM-402.353 311.225H-286.138L-387.791 360.533H-513.247L-402.353 311.225ZM-387.205 363.083H-260.84L-365.712 419.042H-502.564L-387.205 363.083ZM-255.431 363.083H-128.642L-223.027 419.042H-360.303L-255.431 363.083ZM-123.651 363.083H3.54962L-80.3481 419.042H-218.036L-123.651 363.083ZM8.13647 363.083H135.727L62.317 419.042H-75.7611L8.13647 363.083ZM139.937 363.083H267.912L204.989 419.042H66.5267L139.937 363.083ZM271.738 363.083H400.07L347.634 419.042H208.815L271.738 363.083ZM403.559 363.083H532.214L490.265 419.042H351.123L403.559 363.083ZM535.393 363.083H664.331L632.869 419.042H493.444L535.393 363.083ZM667.254 363.083H796.421L775.447 419.042H635.786L667.248 363.083H667.254ZM799.142 363.083H928.478L917.991 419.042H778.168L799.142 363.083ZM800.099 360.533L818.581 311.225H938.197L928.956 360.533H800.099ZM819.537 308.675L834.78 268.01H946.3L938.676 308.675H819.537ZM835.736 265.46L849.733 228.12H953.776L946.778 265.46H835.736ZM850.683 225.57L862.187 194.875H960L954.248 225.57H850.683ZM962.593 194.875H1060.49V225.57H956.841L962.593 194.875ZM960.485 192.332H863.15L873.408 164.963H965.618L960.485 192.332ZM874.358 162.413L883.619 137.701H970.716L966.082 162.413H874.351H874.358ZM973.309 137.701H1060.49V162.413H968.682L973.316 137.701H973.309ZM971.195 135.151H884.576L893.588 111.108H975.701L971.195 135.151ZM894.544 108.558L901.563 89.8309H979.688L976.179 108.558H894.544ZM982.281 89.8309H1060.49V108.558H978.772L982.281 89.8309ZM980.166 87.2876H902.519L909.538 68.5604H983.676L980.166 87.2876ZM910.494 66.0103L916.266 50.6089H987.043L984.154 66.0103H910.494ZM989.63 50.6089H1060.49V66.0103H986.747L989.636 50.6089H989.63ZM990.108 48.0589L993.119 31.9896H1060.49V48.0589H990.108ZM991.01 29.4463H924.201L928.478 18.0318H993.146L991.004 29.4463H991.01ZM921.48 29.4463H854.839L861.257 18.0318H925.757L921.48 29.4463ZM851.922 29.4463H785.51L794.064 18.0318H858.334L851.915 29.4463H851.922ZM782.324 29.4463H716.194L726.891 18.0318H790.878L782.324 29.4463ZM712.712 29.4463H646.913L659.744 18.0318H723.408L712.712 29.4463ZM643.08 29.4463H577.638L592.611 18.0318H655.918L643.087 29.4463H643.08ZM573.435 29.4463H508.37L525.485 18.0318H588.408L573.435 29.4463ZM503.776 29.4463H439.109L458.359 18.0318H520.891L503.776 29.4463ZM434.111 29.4463H369.854L391.246 18.0318H453.368L434.118 29.4463H434.111ZM364.445 29.4463H300.606L324.133 18.0318H385.831L364.439 29.4463H364.445ZM294.766 29.4463H231.358L257.027 18.0318H318.294L294.766 29.4463ZM225.088 29.4463H162.117L189.921 18.0318H250.75L225.081 29.4463H225.088ZM155.409 29.4463H92.8761L122.822 18.0318H183.213L155.409 29.4463ZM85.723 29.4463H23.6417L55.7229 18.0318H115.669L85.723 29.4463ZM16.0372 29.4463H-45.5928L-11.3696 18.0318H48.1252L16.0439 29.4463H16.0372ZM-53.6484 29.4463H-114.827L-78.4621 18.0318H-19.4186L-53.6417 29.4463H-53.6484ZM-123.334 29.4463H-184.055L-145.555 18.0318H-86.9691L-123.334 29.4463ZM-193.027 29.4463H-253.289L-212.647 18.0318H-154.52L-193.02 29.4463H-193.027ZM-262.719 29.4463H-322.524L-279.746 18.0318H-222.077L-262.719 29.4463ZM-332.411 29.4463H-391.758L-346.839 18.0318H-289.634L-332.411 29.4463ZM-402.104 29.4463H-460.986L-413.931 18.0318H-357.191L-402.111 29.4463H-402.104ZM-471.796 29.4463H-530.213L-481.017 18.0318H-424.742L-471.796 29.4463ZM-541.489 29.4463H-599.441L-548.103 18.0318H-492.292L-541.489 29.4463ZM-611.188 29.4463H-668.669L-615.195 18.0318H-559.85L-611.188 29.4463ZM-680.88 29.4463H-737.903L-682.288 18.0318H-627.407L-680.88 29.4463ZM-750.573 29.4463H-807.124L-749.374 18.0318H-694.958L-750.573 29.4463ZM-750.317 31.9896H-692.816L-768.099 48.0589H-828.61L-750.317 31.9896ZM-680.611 31.9896H-622.652L-694.924 48.0589H-755.894L-680.611 31.9896ZM-694.634 50.6089H-632.715L-699.107 66.0103H-763.909L-694.634 50.6089ZM-698.817 68.5604H-633.072L-710.281 87.2876H-779.535L-698.817 68.5604ZM-709.978 89.8309H-639.78L-713.48 108.558H-787.187L-709.978 89.8309ZM-713.164 111.108H-638.514L-728.642 135.151H-807.798L-713.164 111.108ZM-628.626 111.108H-553.518L-639.14 135.151H-718.761L-628.633 111.108H-628.626ZM-638.783 137.701H-558.226L-641.585 162.413H-726.769L-638.777 137.701H-638.783ZM-641.222 164.963H-555.101L-642.299 192.332H-733.552L-641.222 164.963ZM-641.909 194.875H-549.719L-641.754 225.57H-739.695L-641.902 194.875H-641.909ZM-641.349 228.12H-542.486L-647.459 265.46H-753.321L-641.349 228.12ZM-647.014 268.01H-540.222L-646.92 308.675H-761.336L-647.014 268.01ZM-646.455 311.225H-531.116L-651.251 360.533H-775.831L-646.455 311.225ZM-524.407 311.225H-408.631L-519.524 360.533H-644.542L-524.407 311.225ZM-518.979 363.083H-393.045L-508.404 419.042H-644.825L-518.979 363.083ZM-507.818 421.585H-370.487L-501.527 491.502H-651.958L-507.818 421.585ZM-365.079 421.585H-227.331L-345.263 491.502H-496.118L-365.079 421.585ZM-222.333 421.585H-84.1738L-189.005 491.502H-340.272L-222.34 421.585H-222.333ZM-79.5802 421.585H58.9761L-32.7481 491.502H-184.412L-79.5802 421.585ZM63.1791 421.585H202.119L123.496 491.502H-28.5452L63.1791 421.585ZM205.952 421.585H345.242L279.726 491.502H127.328L205.952 421.585ZM348.732 421.585H488.352L435.936 491.502H283.215L348.732 421.585ZM491.538 421.585H631.441L592.133 491.502H439.129L491.545 421.585H491.538ZM634.358 421.585H774.49L748.283 491.502H595.043L634.351 421.585H634.358ZM777.212 421.585H917.513L904.412 491.502H751.004L777.212 421.585ZM920.106 421.585H1060.49V491.502H907.005L920.106 421.585ZM920.584 419.035L931.071 363.076H1060.49V419.035H920.584ZM931.549 360.533L940.79 311.225H1060.49V360.533H931.549ZM941.269 308.675L948.893 268.01H1060.5V308.675H941.275H941.269ZM949.365 265.46L956.363 228.12H1060.49V265.46H949.365ZM963.072 192.332L968.204 164.963H1060.49V192.332H963.072ZM973.788 135.151L978.294 111.108H1060.49V135.151H973.788ZM982.759 87.2876L986.269 68.5604H1060.49V87.2876H982.759ZM1060.49 29.4463H993.597L995.739 18.0318H1060.49V29.4463ZM998.447 3.56814H1060.49V15.4818H996.217L998.447 3.56814ZM933.9 3.56814H995.86L993.631 15.4818H929.441L933.907 3.56814H933.9ZM869.387 3.56814H931.179L926.713 15.4818H862.692L869.387 3.56814ZM804.908 3.56814H866.471L859.776 15.4818H795.983L804.915 3.56814H804.908ZM740.449 3.56814H801.729L792.797 15.4818H729.288L740.449 3.56814ZM676.004 3.56814H736.953L725.793 15.4818H662.607L676.004 3.56814ZM611.578 3.56814H672.171L658.774 15.4818H595.945L611.572 3.56814H611.578ZM547.16 3.56814H607.375L591.749 15.4818H529.304L547.16 3.56814ZM482.748 3.56814H542.566L524.71 15.4818H462.656L482.748 3.56814ZM418.343 3.56814H477.75L457.658 15.4818H396.015L418.336 3.56814H418.343ZM353.945 3.56814H412.934L390.613 15.4818H329.394L353.952 3.56814H353.945ZM289.547 3.56814H348.105L323.547 15.4818H262.759L289.547 3.56814ZM225.155 3.56814H283.276L256.489 15.4818H196.132L225.155 3.56814ZM160.763 3.56814H218.446L189.423 15.4818H129.511L160.763 3.56814ZM96.3785 3.56814H153.61L122.357 15.4818H62.8895L96.3785 3.56814ZM31.9869 3.56814H88.7741L55.2918 15.4818H-3.72479L31.9937 3.56814H31.9869ZM-32.3978 3.56814H23.9313L-11.7872 15.4818H-70.3526L-32.4046 3.56814H-32.3978ZM-96.776 3.56814H-40.8981L-78.8461 15.4818H-136.953L-96.7693 3.56814H-96.776ZM-161.161 3.56814H-105.748L-145.932 15.4818H-203.581L-161.168 3.56814H-161.161ZM-225.546 3.56814H-170.591L-213.004 15.4818H-270.195L-225.546 3.56814ZM-289.924 3.56814H-235.427L-280.076 15.4818H-336.803L-289.924 3.56814ZM-354.302 3.56814H-300.27L-347.149 15.4818H-403.411L-354.295 3.56814H-354.302ZM-418.687 3.56814H-365.119L-414.234 15.4818H-470.032L-418.687 3.56814ZM-483.065 3.56814H-429.962L-481.307 15.4818H-536.639L-483.065 3.56814ZM-547.45 3.56814H-494.812L-548.386 15.4818H-603.253L-547.443 3.56814H-547.45ZM-611.828 3.56814H-559.654L-615.465 15.4818H-669.868L-611.828 3.56814ZM-676.206 3.56814H-624.504L-682.544 15.4818H-736.482L-676.206 3.56814ZM-740.584 3.56814H-689.347L-749.623 15.4818H-803.09L-740.584 3.56814ZM-869.704 15.4818L-804.962 3.56814H-754.196L-816.702 15.4818H-869.697H-869.704ZM-876.352 29.4463L-816.46 18.0318H-762.515L-820.265 29.4463H-876.345H-876.352ZM-901.327 48.0589L-820.023 31.9896H-762.993L-841.287 48.0589H-901.327ZM-852.205 66.0103H-916.078L-841.031 50.6089H-780.041L-852.205 66.0103ZM-840 66.0103L-767.836 50.6089H-706.388L-775.662 66.0103H-840ZM-859.607 87.2876L-775.38 68.5604H-710.099L-790.817 87.2876H-859.607ZM-871.24 108.558L-790.521 89.8309H-720.788L-797.997 108.558H-871.24ZM-896.834 135.151L-797.694 111.108H-723.509L-818.143 135.151H-896.834ZM-830.813 162.413H-915.074L-817.82 137.701H-738.186L-830.806 162.413H-830.813ZM-820.925 162.413L-728.305 137.701H-648.213L-736.206 162.413H-820.932H-820.925ZM-833.305 192.332L-735.849 164.963H-650.186L-742.517 192.332H-833.312H-833.305ZM-845.692 225.57L-742.147 194.875H-650.415L-748.209 225.57H-845.692ZM-866.787 265.46L-747.818 228.12H-649.398L-761.37 265.46H-866.787ZM-882.905 308.675L-760.966 268.01H-654.625L-768.947 308.675H-882.905ZM-907.12 360.533L-768.503 311.225H-653.608L-782.984 360.533H-907.12ZM-793.795 419.035H-929.34L-782.519 363.076H-657.461L-793.795 419.035ZM-787.086 419.035L-650.752 363.076H-525.256L-651.103 419.035H-787.086ZM-807.804 491.502L-650.564 421.585H-513.664L-657.804 491.502H-807.811H-807.804ZM-653.541 572.618H-819.174L-657.212 494.059H-506.302L-653.541 572.618ZM-482.068 572.618H-648.125L-500.887 494.059H-349.553L-482.068 572.618ZM-310.609 572.618H-477.077L-344.562 494.059H-192.818L-310.609 572.618ZM-139.156 572.618H-306.022L-188.231 494.059H-36.089L-139.156 572.618ZM32.29 572.618H-134.953L-31.8859 494.059H120.633L32.29 572.618ZM203.723 572.618H36.1226L124.466 494.059H277.342L203.723 572.618ZM375.135 572.618H207.212L280.831 494.059H434.03L375.135 572.618ZM546.527 572.618H378.321L437.216 494.059H590.698L546.527 572.618ZM717.885 572.618H549.443L593.615 494.059H747.333L717.885 572.618ZM889.21 572.618H720.606L750.054 494.059H903.94L889.217 572.618H889.21ZM891.796 572.618L906.52 494.059H1060.49V572.618H891.796ZM1127.8 18.0318L1129.94 29.4463H1063.04V18.0318H1127.8ZM1137.27 68.5604L1140.77 87.2876H1063.04V68.5604H1137.27ZM1145.24 111.108L1149.75 135.151H1063.04V111.108H1145.24ZM1155.33 164.963L1160.46 192.332H1063.04V164.963H1155.33ZM1167.16 228.12L1174.16 265.46H1063.03V228.12H1167.16ZM1174.64 268.01L1182.27 308.675H1063.04V268.01H1174.65H1174.64ZM1182.74 311.225L1191.98 360.533H1063.04V311.225H1182.74ZM1192.46 363.083L1202.95 419.042H1063.04V363.083H1192.46ZM1203.43 421.585L1216.53 491.502H1063.04V421.585H1203.43ZM1063.04 572.618V494.059H1217.01L1231.73 572.618H1063.04ZM1234.32 572.618L1219.59 494.059H1373.47L1402.92 572.618H1234.32ZM1405.64 572.618L1376.19 494.059H1529.91L1574.08 572.618H1405.64ZM1577 572.618L1532.83 494.059H1686.31L1745.21 572.618H1577ZM1748.39 572.618L1689.5 494.059H1842.7L1916.32 572.618H1748.39ZM1919.81 572.618L1846.19 494.059H1999.07L2087.41 572.618H1919.81ZM2091.24 572.618L2002.89 494.059H2155.41L2258.48 572.618H2091.24ZM2262.68 572.618L2159.62 494.059H2311.76L2429.55 572.618H2262.68ZM2434.14 572.618L2316.35 494.059H2468.09L2600.6 572.618H2434.14Z" fill="url(#paint0_radial_455_831)" fill-opacity="0.75"/>
  <defs>
    <radialGradient id="paint0_radial_455_831" cx="0" cy="0" r="1" gradientUnits="userSpaceOnUse" gradientTransform="translate(1069.42 0.984375) rotate(90) scale(108.947 519.412)">
      <stop stop-color="#E5C2FF" stop-opacity="0.76"/>
      <stop offset="1" stop-color="#EABBF7" stop-opacity="0"/>
    </radialGradient>
  </defs>
</svg>