<svg xmlns="http://www.w3.org/2000/svg" width="25" height="24" viewBox="0 0 25 24" fill="none">
  <g clip-path="url(#clip0_365_10713)">
    <path fill-rule="evenodd" clip-rule="evenodd" d="M12.8207 0.000488281C6.20477 0.000488281 0.856445 5.50049 0.856445 12.3047C0.856445 17.7437 4.2833 22.3477 9.03726 23.9772C9.63163 24.0997 9.84934 23.7125 9.84934 23.3867C9.84934 23.1015 9.82975 22.1237 9.82975 21.105C6.50159 21.8385 5.80853 19.6382 5.80853 19.6382C5.27367 18.2122 4.48118 17.8457 4.48118 17.8457C3.39187 17.092 4.56053 17.092 4.56053 17.092C5.76885 17.1735 6.40289 18.355 6.40289 18.355C7.47236 20.229 9.19571 19.6995 9.88902 19.3735C9.98796 18.579 10.3051 18.029 10.6418 17.7235C7.98738 17.4382 5.19457 16.379 5.19457 11.6527C5.19457 10.3082 5.66967 9.20824 6.42249 8.35274C6.30371 8.04724 5.88763 6.78399 6.54151 5.09324C6.54151 5.09324 7.55171 4.76724 9.82951 6.35624C10.8047 6.0869 11.8104 5.94989 12.8207 5.94874C13.8309 5.94874 14.8607 6.09149 15.8116 6.35624C18.0897 4.76724 19.0999 5.09324 19.0999 5.09324C19.7538 6.78399 19.3374 8.04724 19.2186 8.35274C19.9913 9.20824 20.4468 10.3082 20.4468 11.6527C20.4468 16.379 17.654 17.4177 14.9797 17.7235C15.4156 18.1105 15.7918 18.8437 15.7918 20.005C15.7918 21.655 15.7722 22.9792 15.7722 23.3865C15.7722 23.7125 15.9902 24.0997 16.5843 23.9775C21.3382 22.3475 24.7651 17.7437 24.7651 12.3047C24.7847 5.50049 19.4168 0.000488281 12.8207 0.000488281Z" fill="white"/>
  </g>
  <defs>
    <clipPath id="clip0_365_10713">
      <rect width="24" height="24" fill="white" transform="translate(0.856445 0.000488281)"/>
    </clipPath>
  </defs>
</svg>