<svg width="244" height="45" viewBox="0 0 244 45" fill="none" xmlns="http://www.w3.org/2000/svg">
<rect x="0.97052" y="0.948364" width="44" height="44.001" rx="8.11668" fill="#7446FF"/>
<g clip-path="url(#clip0_455_598)">
<path d="M9.6965 37.9377H28.9173L26.6465 34.6478H23.768C23.768 34.6478 20.9206 34.3953 20.7776 31.1234V19.43C20.7776 19.43 21.0789 16.2831 24.0016 16.2831H36.6728L34.4557 12.2601H20.8224V7.95993L16.2631 9.55127V12.269H12.2938L11.4265 14.1374H16.2987V31.3198C16.2987 31.3198 16.2764 35.0343 11.9315 34.6455C11.5291 35.2222 9.6965 37.9377 9.6965 37.9377Z" fill="white"/>
<path d="M18.7452 34.5471C18.7452 34.5471 18.936 32.2228 20.7865 31.1499V19.7606C20.7865 19.7606 20.818 16.578 23.9893 16.2918H36.6727L35.4569 14.182H23.1556C23.1556 14.182 21.4392 14.3607 20.7597 15.4694V7.95992L18.7452 8.71094V34.5473V34.5471Z" fill="#E8E8E8"/>
</g>
<path d="M26.7613 26.8241C26.7613 30.7571 29.8687 33.9454 33.702 33.9454C37.5353 33.9454 40.6429 30.757 40.6429 26.8241C40.6429 22.891 37.5353 19.7028 33.702 19.7028C29.8687 19.7028 26.7613 22.891 26.7613 26.8241Z" fill="#0C0C4F" stroke="white" stroke-width="0.619097"/>
<path fill-rule="evenodd" clip-rule="evenodd" d="M30.561 25.1027L30.7367 24.5455C30.7725 24.4322 30.8597 24.344 30.9706 24.3092L31.5163 24.137C31.5918 24.1133 31.5924 24.004 31.5175 23.9791L30.9742 23.7987C30.8639 23.7621 30.778 23.6726 30.7439 23.5588L30.5763 22.9989C30.5532 22.9216 30.4467 22.9208 30.4223 22.9979L30.2465 23.5551C30.2108 23.6682 30.1237 23.7564 30.0128 23.7914L29.467 23.9634C29.3915 23.9872 29.3907 24.0964 29.4658 24.1213L30.0091 24.3017C30.1194 24.3383 30.2053 24.428 30.2394 24.5417L30.407 25.1015C30.4301 25.179 30.5367 25.1798 30.561 25.1027Z" fill="#FAFAFA"/>
<path fill-rule="evenodd" clip-rule="evenodd" d="M39.187 24.7785C38.962 24.5203 38.6109 24.375 38.2696 24.3154C37.9255 24.2582 37.5647 24.2635 37.225 24.3254C36.5377 24.4447 35.9133 24.7367 35.3687 25.0969C35.0859 25.2737 34.8447 25.4782 34.5948 25.6866C34.4744 25.7919 34.3647 25.9041 34.2503 26.0147L33.9379 26.3336C33.5986 26.6976 33.264 27.0292 32.9403 27.304C32.6154 27.5775 32.3115 27.7852 32.0121 27.9303C31.7128 28.0762 31.3926 28.1619 30.9754 28.1757C30.5616 28.1906 30.0722 28.114 29.5487 27.9876C29.0224 27.8617 28.4696 27.6823 27.852 27.5279C28.0675 28.1413 28.392 28.6834 28.8087 29.1789C29.2302 29.6659 29.7567 30.1096 30.4328 30.4015C31.0993 30.6999 31.9368 30.807 32.7199 30.6454C33.505 30.4903 34.194 30.1176 34.751 29.6864C35.3093 29.2509 35.7611 28.7548 36.142 28.239C36.2471 28.0965 36.3027 28.0167 36.3788 27.9054L36.5891 27.5858C36.7352 27.3881 36.8682 27.163 37.0128 26.9672C37.2964 26.557 37.576 26.1473 37.9009 25.7698C38.0644 25.5783 38.2368 25.3952 38.4404 25.2192C38.5419 25.1333 38.6516 25.0492 38.7731 24.9735C38.8964 24.8918 39.0266 24.8279 39.187 24.7785Z" fill="url(#paint0_linear_455_598)"/>
<path fill-rule="evenodd" clip-rule="evenodd" d="M39.187 24.7784C38.9453 24.1526 38.496 23.6259 37.8929 23.2372C37.2934 22.8528 36.4609 22.6566 35.6358 22.8238C35.2283 22.9047 34.8334 23.0604 34.4869 23.2678C34.1419 23.4743 33.8328 23.7229 33.5652 23.9897C33.4316 24.1234 33.3104 24.263 33.19 24.4034L32.8777 24.8118L32.3954 25.4693C31.7807 26.3152 31.1186 27.3066 30.0321 27.6003C28.9656 27.8887 28.503 27.6333 27.852 27.5278C27.9711 27.8431 28.1185 28.1493 28.3184 28.4187C28.5145 28.6935 28.7462 28.9516 29.0343 29.1729C29.1798 29.2792 29.3335 29.384 29.5043 29.473C29.6742 29.5589 29.8574 29.6346 30.053 29.6915C30.442 29.8009 30.88 29.8392 31.3041 29.7803C31.7284 29.7223 32.1339 29.5844 32.4885 29.4012C32.8455 29.2196 33.1566 28.9986 33.4344 28.7653C33.9865 28.2948 34.416 27.775 34.7788 27.2496C34.9613 26.9868 35.1269 26.7192 35.2801 26.4514L35.4604 26.1327C35.5156 26.0395 35.5713 25.9457 35.6279 25.8584C35.8564 25.5076 36.0798 25.2263 36.3513 25.0152C36.6189 24.7986 36.9916 24.6386 37.4897 24.6014C37.9856 24.5638 38.5582 24.6333 39.187 24.7784Z" fill="#FAFAFA"/>
<path fill-rule="evenodd" clip-rule="evenodd" d="M36.5038 29.9777C36.5038 30.4373 36.8671 30.8101 37.3151 30.8101C37.7631 30.8101 38.1259 30.4373 38.1259 29.9777C38.1259 29.5181 37.7631 29.1453 37.3151 29.1453C36.8671 29.1453 36.5038 29.5181 36.5038 29.9777Z" fill="url(#paint1_linear_455_598)"/>
<path d="M76.2773 18.6139C76.1796 17.7466 75.7764 17.0747 75.0679 16.5982C74.3594 16.1157 73.4676 15.8744 72.3925 15.8744C71.6229 15.8744 70.9571 15.9966 70.3952 16.2409C69.8332 16.4791 69.3965 16.809 69.085 17.2304C68.7796 17.6458 68.6269 18.1192 68.6269 18.6506C68.6269 19.0965 68.7307 19.4813 68.9384 19.805C69.1522 20.1287 69.4301 20.4006 69.7721 20.6204C70.1203 20.8342 70.4929 21.0144 70.8899 21.161C71.287 21.3015 71.6687 21.4176 72.0352 21.5092L73.8676 21.9856C74.4662 22.1322 75.0801 22.3307 75.7093 22.5812C76.3384 22.8316 76.9217 23.1614 77.4592 23.5707C77.9967 23.9799 78.4304 24.4869 78.7603 25.0916C79.0962 25.6963 79.2642 26.4201 79.2642 27.263C79.2642 28.3259 78.9893 29.2696 78.4396 30.0942C77.896 30.9188 77.105 31.5693 76.0666 32.0457C75.0343 32.5222 73.7852 32.7604 72.3192 32.7604C70.9144 32.7604 69.6988 32.5374 68.6727 32.0915C67.6465 31.6456 66.8433 31.0134 66.263 30.1949C65.6827 29.3704 65.3621 28.393 65.301 27.263H68.1413C68.1962 27.941 68.4161 28.5061 68.8009 28.9581C69.1919 29.4039 69.6897 29.7368 70.2944 29.9567C70.9052 30.1705 71.574 30.2774 72.3009 30.2774C73.1011 30.2774 73.8127 30.1522 74.4357 29.9018C75.0648 29.6452 75.5596 29.2909 75.92 28.8389C76.2804 28.3808 76.4606 27.8464 76.4606 27.2356C76.4606 26.6797 76.3017 26.2247 75.9841 25.8704C75.6726 25.5161 75.2481 25.2229 74.7106 24.9908C74.1792 24.7587 73.5775 24.5541 72.9056 24.3769L70.6884 23.7722C69.1858 23.363 67.9947 22.7613 67.1151 21.9673C66.2416 21.1732 65.8049 20.1226 65.8049 18.8155C65.8049 17.7343 66.0981 16.7906 66.6845 15.9844C67.2709 15.1781 68.0649 14.552 69.0667 14.1061C70.0684 13.6541 71.1984 13.4281 72.4567 13.4281C73.7272 13.4281 74.848 13.6511 75.8192 14.097C76.7965 14.5428 77.5661 15.1567 78.1281 15.9386C78.69 16.7143 78.9832 17.6061 79.0076 18.6139H76.2773ZM88.3554 32.7329C86.9933 32.7329 85.8205 32.4244 84.8371 31.8075C83.8598 31.1845 83.1085 30.3263 82.5832 29.2329C82.0579 28.1396 81.7952 26.8874 81.7952 25.4764C81.7952 24.0471 82.064 22.7858 82.6015 21.6924C83.139 20.593 83.8964 19.7348 84.8737 19.1178C85.851 18.5009 87.0024 18.1925 88.3279 18.1925C89.3968 18.1925 90.3497 18.391 91.1865 18.788C92.0233 19.1789 92.6983 19.7287 93.2114 20.4372C93.7305 21.1457 94.039 21.9734 94.1367 22.9202H91.4705C91.3239 22.2605 90.988 21.6924 90.4627 21.216C89.9435 20.7396 89.2472 20.5013 88.3737 20.5013C87.6102 20.5013 86.9414 20.7029 86.3672 21.106C85.7991 21.5031 85.3563 22.0711 85.0387 22.8102C84.721 23.5432 84.5622 24.4105 84.5622 25.4123C84.5622 26.4384 84.718 27.3241 85.0295 28.0693C85.341 28.8145 85.7808 29.3917 86.3489 29.801C86.923 30.2102 87.598 30.4148 88.3737 30.4148C88.8929 30.4148 89.3632 30.3202 89.7847 30.1308C90.2123 29.9354 90.5696 29.6574 90.8567 29.2971C91.1499 28.9367 91.3545 28.503 91.4705 27.996H94.1367C94.039 28.9061 93.7428 29.7185 93.248 30.4332C92.7532 31.1478 92.0905 31.7098 91.2598 32.119C90.4352 32.5283 89.4671 32.7329 88.3554 32.7329ZM101.162 32.7604C100.27 32.7604 99.4638 32.5954 98.743 32.2656C98.0223 31.9297 97.4512 31.4441 97.0297 30.8088C96.6143 30.1736 96.4067 29.3948 96.4067 28.4725C96.4067 27.6784 96.5594 27.0248 96.8648 26.5117C97.1702 25.9987 97.5825 25.5925 98.1017 25.2932C98.6209 24.9939 99.2011 24.7679 99.8425 24.6152C100.484 24.4625 101.137 24.3464 101.803 24.267C102.646 24.1693 103.33 24.0899 103.856 24.0288C104.381 23.9616 104.763 23.8547 105.001 23.7081C105.239 23.5615 105.358 23.3233 105.358 22.9935V22.9293C105.358 22.1292 105.132 21.5092 104.68 21.0694C104.234 20.6296 103.568 20.4097 102.683 20.4097C101.76 20.4097 101.034 20.6143 100.502 21.0236C99.9769 21.4267 99.6134 21.8757 99.4119 22.3704L96.8373 21.784C97.1427 20.9289 97.5886 20.2387 98.175 19.7134C98.7675 19.182 99.4485 18.7972 100.218 18.5589C100.988 18.3146 101.797 18.1925 102.646 18.1925C103.208 18.1925 103.804 18.2597 104.433 18.394C105.068 18.5223 105.66 18.7605 106.21 19.1087C106.766 19.4568 107.221 19.9547 107.575 20.6021C107.93 21.2435 108.107 22.0772 108.107 23.1034V32.4489H105.431V30.5248H105.321C105.144 30.8791 104.879 31.2272 104.524 31.5693C104.17 31.9113 103.715 32.1954 103.159 32.4214C102.603 32.6474 101.938 32.7604 101.162 32.7604ZM101.757 30.5614C102.515 30.5614 103.162 30.4118 103.7 30.1125C104.243 29.8132 104.656 29.4223 104.937 28.9397C105.224 28.4511 105.367 27.9288 105.367 27.373V25.5589C105.27 25.6566 105.08 25.7482 104.799 25.8337C104.524 25.9131 104.21 25.9834 103.856 26.0445C103.501 26.0994 103.156 26.1514 102.82 26.2002C102.484 26.243 102.203 26.2796 101.977 26.3102C101.446 26.3774 100.96 26.4904 100.521 26.6492C100.087 26.808 99.7387 27.037 99.476 27.3363C99.2195 27.6295 99.0912 28.0205 99.0912 28.5091C99.0912 29.1871 99.3416 29.7002 99.8425 30.0484C100.343 30.3904 100.982 30.5614 101.757 30.5614ZM118.453 18.3757V20.5746H110.5V18.3757H118.453ZM112.681 32.4489V16.7448C112.681 15.8653 112.873 15.1353 113.258 14.5551C113.643 13.9687 114.153 13.532 114.788 13.2449C115.424 12.9517 116.114 12.8051 116.859 12.8051C117.409 12.8051 117.879 12.8509 118.27 12.9425C118.661 13.028 118.951 13.1074 119.14 13.1807L118.499 15.398C118.371 15.3613 118.206 15.3186 118.004 15.2697C117.803 15.2147 117.558 15.1873 117.271 15.1873C116.606 15.1873 116.129 15.3522 115.842 15.682C115.561 16.0119 115.421 16.4883 115.421 17.1113V32.4489H112.681ZM127.977 18.3757V20.5746H120.025V18.3757H127.977ZM122.205 32.4489V16.7448C122.205 15.8653 122.398 15.1353 122.782 14.5551C123.167 13.9687 123.677 13.532 124.312 13.2449C124.948 12.9517 125.638 12.8051 126.383 12.8051C126.933 12.8051 127.403 12.8509 127.794 12.9425C128.185 13.028 128.475 13.1074 128.665 13.1807L128.023 15.398C127.895 15.3613 127.73 15.3186 127.528 15.2697C127.327 15.2147 127.082 15.1873 126.795 15.1873C126.13 15.1873 125.653 15.3522 125.366 15.682C125.085 16.0119 124.945 16.4883 124.945 17.1113V32.4489H122.205ZM136.178 32.7329C134.858 32.7329 133.707 32.4305 132.723 31.8258C131.74 31.2211 130.976 30.3751 130.433 29.2879C129.889 28.2006 129.617 26.9302 129.617 25.4764C129.617 24.0166 129.889 22.74 130.433 21.6466C130.976 20.5533 131.74 19.7042 132.723 19.0995C133.707 18.4948 134.858 18.1925 136.178 18.1925C137.497 18.1925 138.648 18.4948 139.632 19.0995C140.615 19.7042 141.379 20.5533 141.922 21.6466C142.466 22.74 142.738 24.0166 142.738 25.4764C142.738 26.9302 142.466 28.2006 141.922 29.2879C141.379 30.3751 140.615 31.2211 139.632 31.8258C138.648 32.4305 137.497 32.7329 136.178 32.7329ZM136.187 30.4332C137.042 30.4332 137.75 30.2072 138.312 29.7552C138.874 29.3032 139.29 28.7015 139.558 27.9502C139.833 27.1989 139.971 26.3713 139.971 25.4673C139.971 24.5694 139.833 23.7448 139.558 22.9935C139.29 22.236 138.874 21.6283 138.312 21.1702C137.75 20.7121 137.042 20.483 136.187 20.483C135.325 20.483 134.611 20.7121 134.043 21.1702C133.481 21.6283 133.062 22.236 132.788 22.9935C132.519 23.7448 132.384 24.5694 132.384 25.4673C132.384 26.3713 132.519 27.1989 132.788 27.9502C133.062 28.7015 133.481 29.3032 134.043 29.7552C134.611 30.2072 135.325 30.4332 136.187 30.4332ZM148.535 13.6847V32.4489H145.796V13.6847H148.535ZM157.489 32.7237C156.353 32.7237 155.339 32.4336 154.447 31.8533C153.561 31.2669 152.865 30.4332 152.358 29.352C151.857 28.2648 151.607 26.9607 151.607 25.4398C151.607 23.9188 151.86 22.6178 152.367 21.5367C152.88 20.4555 153.583 19.6279 154.474 19.0537C155.366 18.4795 156.377 18.1925 157.507 18.1925C158.381 18.1925 159.083 18.3391 159.614 18.6322C160.152 18.9193 160.567 19.2553 160.86 19.6401C161.16 20.0249 161.392 20.3639 161.557 20.6571H161.722V13.6847H164.461V32.4489H161.786V30.2591H161.557C161.392 30.5584 161.154 30.9004 160.842 31.2853C160.537 31.6701 160.115 32.006 159.578 32.2931C159.04 32.5802 158.344 32.7237 157.489 32.7237ZM158.094 30.3874C158.881 30.3874 159.547 30.1797 160.091 29.7643C160.641 29.3429 161.056 28.7595 161.337 28.0143C161.624 27.2692 161.768 26.4018 161.768 25.4123C161.768 24.435 161.627 23.5798 161.346 22.8469C161.065 22.1139 160.653 21.5428 160.109 21.1335C159.566 20.7243 158.894 20.5197 158.094 20.5197C157.269 20.5197 156.582 20.7334 156.032 21.161C155.482 21.5886 155.067 22.1719 154.786 22.911C154.511 23.6501 154.374 24.4838 154.374 25.4123C154.374 26.3529 154.514 27.1989 154.795 27.9502C155.076 28.7015 155.491 29.2971 156.041 29.7368C156.597 30.1705 157.281 30.3874 158.094 30.3874ZM176.663 23.3325V25.7055H168.344V23.3325H176.663ZM190.768 18.6139C190.67 17.7466 190.267 17.0747 189.559 16.5982C188.85 16.1157 187.958 15.8744 186.883 15.8744C186.114 15.8744 185.448 15.9966 184.886 16.2409C184.324 16.4791 183.887 16.809 183.576 17.2304C183.27 17.6458 183.118 18.1192 183.118 18.6506C183.118 19.0965 183.222 19.4813 183.429 19.805C183.643 20.1287 183.921 20.4006 184.263 20.6204C184.611 20.8342 184.984 21.0144 185.381 21.161C185.778 21.3015 186.16 21.4176 186.526 21.5092L188.359 21.9856C188.957 22.1322 189.571 22.3307 190.2 22.5812C190.829 22.8316 191.413 23.1614 191.95 23.5707C192.488 23.9799 192.921 24.4869 193.251 25.0916C193.587 25.6963 193.755 26.4201 193.755 27.263C193.755 28.3259 193.48 29.2696 192.931 30.0942C192.387 30.9188 191.596 31.5693 190.557 32.0457C189.525 32.5222 188.276 32.7604 186.81 32.7604C185.405 32.7604 184.19 32.5374 183.164 32.0915C182.137 31.6456 181.334 31.0134 180.754 30.1949C180.174 29.3704 179.853 28.393 179.792 27.263H182.632C182.687 27.941 182.907 28.5061 183.292 28.9581C183.683 29.4039 184.181 29.7368 184.785 29.9567C185.396 30.1705 186.065 30.2774 186.792 30.2774C187.592 30.2774 188.304 30.1522 188.927 29.9018C189.556 29.6452 190.051 29.2909 190.411 28.8389C190.771 28.3808 190.951 27.8464 190.951 27.2356C190.951 26.6797 190.793 26.2247 190.475 25.8704C190.164 25.5161 189.739 25.2229 189.201 24.9908C188.67 24.7587 188.068 24.5541 187.397 24.3769L185.179 23.7722C183.677 23.363 182.486 22.7613 181.606 21.9673C180.733 21.1732 180.296 20.1226 180.296 18.8155C180.296 17.7343 180.589 16.7906 181.175 15.9844C181.762 15.1781 182.556 14.552 183.558 14.1061C184.559 13.6541 185.689 13.4281 186.948 13.4281C188.218 13.4281 189.339 13.6511 190.31 14.097C191.287 14.5428 192.057 15.1567 192.619 15.9386C193.181 16.7143 193.474 17.6061 193.499 18.6139H190.768ZM203.488 18.3757V20.5746H195.801V18.3757H203.488ZM197.862 15.004H200.602V28.3167C200.602 28.8481 200.681 29.2482 200.84 29.5169C200.999 29.7796 201.203 29.9598 201.454 30.0575C201.71 30.1491 201.988 30.1949 202.287 30.1949C202.507 30.1949 202.7 30.1797 202.865 30.1491C203.03 30.1186 203.158 30.0942 203.249 30.0758L203.744 32.3389C203.585 32.4 203.359 32.4611 203.066 32.5222C202.773 32.5893 202.407 32.626 201.967 32.6321C201.246 32.6443 200.574 32.516 199.951 32.2473C199.328 31.9785 198.824 31.5632 198.439 31.0012C198.054 30.4393 197.862 29.7338 197.862 28.8848V15.004ZM210.614 32.7604C209.722 32.7604 208.915 32.5954 208.195 32.2656C207.474 31.9297 206.903 31.4441 206.481 30.8088C206.066 30.1736 205.858 29.3948 205.858 28.4725C205.858 27.6784 206.011 27.0248 206.316 26.5117C206.622 25.9987 207.034 25.5925 207.553 25.2932C208.073 24.9939 208.653 24.7679 209.294 24.6152C209.936 24.4625 210.589 24.3464 211.255 24.267C212.098 24.1693 212.782 24.0899 213.307 24.0288C213.833 23.9616 214.214 23.8547 214.453 23.7081C214.691 23.5615 214.81 23.3233 214.81 22.9935V22.9293C214.81 22.1292 214.584 21.5092 214.132 21.0694C213.686 20.6296 213.02 20.4097 212.134 20.4097C211.212 20.4097 210.485 20.6143 209.954 21.0236C209.429 21.4267 209.065 21.8757 208.864 22.3704L206.289 21.784C206.594 20.9289 207.04 20.2387 207.627 19.7134C208.219 19.182 208.9 18.7972 209.67 18.5589C210.439 18.3146 211.249 18.1925 212.098 18.1925C212.66 18.1925 213.255 18.2597 213.884 18.394C214.52 18.5223 215.112 18.7605 215.662 19.1087C216.218 19.4568 216.673 19.9547 217.027 20.6021C217.381 21.2435 217.559 22.0772 217.559 23.1034V32.4489H214.883V30.5248H214.773C214.596 30.8791 214.33 31.2272 213.976 31.5693C213.622 31.9113 213.167 32.1954 212.611 32.4214C212.055 32.6474 211.389 32.7604 210.614 32.7604ZM211.209 30.5614C211.967 30.5614 212.614 30.4118 213.151 30.1125C213.695 29.8132 214.107 29.4223 214.388 28.9397C214.675 28.4511 214.819 27.9288 214.819 27.373V25.5589C214.721 25.6566 214.532 25.7482 214.251 25.8337C213.976 25.9131 213.662 25.9834 213.307 26.0445C212.953 26.0994 212.608 26.1514 212.272 26.2002C211.936 26.243 211.655 26.2796 211.429 26.3102C210.898 26.3774 210.412 26.4904 209.972 26.6492C209.539 26.808 209.19 27.037 208.928 27.3363C208.671 27.6295 208.543 28.0205 208.543 28.5091C208.543 29.1871 208.793 29.7002 209.294 30.0484C209.795 30.3904 210.433 30.5614 211.209 30.5614ZM221.207 32.4489V18.3757H223.855V20.6113H224.002C224.258 19.8539 224.71 19.2583 225.358 18.8247C226.011 18.3849 226.75 18.165 227.575 18.165C227.746 18.165 227.948 18.1711 228.18 18.1833C228.418 18.1955 228.604 18.2108 228.739 18.2291V20.8495C228.629 20.819 228.433 20.7854 228.152 20.7487C227.871 20.706 227.59 20.6846 227.309 20.6846C226.662 20.6846 226.085 20.822 225.578 21.0969C225.077 21.3656 224.68 21.7413 224.387 22.2238C224.093 22.7003 223.947 23.2439 223.947 23.8547V32.4489H221.207ZM233.629 27.6753L233.611 24.3311H234.087L239.694 18.3757H242.974L236.579 25.1557H236.149L233.629 27.6753ZM231.109 32.4489V13.6847H233.849V32.4489H231.109ZM239.997 32.4489L234.958 25.7604L236.845 23.8455L243.359 32.4489H239.997Z" fill="#A38CFF"/>
<defs>
<linearGradient id="paint0_linear_455_598" x1="39.1264" y1="24.5589" x2="29.0308" y2="30.0261" gradientUnits="userSpaceOnUse">
<stop stop-color="#EC796B"/>
<stop offset="1" stop-color="#E175B1"/>
</linearGradient>
<linearGradient id="paint1_linear_455_598" x1="38.1253" y1="29.3938" x2="36.5018" y2="29.5612" gradientUnits="userSpaceOnUse">
<stop stop-color="#EC796B"/>
<stop offset="1" stop-color="#E175B1"/>
</linearGradient>
<clipPath id="clip0_455_598">
<rect width="26.9762" height="29.9778" fill="white" transform="translate(9.6965 7.95993)"/>
</clipPath>
</defs>
</svg>
