<svg width="45" height="45" viewBox="0 0 45 45" fill="none" xmlns="http://www.w3.org/2000/svg">
<rect x="0.319092" y="0.948364" width="44" height="44.001" rx="8.11668" fill="#0C0C4F"/>
<g clip-path="url(#clip0_455_586)">
<path d="M9.04507 37.9377H28.2659L25.9951 34.6478H23.1165C23.1165 34.6478 20.2692 34.3953 20.1262 31.1234V19.43C20.1262 19.43 20.4275 16.2831 23.3502 16.2831H36.0214L33.8043 12.2601H20.171V7.95993L15.6117 9.55127V12.269H11.6423L10.7751 14.1374H15.6473V31.3198C15.6473 31.3198 15.625 35.0343 11.2801 34.6455C10.8777 35.2222 9.04507 37.9377 9.04507 37.9377Z" fill="white"/>
<path d="M18.0938 34.5471C18.0938 34.5471 18.2846 32.2228 20.1351 31.1499V19.7606C20.1351 19.7606 20.1666 16.578 23.3379 16.2918H36.0213L34.8055 14.182H22.5042C22.5042 14.182 20.7878 14.3607 20.1083 15.4694V7.95992L18.0938 8.71094V34.5473V34.5471Z" fill="#E8E8E8"/>
</g>
<path d="M26.1099 26.8241C26.1099 30.7571 29.2173 33.9454 33.0506 33.9454C36.8839 33.9454 39.9915 30.757 39.9915 26.8241C39.9915 22.891 36.8839 19.7028 33.0506 19.7028C29.2173 19.7028 26.1099 22.891 26.1099 26.8241Z" fill="#0C0C4F" stroke="white" stroke-width="0.619097"/>
<path fill-rule="evenodd" clip-rule="evenodd" d="M29.9096 25.1027L30.0854 24.5455C30.1211 24.4322 30.2083 24.344 30.3192 24.3092L30.8649 24.137C30.9405 24.1133 30.9411 24.004 30.8662 23.9791L30.3228 23.7987C30.2125 23.7621 30.1266 23.6726 30.0926 23.5588L29.9249 22.9989C29.9019 22.9216 29.7953 22.9208 29.771 22.9979L29.5952 23.5551C29.5595 23.6682 29.4723 23.7564 29.3614 23.7914L28.8157 23.9634C28.7401 23.9872 28.7393 24.0964 28.8145 24.1213L29.3578 24.3017C29.468 24.3383 29.554 24.428 29.5881 24.5417L29.7556 25.1015C29.7787 25.179 29.8853 25.1798 29.9096 25.1027Z" fill="#FAFAFA"/>
<path fill-rule="evenodd" clip-rule="evenodd" d="M38.5356 24.7785C38.3107 24.5203 37.9596 24.375 37.6182 24.3154C37.2741 24.2582 36.9133 24.2635 36.5737 24.3254C35.8863 24.4447 35.2619 24.7367 34.7173 25.0969C34.4345 25.2737 34.1933 25.4782 33.9434 25.6866C33.823 25.7919 33.7133 25.9041 33.599 26.0147L33.2866 26.3336C32.9472 26.6976 32.6127 27.0292 32.289 27.304C31.964 27.5775 31.6602 27.7852 31.3607 27.9303C31.0615 28.0762 30.7413 28.1619 30.324 28.1757C29.9103 28.1906 29.4209 28.114 28.8973 27.9876C28.371 27.8617 27.8183 27.6823 27.2006 27.5279C27.4162 28.1413 27.7407 28.6834 28.1574 29.1789C28.5789 29.6659 29.1053 30.1096 29.7815 30.4015C30.448 30.6999 31.2855 30.807 32.0685 30.6454C32.8536 30.4903 33.5427 30.1176 34.0997 29.6864C34.658 29.2509 35.1098 28.7548 35.4906 28.239C35.5957 28.0965 35.6513 28.0167 35.7274 27.9054L35.9377 27.5858C36.0838 27.3881 36.2169 27.163 36.3615 26.9672C36.6451 26.557 36.9247 26.1473 37.2495 25.7698C37.413 25.5783 37.5855 25.3952 37.789 25.2192C37.8905 25.1333 38.0002 25.0492 38.1217 24.9735C38.2451 24.8918 38.3753 24.8279 38.5356 24.7785Z" fill="url(#paint0_linear_455_586)"/>
<path fill-rule="evenodd" clip-rule="evenodd" d="M38.5356 24.7784C38.294 24.1526 37.8446 23.6259 37.2415 23.2372C36.6421 22.8528 35.8095 22.6566 34.9845 22.8238C34.5769 22.9047 34.182 23.0604 33.8355 23.2678C33.4906 23.4743 33.1815 23.7229 32.9138 23.9897C32.7803 24.1234 32.659 24.263 32.5386 24.4034L32.2264 24.8118L31.7441 25.4693C31.1293 26.3152 30.4672 27.3066 29.3808 27.6003C28.3142 27.8887 27.8516 27.6333 27.2006 27.5278C27.3197 27.8431 27.4672 28.1493 27.667 28.4187C27.8632 28.6935 28.0948 28.9516 28.3829 29.1729C28.5285 29.2792 28.6822 29.384 28.8529 29.473C29.0228 29.5589 29.206 29.6346 29.4016 29.6915C29.7906 29.8009 30.2286 29.8392 30.6527 29.7803C31.0771 29.7223 31.4826 29.5844 31.8371 29.4012C32.1942 29.2196 32.5052 28.9986 32.7831 28.7653C33.3352 28.2948 33.7647 27.775 34.1274 27.2496C34.3099 26.9868 34.4755 26.7192 34.6288 26.4514L34.8091 26.1327C34.8642 26.0395 34.9199 25.9457 34.9765 25.8584C35.205 25.5076 35.4285 25.2263 35.6999 25.0152C35.9676 24.7986 36.3403 24.6386 36.8383 24.6014C37.3343 24.5638 37.9068 24.6333 38.5356 24.7784Z" fill="#FAFAFA"/>
<path fill-rule="evenodd" clip-rule="evenodd" d="M35.8524 29.9777C35.8524 30.4373 36.2158 30.8101 36.6637 30.8101C37.1117 30.8101 37.4745 30.4373 37.4745 29.9777C37.4745 29.5181 37.1117 29.1453 36.6637 29.1453C36.2158 29.1453 35.8524 29.5181 35.8524 29.9777Z" fill="url(#paint1_linear_455_586)"/>
<defs>
<linearGradient id="paint0_linear_455_586" x1="38.4751" y1="24.5589" x2="28.3794" y2="30.0261" gradientUnits="userSpaceOnUse">
<stop stop-color="#EC796B"/>
<stop offset="1" stop-color="#E175B1"/>
</linearGradient>
<linearGradient id="paint1_linear_455_586" x1="37.474" y1="29.3938" x2="35.8504" y2="29.5612" gradientUnits="userSpaceOnUse">
<stop stop-color="#EC796B"/>
<stop offset="1" stop-color="#E175B1"/>
</linearGradient>
<clipPath id="clip0_455_586">
<rect width="26.9762" height="29.9778" fill="white" transform="translate(9.04507 7.95993)"/>
</clipPath>
</defs>
</svg>
