<svg width="244" height="45" viewBox="0 0 244 45" fill="none" xmlns="http://www.w3.org/2000/svg">
<rect x="0.934158" y="0.948364" width="44" height="44.001" rx="8.11668" fill="#0C0C4F"/>
<g clip-path="url(#clip0_455_573)">
<path d="M9.66014 37.9377H28.881L26.6102 34.6478H23.7316C23.7316 34.6478 20.8842 34.3953 20.7413 31.1234V19.43C20.7413 19.43 21.0425 16.2831 23.9653 16.2831H36.6365L34.4193 12.2601H20.7861V7.95993L16.2267 9.55127V12.269H12.2574L11.3902 14.1374H16.2623V31.3198C16.2623 31.3198 16.24 35.0343 11.8952 34.6455C11.4927 35.2222 9.66014 37.9377 9.66014 37.9377Z" fill="white"/>
<path d="M18.7089 34.5471C18.7089 34.5471 18.8997 32.2228 20.7502 31.1499V19.7606C20.7502 19.7606 20.7817 16.578 23.9529 16.2918H36.6363L35.4205 14.182H23.1193C23.1193 14.182 21.4029 14.3607 20.7234 15.4694V7.95992L18.7089 8.71094V34.5473V34.5471Z" fill="#E8E8E8"/>
</g>
<path d="M26.7249 26.8241C26.7249 30.7571 29.8324 33.9454 33.6657 33.9454C37.499 33.9454 40.6066 30.757 40.6066 26.8241C40.6066 22.891 37.499 19.7028 33.6657 19.7028C29.8324 19.7028 26.7249 22.891 26.7249 26.8241Z" fill="#0C0C4F" stroke="white" stroke-width="0.619097"/>
<path fill-rule="evenodd" clip-rule="evenodd" d="M30.5247 25.1027L30.7004 24.5455C30.7362 24.4322 30.8234 24.344 30.9343 24.3092L31.48 24.137C31.5555 24.1133 31.5561 24.004 31.4812 23.9791L30.9379 23.7987C30.8276 23.7621 30.7417 23.6726 30.7076 23.5588L30.54 22.9989C30.5169 22.9216 30.4104 22.9208 30.386 22.9979L30.2102 23.5551C30.1745 23.6682 30.0874 23.7564 29.9765 23.7914L29.4307 23.9634C29.3552 23.9872 29.3544 24.0964 29.4295 24.1213L29.9728 24.3017C30.0831 24.3383 30.169 24.428 30.2031 24.5417L30.3707 25.1015C30.3938 25.179 30.5004 25.1798 30.5247 25.1027Z" fill="#FAFAFA"/>
<path fill-rule="evenodd" clip-rule="evenodd" d="M39.1507 24.7785C38.9257 24.5203 38.5746 24.375 38.2333 24.3154C37.8892 24.2582 37.5284 24.2635 37.1887 24.3254C36.5014 24.4447 35.877 24.7367 35.3324 25.0969C35.0496 25.2737 34.8084 25.4782 34.5585 25.6866C34.4381 25.7919 34.3284 25.9041 34.2141 26.0147L33.9017 26.3336C33.5623 26.6976 33.2278 27.0292 32.9041 27.304C32.5791 27.5775 32.2752 27.7852 31.9758 27.9303C31.6765 28.0762 31.3563 28.1619 30.9391 28.1757C30.5253 28.1906 30.036 28.114 29.5124 27.9876C28.9861 27.8617 28.4333 27.6823 27.8157 27.5279C28.0312 28.1413 28.3557 28.6834 28.7725 29.1789C29.194 29.6659 29.7204 30.1096 30.3965 30.4015C31.063 30.6999 31.9005 30.807 32.6836 30.6454C33.4687 30.4903 34.1577 30.1176 34.7147 29.6864C35.273 29.2509 35.7248 28.7548 36.1057 28.239C36.2108 28.0965 36.2664 28.0167 36.3425 27.9054L36.5528 27.5858C36.6989 27.3881 36.832 27.163 36.9765 26.9672C37.2601 26.557 37.5397 26.1473 37.8646 25.7698C38.0281 25.5783 38.2005 25.3952 38.4041 25.2192C38.5056 25.1333 38.6153 25.0492 38.7368 24.9735C38.8601 24.8918 38.9904 24.8279 39.1507 24.7785Z" fill="url(#paint0_linear_455_573)"/>
<path fill-rule="evenodd" clip-rule="evenodd" d="M39.1507 24.7784C38.909 24.1526 38.4597 23.6259 37.8566 23.2372C37.2571 22.8528 36.4246 22.6566 35.5995 22.8238C35.192 22.9047 34.7971 23.0604 34.4506 23.2678C34.1056 23.4743 33.7965 23.7229 33.5289 23.9897C33.3953 24.1234 33.2741 24.263 33.1537 24.4034L32.8414 24.8118L32.3592 25.4693C31.7444 26.3152 31.0823 27.3066 29.9958 27.6003C28.9293 27.8887 28.4667 27.6333 27.8157 27.5278C27.9348 27.8431 28.0822 28.1493 28.2821 28.4187C28.4782 28.6935 28.7099 28.9516 28.998 29.1729C29.1436 29.2792 29.2973 29.384 29.468 29.473C29.6379 29.5589 29.8211 29.6346 30.0167 29.6915C30.4057 29.8009 30.8437 29.8392 31.2678 29.7803C31.6921 29.7223 32.0977 29.5844 32.4522 29.4012C32.8092 29.2196 33.1203 28.9986 33.3981 28.7653C33.9502 28.2948 34.3798 27.775 34.7425 27.2496C34.925 26.9868 35.0906 26.7192 35.2438 26.4514L35.4241 26.1327C35.4793 26.0395 35.535 25.9457 35.5916 25.8584C35.8201 25.5076 36.0436 25.2263 36.315 25.0152C36.5826 24.7986 36.9554 24.6386 37.4534 24.6014C37.9493 24.5638 38.5219 24.6333 39.1507 24.7784Z" fill="#FAFAFA"/>
<path fill-rule="evenodd" clip-rule="evenodd" d="M36.4674 29.9777C36.4674 30.4373 36.8308 30.8101 37.2787 30.8101C37.7267 30.8101 38.0895 30.4373 38.0895 29.9777C38.0895 29.5181 37.7267 29.1453 37.2787 29.1453C36.8308 29.1453 36.4674 29.5181 36.4674 29.9777Z" fill="url(#paint1_linear_455_573)"/>
<path d="M76.2409 18.6139C76.1432 17.7466 75.7401 17.0747 75.0315 16.5982C74.323 16.1157 73.4312 15.8744 72.3562 15.8744C71.5865 15.8744 70.9207 15.9966 70.3588 16.2409C69.7968 16.4791 69.3601 16.809 69.0486 17.2304C68.7432 17.6458 68.5905 18.1192 68.5905 18.6506C68.5905 19.0965 68.6943 19.4813 68.902 19.805C69.1158 20.1287 69.3937 20.4006 69.7358 20.6204C70.0839 20.8342 70.4565 21.0144 70.8536 21.161C71.2506 21.3015 71.6323 21.4176 71.9988 21.5092L73.8313 21.9856C74.4299 22.1322 75.0437 22.3307 75.6729 22.5812C76.302 22.8316 76.8853 23.1614 77.4229 23.5707C77.9604 23.9799 78.394 24.4869 78.7239 25.0916C79.0598 25.6963 79.2278 26.4201 79.2278 27.263C79.2278 28.3259 78.9529 29.2696 78.4032 30.0942C77.8596 30.9188 77.0686 31.5693 76.0302 32.0457C74.9979 32.5222 73.7488 32.7604 72.2829 32.7604C70.878 32.7604 69.6625 32.5374 68.6363 32.0915C67.6101 31.6456 66.8069 31.0134 66.2266 30.1949C65.6464 29.3704 65.3257 28.393 65.2646 27.263H68.1049C68.1599 27.941 68.3798 28.5061 68.7646 28.9581C69.1555 29.4039 69.6533 29.7368 70.258 29.9567C70.8688 30.1705 71.5377 30.2774 72.2645 30.2774C73.0647 30.2774 73.7763 30.1522 74.3993 29.9018C75.0285 29.6452 75.5232 29.2909 75.8836 28.8389C76.244 28.3808 76.4242 27.8464 76.4242 27.2356C76.4242 26.6797 76.2654 26.2247 75.9477 25.8704C75.6362 25.5161 75.2117 25.2229 74.6742 24.9908C74.1428 24.7587 73.5411 24.5541 72.8692 24.3769L70.652 23.7722C69.1494 23.363 67.9583 22.7613 67.0787 21.9673C66.2053 21.1732 65.7685 20.1226 65.7685 18.8155C65.7685 17.7343 66.0617 16.7906 66.6481 15.9844C67.2345 15.1781 68.0285 14.552 69.0303 14.1061C70.032 13.6541 71.162 13.4281 72.4203 13.4281C73.6908 13.4281 74.8116 13.6511 75.7828 14.097C76.7601 14.5428 77.5297 15.1567 78.0917 15.9386C78.6536 16.7143 78.9468 17.6061 78.9713 18.6139H76.2409ZM88.319 32.7329C86.9569 32.7329 85.7841 32.4244 84.8007 31.8075C83.8234 31.1845 83.0721 30.3263 82.5468 29.2329C82.0215 28.1396 81.7589 26.8874 81.7589 25.4764C81.7589 24.0471 82.0276 22.7858 82.5651 21.6924C83.1027 20.593 83.8601 19.7348 84.8374 19.1178C85.8147 18.5009 86.9661 18.1925 88.2915 18.1925C89.3604 18.1925 90.3133 18.391 91.1501 18.788C91.9869 19.1789 92.6619 19.7287 93.175 20.4372C93.6942 21.1457 94.0026 21.9734 94.1004 22.9202H91.4342C91.2876 22.2605 90.9516 21.6924 90.4263 21.216C89.9071 20.7396 89.2108 20.5013 88.3373 20.5013C87.5738 20.5013 86.905 20.7029 86.3308 21.106C85.7628 21.5031 85.3199 22.0711 85.0023 22.8102C84.6847 23.5432 84.5259 24.4105 84.5259 25.4123C84.5259 26.4384 84.6816 27.3241 84.9931 28.0693C85.3046 28.8145 85.7444 29.3917 86.3125 29.801C86.8866 30.2102 87.5616 30.4148 88.3373 30.4148C88.8565 30.4148 89.3269 30.3202 89.7483 30.1308C90.1759 29.9354 90.5332 29.6574 90.8203 29.2971C91.1135 28.9367 91.3181 28.503 91.4342 27.996H94.1004C94.0026 28.9061 93.7064 29.7185 93.2116 30.4332C92.7169 31.1478 92.0541 31.7098 91.2234 32.119C90.3988 32.5283 89.4307 32.7329 88.319 32.7329ZM101.125 32.7604C100.234 32.7604 99.4274 32.5954 98.7067 32.2656C97.9859 31.9297 97.4148 31.4441 96.9933 30.8088C96.578 30.1736 96.3703 29.3948 96.3703 28.4725C96.3703 27.6784 96.523 27.0248 96.8284 26.5117C97.1338 25.9987 97.5461 25.5925 98.0653 25.2932C98.5845 24.9939 99.1648 24.7679 99.8061 24.6152C100.447 24.4625 101.101 24.3464 101.767 24.267C102.61 24.1693 103.294 24.0899 103.819 24.0288C104.344 23.9616 104.726 23.8547 104.964 23.7081C105.203 23.5615 105.322 23.3233 105.322 22.9935V22.9293C105.322 22.1292 105.096 21.5092 104.644 21.0694C104.198 20.6296 103.532 20.4097 102.646 20.4097C101.724 20.4097 100.997 20.6143 100.466 21.0236C99.9405 21.4267 99.5771 21.8757 99.3755 22.3704L96.8009 21.784C97.1063 20.9289 97.5522 20.2387 98.1386 19.7134C98.7311 19.182 99.4121 18.7972 100.182 18.5589C100.951 18.3146 101.761 18.1925 102.61 18.1925C103.172 18.1925 103.767 18.2597 104.396 18.394C105.032 18.5223 105.624 18.7605 106.174 19.1087C106.73 19.4568 107.185 19.9547 107.539 20.6021C107.893 21.2435 108.07 22.0772 108.07 23.1034V32.4489H105.395V30.5248H105.285C105.108 30.8791 104.842 31.2272 104.488 31.5693C104.134 31.9113 103.679 32.1954 103.123 32.4214C102.567 32.6474 101.901 32.7604 101.125 32.7604ZM101.721 30.5614C102.478 30.5614 103.126 30.4118 103.663 30.1125C104.207 29.8132 104.619 29.4223 104.9 28.9397C105.187 28.4511 105.331 27.9288 105.331 27.373V25.5589C105.233 25.6566 105.044 25.7482 104.763 25.8337C104.488 25.9131 104.173 25.9834 103.819 26.0445C103.465 26.0994 103.12 26.1514 102.784 26.2002C102.448 26.243 102.167 26.2796 101.941 26.3102C101.41 26.3774 100.924 26.4904 100.484 26.6492C100.05 26.808 99.7023 27.037 99.4396 27.3363C99.1831 27.6295 99.0548 28.0205 99.0548 28.5091C99.0548 29.1871 99.3053 29.7002 99.8061 30.0484C100.307 30.3904 100.945 30.5614 101.721 30.5614ZM118.417 18.3757V20.5746H110.464V18.3757H118.417ZM112.645 32.4489V16.7448C112.645 15.8653 112.837 15.1353 113.222 14.5551C113.607 13.9687 114.117 13.532 114.752 13.2449C115.387 12.9517 116.077 12.8051 116.823 12.8051C117.372 12.8051 117.843 12.8509 118.234 12.9425C118.625 13.028 118.915 13.1074 119.104 13.1807L118.463 15.398C118.334 15.3613 118.169 15.3186 117.968 15.2697C117.766 15.2147 117.522 15.1873 117.235 15.1873C116.569 15.1873 116.093 15.3522 115.806 15.682C115.525 16.0119 115.384 16.4883 115.384 17.1113V32.4489H112.645ZM127.941 18.3757V20.5746H119.988V18.3757H127.941ZM122.169 32.4489V16.7448C122.169 15.8653 122.361 15.1353 122.746 14.5551C123.131 13.9687 123.641 13.532 124.276 13.2449C124.911 12.9517 125.602 12.8051 126.347 12.8051C126.896 12.8051 127.367 12.8509 127.758 12.9425C128.149 13.028 128.439 13.1074 128.628 13.1807L127.987 15.398C127.859 15.3613 127.694 15.3186 127.492 15.2697C127.29 15.2147 127.046 15.1873 126.759 15.1873C126.093 15.1873 125.617 15.3522 125.33 15.682C125.049 16.0119 124.908 16.4883 124.908 17.1113V32.4489H122.169ZM136.141 32.7329C134.822 32.7329 133.67 32.4305 132.687 31.8258C131.704 31.2211 130.94 30.3751 130.396 29.2879C129.853 28.2006 129.581 26.9302 129.581 25.4764C129.581 24.0166 129.853 22.74 130.396 21.6466C130.94 20.5533 131.704 19.7042 132.687 19.0995C133.67 18.4948 134.822 18.1925 136.141 18.1925C137.46 18.1925 138.612 18.4948 139.595 19.0995C140.579 19.7042 141.342 20.5533 141.886 21.6466C142.429 22.74 142.701 24.0166 142.701 25.4764C142.701 26.9302 142.429 28.2006 141.886 29.2879C141.342 30.3751 140.579 31.2211 139.595 31.8258C138.612 32.4305 137.46 32.7329 136.141 32.7329ZM136.15 30.4332C137.005 30.4332 137.714 30.2072 138.276 29.7552C138.838 29.3032 139.253 28.7015 139.522 27.9502C139.797 27.1989 139.934 26.3713 139.934 25.4673C139.934 24.5694 139.797 23.7448 139.522 22.9935C139.253 22.236 138.838 21.6283 138.276 21.1702C137.714 20.7121 137.005 20.483 136.15 20.483C135.289 20.483 134.574 20.7121 134.006 21.1702C133.444 21.6283 133.026 22.236 132.751 22.9935C132.482 23.7448 132.348 24.5694 132.348 25.4673C132.348 26.3713 132.482 27.1989 132.751 27.9502C133.026 28.7015 133.444 29.3032 134.006 29.7552C134.574 30.2072 135.289 30.4332 136.15 30.4332ZM148.499 13.6847V32.4489H145.759V13.6847H148.499ZM157.452 32.7237C156.316 32.7237 155.302 32.4336 154.411 31.8533C153.525 31.2669 152.829 30.4332 152.322 29.352C151.821 28.2648 151.57 26.9607 151.57 25.4398C151.57 23.9188 151.824 22.6178 152.331 21.5367C152.844 20.4555 153.546 19.6279 154.438 19.0537C155.33 18.4795 156.341 18.1925 157.471 18.1925C158.344 18.1925 159.047 18.3391 159.578 18.6322C160.116 18.9193 160.531 19.2553 160.824 19.6401C161.123 20.0249 161.356 20.3639 161.52 20.6571H161.685V13.6847H164.425V32.4489H161.75V30.2591H161.52C161.356 30.5584 161.117 30.9004 160.806 31.2853C160.5 31.6701 160.079 32.006 159.541 32.2931C159.004 32.5802 158.308 32.7237 157.452 32.7237ZM158.057 30.3874C158.845 30.3874 159.511 30.1797 160.054 29.7643C160.604 29.3429 161.02 28.7595 161.301 28.0143C161.588 27.2692 161.731 26.4018 161.731 25.4123C161.731 24.435 161.591 23.5798 161.31 22.8469C161.029 22.1139 160.616 21.5428 160.073 21.1335C159.529 20.7243 158.857 20.5197 158.057 20.5197C157.233 20.5197 156.545 20.7334 155.996 21.161C155.446 21.5886 155.031 22.1719 154.75 22.911C154.475 23.6501 154.337 24.4838 154.337 25.4123C154.337 26.3529 154.478 27.1989 154.759 27.9502C155.04 28.7015 155.455 29.2971 156.005 29.7368C156.561 30.1705 157.245 30.3874 158.057 30.3874ZM176.627 23.3325V25.7055H168.307V23.3325H176.627ZM190.732 18.6139C190.634 17.7466 190.231 17.0747 189.522 16.5982C188.814 16.1157 187.922 15.8744 186.847 15.8744C186.077 15.8744 185.412 15.9966 184.85 16.2409C184.288 16.4791 183.851 16.809 183.54 17.2304C183.234 17.6458 183.081 18.1192 183.081 18.6506C183.081 19.0965 183.185 19.4813 183.393 19.805C183.607 20.1287 183.885 20.4006 184.227 20.6204C184.575 20.8342 184.947 21.0144 185.344 21.161C185.741 21.3015 186.123 21.4176 186.49 21.5092L188.322 21.9856C188.921 22.1322 189.535 22.3307 190.164 22.5812C190.793 22.8316 191.376 23.1614 191.914 23.5707C192.451 23.9799 192.885 24.4869 193.215 25.0916C193.551 25.6963 193.719 26.4201 193.719 27.263C193.719 28.3259 193.444 29.2696 192.894 30.0942C192.351 30.9188 191.559 31.5693 190.521 32.0457C189.489 32.5222 188.24 32.7604 186.774 32.7604C185.369 32.7604 184.153 32.5374 183.127 32.0915C182.101 31.6456 181.298 31.0134 180.718 30.1949C180.137 29.3704 179.817 28.393 179.756 27.263H182.596C182.651 27.941 182.871 28.5061 183.255 28.9581C183.646 29.4039 184.144 29.7368 184.749 29.9567C185.36 30.1705 186.029 30.2774 186.755 30.2774C187.556 30.2774 188.267 30.1522 188.89 29.9018C189.519 29.6452 190.014 29.2909 190.375 28.8389C190.735 28.3808 190.915 27.8464 190.915 27.2356C190.915 26.6797 190.756 26.2247 190.439 25.8704C190.127 25.5161 189.703 25.2229 189.165 24.9908C188.634 24.7587 188.032 24.5541 187.36 24.3769L185.143 23.7722C183.64 23.363 182.449 22.7613 181.57 21.9673C180.696 21.1732 180.259 20.1226 180.259 18.8155C180.259 17.7343 180.553 16.7906 181.139 15.9844C181.725 15.1781 182.519 14.552 183.521 14.1061C184.523 13.6541 185.653 13.4281 186.911 13.4281C188.182 13.4281 189.303 13.6511 190.274 14.097C191.251 14.5428 192.021 15.1567 192.583 15.9386C193.145 16.7143 193.438 17.6061 193.462 18.6139H190.732ZM203.451 18.3757V20.5746H195.764V18.3757H203.451ZM197.826 15.004H200.565V28.3167C200.565 28.8481 200.645 29.2482 200.803 29.5169C200.962 29.7796 201.167 29.9598 201.417 30.0575C201.674 30.1491 201.952 30.1949 202.251 30.1949C202.471 30.1949 202.663 30.1797 202.828 30.1491C202.993 30.1186 203.121 30.0942 203.213 30.0758L203.708 32.3389C203.549 32.4 203.323 32.4611 203.03 32.5222C202.737 32.5893 202.37 32.626 201.93 32.6321C201.21 32.6443 200.538 32.516 199.915 32.2473C199.292 31.9785 198.788 31.5632 198.403 31.0012C198.018 30.4393 197.826 29.7338 197.826 28.8848V15.004ZM210.577 32.7604C209.685 32.7604 208.879 32.5954 208.158 32.2656C207.438 31.9297 206.866 31.4441 206.445 30.8088C206.03 30.1736 205.822 29.3948 205.822 28.4725C205.822 27.6784 205.975 27.0248 206.28 26.5117C206.586 25.9987 206.998 25.5925 207.517 25.2932C208.036 24.9939 208.616 24.7679 209.258 24.6152C209.899 24.4625 210.553 24.3464 211.219 24.267C212.061 24.1693 212.746 24.0899 213.271 24.0288C213.796 23.9616 214.178 23.8547 214.416 23.7081C214.654 23.5615 214.773 23.3233 214.773 22.9935V22.9293C214.773 22.1292 214.547 21.5092 214.095 21.0694C213.65 20.6296 212.984 20.4097 212.098 20.4097C211.176 20.4097 210.449 20.6143 209.918 21.0236C209.392 21.4267 209.029 21.8757 208.827 22.3704L206.253 21.784C206.558 20.9289 207.004 20.2387 207.59 19.7134C208.183 19.182 208.864 18.7972 209.633 18.5589C210.403 18.3146 211.212 18.1925 212.061 18.1925C212.623 18.1925 213.219 18.2597 213.848 18.394C214.483 18.5223 215.076 18.7605 215.626 19.1087C216.181 19.4568 216.636 19.9547 216.991 20.6021C217.345 21.2435 217.522 22.0772 217.522 23.1034V32.4489H214.847V30.5248H214.737C214.56 30.8791 214.294 31.2272 213.94 31.5693C213.585 31.9113 213.13 32.1954 212.575 32.4214C212.019 32.6474 211.353 32.7604 210.577 32.7604ZM211.173 30.5614C211.93 30.5614 212.578 30.4118 213.115 30.1125C213.659 29.8132 214.071 29.4223 214.352 28.9397C214.639 28.4511 214.783 27.9288 214.783 27.373V25.5589C214.685 25.6566 214.496 25.7482 214.215 25.8337C213.94 25.9131 213.625 25.9834 213.271 26.0445C212.917 26.0994 212.571 26.1514 212.236 26.2002C211.9 26.243 211.619 26.2796 211.393 26.3102C210.861 26.3774 210.376 26.4904 209.936 26.6492C209.502 26.808 209.154 27.037 208.891 27.3363C208.635 27.6295 208.507 28.0205 208.507 28.5091C208.507 29.1871 208.757 29.7002 209.258 30.0484C209.759 30.3904 210.397 30.5614 211.173 30.5614ZM221.171 32.4489V18.3757H223.819V20.6113H223.965C224.222 19.8539 224.674 19.2583 225.321 18.8247C225.975 18.3849 226.714 18.165 227.539 18.165C227.71 18.165 227.911 18.1711 228.143 18.1833C228.382 18.1955 228.568 18.2108 228.702 18.2291V20.8495C228.592 20.819 228.397 20.7854 228.116 20.7487C227.835 20.706 227.554 20.6846 227.273 20.6846C226.626 20.6846 226.048 20.822 225.541 21.0969C225.04 21.3656 224.643 21.7413 224.35 22.2238C224.057 22.7003 223.91 23.2439 223.91 23.8547V32.4489H221.171ZM233.593 27.6753L233.574 24.3311H234.051L239.658 18.3757H242.938L236.543 25.1557H236.112L233.593 27.6753ZM231.073 32.4489V13.6847H233.813V32.4489H231.073ZM239.96 32.4489L234.921 25.7604L236.809 23.8455L243.323 32.4489H239.96Z" fill="#0C0C4F"/>
<defs>
<linearGradient id="paint0_linear_455_573" x1="39.0901" y1="24.5589" x2="28.9945" y2="30.0261" gradientUnits="userSpaceOnUse">
<stop stop-color="#EC796B"/>
<stop offset="1" stop-color="#E175B1"/>
</linearGradient>
<linearGradient id="paint1_linear_455_573" x1="38.089" y1="29.3938" x2="36.4655" y2="29.5612" gradientUnits="userSpaceOnUse">
<stop stop-color="#EC796B"/>
<stop offset="1" stop-color="#E175B1"/>
</linearGradient>
<clipPath id="clip0_455_573">
<rect width="26.9762" height="29.9778" fill="white" transform="translate(9.66014 7.95993)"/>
</clipPath>
</defs>
</svg>
