<svg width="284" height="165" viewBox="0 0 284 165" fill="none" xmlns="http://www.w3.org/2000/svg">
<g clip-path="url(#clip0_455_866)">
<rect x="0.24939" y="0.576416" width="283.381" height="163.854" rx="6.33253" fill="url(#paint0_linear_455_866)"/>
<path d="M244.341 82.0034L239.341 79.1167V84.8902L244.341 82.0034ZM39.5383 82.5034H41.5076V81.5034H39.5383V82.5034ZM45.4461 82.5034H49.3846V81.5034H45.4461V82.5034ZM53.3231 82.5034H57.2616V81.5034H53.3231V82.5034ZM61.2001 82.5034H65.1387V81.5034H61.2001V82.5034ZM69.0772 82.5034H73.0157V81.5034H69.0772V82.5034ZM76.9542 82.5034H80.8927V81.5034H76.9542V82.5034ZM84.8312 82.5034H88.7697V81.5034H84.8312V82.5034ZM92.7082 82.5034H96.6467V81.5034H92.7082V82.5034ZM100.585 82.5034H104.524V81.5034H100.585V82.5034ZM108.462 82.5034H112.401V81.5034H108.462V82.5034ZM116.339 82.5034H120.278V81.5034H116.339V82.5034ZM124.216 82.5034H128.155V81.5034H124.216V82.5034ZM132.093 82.5034H136.032V81.5034H132.093V82.5034ZM139.97 82.5034H143.909V81.5034H139.97V82.5034ZM147.847 82.5034H151.786V81.5034H147.847V82.5034ZM155.724 82.5034H159.663V81.5034H155.724V82.5034ZM163.601 82.5034H167.54V81.5034H163.601V82.5034ZM171.479 82.5034H175.417V81.5034H171.479V82.5034ZM179.356 82.5034H183.294V81.5034H179.356V82.5034ZM187.233 82.5034H191.171V81.5034H187.233V82.5034ZM195.11 82.5034H199.048V81.5034H195.11V82.5034ZM202.987 82.5034H206.925V81.5034H202.987V82.5034ZM210.864 82.5034H214.802V81.5034H210.864V82.5034ZM218.741 82.5034H222.679V81.5034H218.741V82.5034ZM226.618 82.5034H230.556V81.5034H226.618V82.5034ZM234.495 82.5034H238.433V81.5034H234.495V82.5034Z" fill="white"/>
<circle cx="-18.0184" cy="82.5035" r="57.5568" fill="#191972"/>
<circle cx="-18.0184" cy="82.5035" r="58.0568" stroke="white" stroke-opacity="0.61" stroke-dasharray="2 2"/>
<circle cx="301.898" cy="82.5035" r="57.5567" fill="#9B5584"/>
<circle cx="301.898" cy="82.5035" r="58.0567" stroke="white" stroke-opacity="0.61" stroke-dasharray="2 2"/>
</g>
<defs>
<linearGradient id="paint0_linear_455_866" x1="283.63" y1="82.5035" x2="0.24939" y2="82.5035" gradientUnits="userSpaceOnUse">
<stop stop-color="#9B5584"/>
<stop offset="1" stop-color="#181872"/>
</linearGradient>
<clipPath id="clip0_455_866">
<rect x="0.24939" y="0.576416" width="283.381" height="163.854" rx="6.33253" fill="white"/>
</clipPath>
</defs>
</svg>
