<svg xmlns="http://www.w3.org/2000/svg" width="27" height="27" viewBox="0 0 27 27" fill="none">
  <path d="M5.53493 2.93352C5.28264 2.8429 5.02666 2.75096 4.81053 2.69479C4.60548 2.6415 4.20964 2.55315 3.78521 2.70013C3.29864 2.86864 2.91625 3.25103 2.74774 3.7376C2.60076 4.16203 2.6891 4.55787 2.74239 4.76292C2.79856 4.97905 2.89051 5.23503 2.98113 5.48732L9.39584 23.357C9.50845 23.6708 9.61643 23.9718 9.72301 24.2036C9.81305 24.3995 10.0178 24.828 10.463 25.0703C10.9498 25.3352 11.536 25.3429 12.0296 25.0909C12.481 24.8604 12.6969 24.4374 12.792 24.2439C12.9047 24.0149 13.0205 23.7169 13.1413 23.4062L16.0288 15.9812L23.4538 13.0937C23.7645 12.9729 24.0625 12.8571 24.2915 12.7445C24.4849 12.6493 24.9079 12.4334 25.1384 11.982C25.3904 11.4884 25.3827 10.9023 25.1179 10.4155C24.8756 9.97026 24.4471 9.7655 24.2512 9.67546C24.0193 9.56888 23.7184 9.4609 23.4046 9.3483L5.53493 2.93352Z" fill="#121212" stroke="#F8F8F8" stroke-width="2.01548" stroke-linecap="round" stroke-linejoin="round"/>
</svg>