<svg width="17" height="17" viewBox="0 0 17 17" fill="none" xmlns="http://www.w3.org/2000/svg">
<g id="Software/qr code">
<path id="Icon" d="M10.4937 9.89712H10.7437M10.4937 10.1471H10.7437M10.4937 13.8971H10.7437M10.4937 14.1471H10.7437M12.4937 11.8971H12.7437M12.4937 12.1471H12.7437M14.4937 9.89712H14.7437M14.4937 10.1471H14.7437M14.4937 13.8971H14.7437M14.4937 14.1471H14.7437M4.28548 7.02214H6.28548C7.02186 7.02214 7.61882 6.42518 7.61882 5.6888V3.6888C7.61882 2.95242 7.02186 2.35547 6.28548 2.35547H4.28548C3.5491 2.35547 2.95215 2.95242 2.95215 3.6888V5.6888C2.95215 6.42518 3.5491 7.02214 4.28548 7.02214ZM4.28548 14.3555H6.28548C7.02186 14.3555 7.61882 13.7585 7.61882 13.0221V11.0221C7.61882 10.2858 7.02186 9.6888 6.28548 9.6888H4.28548C3.5491 9.6888 2.95215 10.2858 2.95215 11.0221V13.0221C2.95215 13.7585 3.5491 14.3555 4.28548 14.3555ZM11.6188 7.02214H13.6188C14.3552 7.02214 14.9521 6.42518 14.9521 5.6888V3.6888C14.9521 2.95242 14.3552 2.35547 13.6188 2.35547H11.6188C10.8824 2.35547 10.2855 2.95242 10.2855 3.6888V5.6888C10.2855 6.42518 10.8824 7.02214 11.6188 7.02214ZM10.9521 10.0221C10.9521 10.2062 10.8029 10.3555 10.6188 10.3555C10.4347 10.3555 10.2855 10.2062 10.2855 10.0221C10.2855 9.83804 10.4347 9.6888 10.6188 9.6888C10.8029 9.6888 10.9521 9.83804 10.9521 10.0221ZM10.9521 14.0221C10.9521 14.2062 10.8029 14.3555 10.6188 14.3555C10.4347 14.3555 10.2855 14.2062 10.2855 14.0221C10.2855 13.838 10.4347 13.6888 10.6188 13.6888C10.8029 13.6888 10.9521 13.838 10.9521 14.0221ZM12.9521 12.0221C12.9521 12.2062 12.8029 12.3555 12.6188 12.3555C12.4347 12.3555 12.2855 12.2062 12.2855 12.0221C12.2855 11.838 12.4347 11.6888 12.6188 11.6888C12.8029 11.6888 12.9521 11.838 12.9521 12.0221ZM14.9521 10.0221C14.9521 10.2062 14.8029 10.3555 14.6188 10.3555C14.4347 10.3555 14.2855 10.2062 14.2855 10.0221C14.2855 9.83804 14.4347 9.6888 14.6188 9.6888C14.8029 9.6888 14.9521 9.83804 14.9521 10.0221ZM14.9521 14.0221C14.9521 14.2062 14.8029 14.3555 14.6188 14.3555C14.4347 14.3555 14.2855 14.2062 14.2855 14.0221C14.2855 13.838 14.4347 13.6888 14.6188 13.6888C14.8029 13.6888 14.9521 13.838 14.9521 14.0221Z" stroke="white" stroke-width="1.33333" stroke-linecap="round"/>
</g>
</svg>
