<svg width="417" height="378" viewBox="0 0 417 378" fill="none" xmlns="http://www.w3.org/2000/svg">
<g clip-path="url(#clip0_365_11152)">
<rect width="417" height="378" fill="black"/>
<g clip-path="url(#clip1_365_11152)">
<g clip-path="url(#clip2_365_11152)">
<g clip-path="url(#clip3_365_11152)">
<path d="M464.502 10.3843V10.6422H-51.3711V10.3843H464.502Z" fill="#D387FF" fill-opacity="0.33"/>
<path d="M464.502 20.9597V21.2177H-51.3711V20.9597H464.502Z" fill="#D387FF" fill-opacity="0.33"/>
<path d="M464.502 31.5352V31.7931H-51.3711V31.5352H464.502Z" fill="#D387FF" fill-opacity="0.33"/>
<path d="M5.50391 -14.7644H5.76184V501.109H5.50391V-14.7644Z" fill="#D387FF" fill-opacity="0.33"/>
<path d="M464.502 42.1106V42.3685H-51.3711V42.1106H464.502Z" fill="#D387FF" fill-opacity="0.33"/>
<path d="M16.0793 -14.7644H16.3373V501.109H16.0793V-14.7644Z" fill="#D387FF" fill-opacity="0.33"/>
<path d="M464.502 52.6858V52.9437H-51.3711V52.6858H464.502Z" fill="#D387FF" fill-opacity="0.33"/>
<path d="M26.6548 -14.7644H26.9127V501.109H26.6548V-14.7644Z" fill="#D387FF" fill-opacity="0.33"/>
<path d="M464.502 63.2612V63.5192H-51.3711V63.2612H464.502Z" fill="#D387FF" fill-opacity="0.33"/>
<path d="M37.2302 -14.7644H37.4882V501.109H37.2302V-14.7644Z" fill="#D387FF" fill-opacity="0.33"/>
<path d="M464.502 73.8367V74.0946H-51.3711V73.8367H464.502Z" fill="#D387FF" fill-opacity="0.33"/>
<path d="M47.8057 -14.7644H48.0636V501.109H47.8057V-14.7644Z" fill="#D387FF" fill-opacity="0.33"/>
<path d="M464.502 84.4121V84.67H-51.3711V84.4121H464.502Z" fill="#D387FF" fill-opacity="0.33"/>
<path d="M58.3809 -14.7644H58.6388V501.109H58.3809V-14.7644Z" fill="#D387FF" fill-opacity="0.33"/>
<path d="M464.502 94.9873V95.2452H-51.3711V94.9873H464.502Z" fill="#D387FF" fill-opacity="0.33"/>
<path d="M68.9563 -14.7644H69.2142V501.109H68.9563V-14.7644Z" fill="#D387FF" fill-opacity="0.33"/>
<path d="M464.502 105.563V105.821H-51.3711V105.563H464.502Z" fill="#D387FF" fill-opacity="0.33"/>
<path d="M79.5317 -14.7644H79.7897V501.109H79.5317V-14.7644Z" fill="#D387FF" fill-opacity="0.33"/>
<path d="M464.502 116.138V116.396H-51.3711V116.138H464.502Z" fill="#D387FF" fill-opacity="0.33"/>
<path d="M90.1072 -14.7644H90.3651V501.109H90.1072V-14.7644Z" fill="#D387FF" fill-opacity="0.33"/>
<path d="M464.502 126.714V126.972H-51.3711V126.714H464.502Z" fill="#D387FF" fill-opacity="0.33"/>
<path d="M100.683 -14.7644H100.941V501.109H100.683V-14.7644Z" fill="#D387FF" fill-opacity="0.33"/>
<path d="M464.502 137.289V137.547H-51.3711V137.289H464.502Z" fill="#D387FF" fill-opacity="0.33"/>
<path d="M111.258 -14.7644H111.516V501.109H111.258V-14.7644Z" fill="#D387FF" fill-opacity="0.33"/>
<path d="M464.502 147.865V148.122H-51.3711V147.865H464.502Z" fill="#D387FF" fill-opacity="0.33"/>
<path d="M121.833 -14.7644H122.091V501.109H121.833V-14.7644Z" fill="#D387FF" fill-opacity="0.33"/>
<path d="M464.502 158.44V158.698H-51.3711V158.44H464.502Z" fill="#D387FF" fill-opacity="0.33"/>
<path d="M132.409 -14.7644H132.667V501.109H132.409V-14.7644Z" fill="#D387FF" fill-opacity="0.33"/>
<path d="M464.502 169.015V169.273H-51.3711V169.015H464.502Z" fill="#D387FF" fill-opacity="0.33"/>
<path d="M142.984 -14.7644H143.242V501.109H142.984V-14.7644Z" fill="#D387FF" fill-opacity="0.33"/>
<path d="M464.502 179.591V179.849H-51.3711V179.591H464.502Z" fill="#D387FF" fill-opacity="0.33"/>
<path d="M153.56 -14.7644H153.818V501.109H153.56V-14.7644Z" fill="#D387FF" fill-opacity="0.33"/>
<path d="M464.502 190.166V190.424H-51.3711V190.166H464.502Z" fill="#D387FF" fill-opacity="0.33"/>
<path d="M164.135 -14.7644H164.393V501.109H164.135V-14.7644Z" fill="#D387FF" fill-opacity="0.33"/>
<path d="M464.502 200.741V200.999H-51.3711V200.741H464.502Z" fill="#D387FF" fill-opacity="0.33"/>
<path d="M174.71 -14.7644H174.968V501.109H174.71V-14.7644Z" fill="#D387FF" fill-opacity="0.33"/>
<path d="M464.502 211.317V211.575H-51.3711V211.317H464.502Z" fill="#D387FF" fill-opacity="0.33"/>
<path d="M185.286 -14.7644H185.544V501.109H185.286V-14.7644Z" fill="#D387FF" fill-opacity="0.33"/>
<path d="M464.502 221.892V222.15H-51.3711V221.892H464.502Z" fill="#D387FF" fill-opacity="0.33"/>
<path d="M195.861 -14.7644H196.119V501.109H195.861V-14.7644Z" fill="#D387FF" fill-opacity="0.33"/>
<path d="M464.502 232.468V232.725H-51.3711V232.468H464.502Z" fill="#D387FF" fill-opacity="0.33"/>
<path d="M206.437 -14.7644H206.694V501.109H206.437V-14.7644Z" fill="#D387FF" fill-opacity="0.33"/>
<path d="M464.502 243.043V243.301H-51.3711V243.043H464.502Z" fill="#D387FF" fill-opacity="0.33"/>
<path d="M217.012 -14.7644H217.27V501.109H217.012V-14.7644Z" fill="#D387FF" fill-opacity="0.33"/>
<path d="M464.502 253.618V253.876H-51.3711V253.618H464.502Z" fill="#D387FF" fill-opacity="0.33"/>
<path d="M227.587 -14.7644H227.845V501.109H227.587V-14.7644Z" fill="#D387FF" fill-opacity="0.33"/>
<path d="M464.502 264.194V264.452H-51.3711V264.194H464.502Z" fill="#D387FF" fill-opacity="0.33"/>
<path d="M238.163 -14.7644H238.421V501.109H238.163V-14.7644Z" fill="#D387FF" fill-opacity="0.33"/>
<path d="M464.502 274.769V275.027H-51.3711V274.769H464.502Z" fill="#D387FF" fill-opacity="0.33"/>
<path d="M248.738 -14.7644H248.996V501.109H248.738V-14.7644Z" fill="#D387FF" fill-opacity="0.33"/>
<path d="M464.502 285.345V285.603H-51.3711V285.345H464.502Z" fill="#D387FF" fill-opacity="0.33"/>
<path d="M259.313 -14.7644H259.571V501.109H259.313V-14.7644Z" fill="#D387FF" fill-opacity="0.33"/>
<path d="M464.502 295.92V296.178H-51.3711V295.92H464.502Z" fill="#D387FF" fill-opacity="0.33"/>
<path d="M269.889 -14.7644H270.147V501.109H269.889V-14.7644Z" fill="#D387FF" fill-opacity="0.33"/>
<path d="M464.502 306.495V306.753H-51.3711V306.495H464.502Z" fill="#D387FF" fill-opacity="0.33"/>
<path d="M280.464 -14.7644H280.722V501.109H280.464V-14.7644Z" fill="#D387FF" fill-opacity="0.33"/>
<path d="M464.502 317.071V317.329H-51.3711V317.071H464.502Z" fill="#D387FF" fill-opacity="0.33"/>
<path d="M291.04 -14.7644H291.297V501.109H291.04V-14.7644Z" fill="#D387FF" fill-opacity="0.33"/>
<path d="M464.502 327.646V327.904H-51.3711V327.646H464.502Z" fill="#D387FF" fill-opacity="0.33"/>
<path d="M301.615 -14.7644H301.873V501.109H301.615V-14.7644Z" fill="#D387FF" fill-opacity="0.33"/>
<path d="M464.502 338.222V338.48H-51.3711V338.222H464.502Z" fill="#D387FF" fill-opacity="0.33"/>
<path d="M312.19 -14.7644H312.448V501.109H312.19V-14.7644Z" fill="#D387FF" fill-opacity="0.33"/>
<path d="M464.502 348.797V349.055H-51.3711V348.797H464.502Z" fill="#D387FF" fill-opacity="0.33"/>
<path d="M322.766 -14.7644H323.024V501.109H322.766V-14.7644Z" fill="#D387FF" fill-opacity="0.33"/>
<path d="M464.502 359.373V359.63H-51.3711V359.373H464.502Z" fill="#D387FF" fill-opacity="0.33"/>
<path d="M333.341 -14.7644H333.599V501.109H333.341V-14.7644Z" fill="#D387FF" fill-opacity="0.33"/>
<path d="M464.502 369.948V370.206H-51.3711V369.948H464.502Z" fill="#D387FF" fill-opacity="0.33"/>
<path d="M343.917 -14.7644H344.175V501.109H343.917V-14.7644Z" fill="#D387FF" fill-opacity="0.33"/>
<path d="M354.492 -14.7644H354.75V501.109H354.492V-14.7644Z" fill="#D387FF" fill-opacity="0.33"/>
<path d="M365.067 -14.7644H365.325V501.109H365.067V-14.7644Z" fill="#D387FF" fill-opacity="0.33"/>
<path d="M375.643 -14.7644H375.901V501.109H375.643V-14.7644Z" fill="#D387FF" fill-opacity="0.33"/>
<path d="M386.218 -14.7644H386.476V501.109H386.218V-14.7644Z" fill="#D387FF" fill-opacity="0.33"/>
<path d="M396.794 -14.7644H397.052V501.109H396.794V-14.7644Z" fill="#D387FF" fill-opacity="0.33"/>
<path d="M407.369 -14.7644H407.627V501.109H407.369V-14.7644Z" fill="#D387FF" fill-opacity="0.33"/>
</g>
</g>
</g>
<path opacity="0.3" d="M-14.5809 320.95C-14.8389 318.536 -15.9262 316.656 -17.8428 315.311C-19.741 313.966 -22.2104 313.293 -25.2512 313.293C-27.3889 313.293 -29.2226 313.615 -30.7521 314.26C-32.2817 314.905 -33.452 315.781 -34.2628 316.886C-35.0737 317.992 -35.4883 319.255 -35.5068 320.674C-35.5068 321.853 -35.2395 322.876 -34.7051 323.742C-34.1523 324.608 -33.4059 325.345 -32.466 325.953C-31.5262 326.543 -30.4849 327.041 -29.3424 327.446C-28.1998 327.852 -27.048 328.192 -25.887 328.469L-20.5795 329.796C-18.4418 330.293 -16.387 330.966 -14.4151 331.814C-12.4248 332.661 -10.6464 333.73 -9.07996 335.02C-7.49509 336.31 -6.24194 337.868 -5.3205 339.692C-4.39907 341.516 -3.93835 343.654 -3.93835 346.105C-3.93835 349.422 -4.78607 352.343 -6.48151 354.868C-8.17695 357.374 -10.628 359.337 -13.8346 360.756C-17.0227 362.157 -20.8836 362.857 -25.417 362.857C-29.8215 362.857 -33.6455 362.175 -36.8889 360.811C-40.1139 359.448 -42.6387 357.457 -44.4631 354.84C-46.2691 352.224 -47.2459 349.035 -47.3933 345.276H-37.3036C-37.1561 347.248 -36.548 348.888 -35.4791 350.196C-34.4103 351.505 -33.0189 352.482 -31.305 353.127C-29.5727 353.772 -27.6377 354.094 -25.5 354.094C-23.2701 354.094 -21.3166 353.762 -19.6396 353.099C-17.9442 352.417 -16.6173 351.477 -15.659 350.279C-14.7007 349.063 -14.2124 347.644 -14.1939 346.022C-14.2124 344.548 -14.6454 343.332 -15.4932 342.373C-16.3409 341.397 -17.5295 340.586 -19.0591 339.941C-20.5703 339.277 -22.3394 338.688 -24.3666 338.172L-30.8074 336.513C-35.4699 335.315 -39.1557 333.5 -41.8647 331.067C-44.5553 328.616 -45.9006 325.364 -45.9006 321.309C-45.9006 317.974 -44.9976 315.053 -43.1915 312.547C-41.3671 310.04 -38.8884 308.096 -35.7556 306.714C-32.6227 305.313 -29.0751 304.613 -25.113 304.613C-21.0955 304.613 -17.5756 305.313 -14.5533 306.714C-11.5126 308.096 -9.12603 310.022 -7.39373 312.491C-5.66143 314.942 -4.76764 317.762 -4.71235 320.95H-14.5809ZM20.9479 362.829C16.7093 362.829 13.0696 361.899 10.0289 360.037C7.00657 358.176 4.67533 355.605 3.03518 352.325C1.41345 349.026 0.602583 345.23 0.602583 340.936C0.602583 336.624 1.43188 332.818 3.09046 329.519C4.74905 326.202 7.0895 323.622 10.1118 321.779C13.1525 319.918 16.7462 318.987 20.8926 318.987C24.3388 318.987 27.3887 319.623 30.0425 320.895C32.7146 322.148 34.8432 323.926 36.428 326.23C38.0129 328.515 38.9159 331.187 39.1371 334.246H29.5725C29.1855 332.201 28.2641 330.496 26.8082 329.132C25.3708 327.75 23.445 327.059 21.0308 327.059C18.9852 327.059 17.1884 327.612 15.6404 328.718C14.0924 329.805 12.8853 331.371 12.0192 333.417C11.1715 335.463 10.7476 337.914 10.7476 340.77C10.7476 343.663 11.1715 346.151 12.0192 348.234C12.8669 350.298 14.0556 351.892 15.5851 353.016C17.1332 354.122 18.9484 354.675 21.0308 354.675C22.5051 354.675 23.8228 354.398 24.9838 353.845C26.1632 353.274 27.1492 352.454 27.9416 351.385C28.734 350.316 29.2777 349.017 29.5725 347.487H39.1371C38.8975 350.491 38.0129 353.154 36.4833 355.476C34.9537 357.78 32.8713 359.586 30.236 360.894C27.6007 362.184 24.5046 362.829 20.9479 362.829ZM57.2369 362.857C54.5463 362.857 52.123 362.378 49.9668 361.419C47.8291 360.443 46.1336 359.005 44.8805 357.107C43.6457 355.209 43.0284 352.869 43.0284 350.086C43.0284 347.69 43.4707 345.709 44.3552 344.143C45.2398 342.576 46.4469 341.323 47.9765 340.383C49.5061 339.443 51.2292 338.734 53.1458 338.255C55.0808 337.757 57.0803 337.398 59.1443 337.176C61.6322 336.918 63.6501 336.688 65.1981 336.485C66.7462 336.264 67.8703 335.933 68.5706 335.49C69.2893 335.03 69.6487 334.32 69.6487 333.362V333.196C69.6487 331.113 69.0313 329.501 67.7966 328.358C66.5619 327.216 64.7835 326.644 62.4615 326.644C60.0105 326.644 58.0662 327.179 56.6288 328.248C55.2098 329.317 54.2515 330.579 53.7539 332.035L44.4105 330.708C45.1477 328.128 46.364 325.972 48.0594 324.24C49.7549 322.489 51.8281 321.18 54.2791 320.314C56.7301 319.43 59.4392 318.987 62.4062 318.987C64.4518 318.987 66.4882 319.227 68.5153 319.706C70.5425 320.185 72.3946 320.978 74.0716 322.083C75.7486 323.171 77.0939 324.654 78.1075 326.534C79.1395 328.414 79.6555 330.763 79.6555 333.583V362H70.0357V356.167H69.704C69.0958 357.347 68.2389 358.452 67.1332 359.484C66.0459 360.498 64.6729 361.318 63.0143 361.945C61.3742 362.553 59.4484 362.857 57.2369 362.857ZM59.8354 355.504C61.8441 355.504 63.5856 355.108 65.0599 354.315C66.5342 353.504 67.6676 352.435 68.46 351.109C69.2709 349.782 69.6763 348.335 69.6763 346.769V341.765C69.363 342.023 68.8286 342.263 68.073 342.484C67.3359 342.705 66.5066 342.899 65.5851 343.064C64.6637 343.23 63.7515 343.378 62.8485 343.507C61.9455 343.636 61.1623 343.746 60.4988 343.838C59.0061 344.041 57.67 344.373 56.4906 344.834C55.3111 345.294 54.3805 345.939 53.6986 346.769C53.0168 347.58 52.6758 348.63 52.6758 349.92C52.6758 351.763 53.3485 353.154 54.6938 354.094C56.0391 355.034 57.7529 355.504 59.8354 355.504ZM108.889 319.54V327.28H83.7887V319.54H108.889ZM90.0637 362V315.532C90.0637 312.675 90.6534 310.298 91.8328 308.4C93.0307 306.502 94.634 305.083 96.6427 304.143C98.6514 303.203 100.881 302.733 103.332 302.733C105.065 302.733 106.603 302.871 107.949 303.148C109.294 303.424 110.289 303.673 110.934 303.894L108.944 311.634C108.52 311.505 107.986 311.376 107.341 311.247C106.696 311.1 105.977 311.026 105.184 311.026C103.323 311.026 102.005 311.478 101.231 312.381C100.476 313.265 100.098 314.537 100.098 316.195V362H90.0637ZM135.896 319.54V327.28H110.797V319.54H135.896ZM117.072 362V315.532C117.072 312.675 117.661 310.298 118.841 308.4C120.039 306.502 121.642 305.083 123.651 304.143C125.659 303.203 127.889 302.733 130.34 302.733C132.073 302.733 133.611 302.871 134.957 303.148C136.302 303.424 137.297 303.673 137.942 303.894L135.952 311.634C135.528 311.505 134.993 311.376 134.348 311.247C133.703 311.1 132.985 311.026 132.192 311.026C130.331 311.026 129.013 311.478 128.239 312.381C127.484 313.265 127.106 314.537 127.106 316.195V362H117.072ZM158.322 362.829C154.176 362.829 150.582 361.917 147.542 360.093C144.501 358.268 142.142 355.716 140.465 352.435C138.806 349.155 137.977 345.322 137.977 340.936C137.977 336.55 138.806 332.708 140.465 329.409C142.142 326.11 144.501 323.548 147.542 321.724C150.582 319.9 154.176 318.987 158.322 318.987C162.469 318.987 166.063 319.9 169.103 321.724C172.144 323.548 174.494 326.11 176.152 329.409C177.829 332.708 178.668 336.55 178.668 340.936C178.668 345.322 177.829 349.155 176.152 352.435C174.494 355.716 172.144 358.268 169.103 360.093C166.063 361.917 162.469 362.829 158.322 362.829ZM158.378 354.813C160.626 354.813 162.506 354.195 164.017 352.961C165.528 351.708 166.652 350.031 167.389 347.93C168.145 345.829 168.523 343.488 168.523 340.908C168.523 338.31 168.145 335.96 167.389 333.859C166.652 331.74 165.528 330.054 164.017 328.801C162.506 327.547 160.626 326.921 158.378 326.921C156.074 326.921 154.158 327.547 152.628 328.801C151.117 330.054 149.983 331.74 149.228 333.859C148.491 335.96 148.122 338.31 148.122 340.908C148.122 343.488 148.491 345.829 149.228 347.93C149.983 350.031 151.117 351.708 152.628 352.961C154.158 354.195 156.074 354.813 158.378 354.813ZM194.833 305.387V362H184.826V305.387H194.833ZM218.544 362.746C215.208 362.746 212.223 361.889 209.588 360.176C206.952 358.462 204.87 355.974 203.34 352.712C201.811 349.45 201.046 345.488 201.046 340.825C201.046 336.108 201.82 332.127 203.368 328.884C204.934 325.622 207.045 323.161 209.698 321.503C212.352 319.826 215.31 318.987 218.572 318.987C221.06 318.987 223.105 319.411 224.708 320.259C226.312 321.088 227.583 322.093 228.523 323.272C229.463 324.433 230.191 325.53 230.707 326.562H231.122V305.387H241.156V362H231.315V355.31H230.707C230.191 356.342 229.445 357.439 228.468 358.6C227.491 359.742 226.201 360.719 224.598 361.53C222.995 362.341 220.977 362.746 218.544 362.746ZM221.336 354.536C223.455 354.536 225.261 353.965 226.754 352.822C228.247 351.661 229.38 350.049 230.154 347.985C230.928 345.921 231.315 343.516 231.315 340.77C231.315 338.024 230.928 335.638 230.154 333.611C229.399 331.583 228.274 330.008 226.782 328.884C225.307 327.759 223.492 327.197 221.336 327.197C219.106 327.197 217.245 327.778 215.752 328.939C214.259 330.1 213.135 331.703 212.38 333.749C211.624 335.794 211.246 338.135 211.246 340.77C211.246 343.424 211.624 345.792 212.38 347.874C213.154 349.938 214.287 351.569 215.78 352.767C217.291 353.947 219.143 354.536 221.336 354.536ZM275.22 334.302V342.539H249.733V334.302H275.22ZM314.619 320.95C314.361 318.536 313.273 316.656 311.357 315.311C309.459 313.966 306.989 313.293 303.949 313.293C301.811 313.293 299.977 313.615 298.448 314.26C296.918 314.905 295.748 315.781 294.937 316.886C294.126 317.992 293.711 319.255 293.693 320.674C293.693 321.853 293.96 322.876 294.495 323.742C295.047 324.608 295.794 325.345 296.734 325.953C297.674 326.543 298.715 327.041 299.857 327.446C301 327.852 302.152 328.192 303.313 328.469L308.62 329.796C310.758 330.293 312.813 330.966 314.785 331.814C316.775 332.661 318.553 333.73 320.12 335.02C321.705 336.31 322.958 337.868 323.879 339.692C324.801 341.516 325.261 343.654 325.261 346.105C325.261 349.422 324.414 352.343 322.718 354.868C321.023 357.374 318.572 359.337 315.365 360.756C312.177 362.157 308.316 362.857 303.783 362.857C299.378 362.857 295.554 362.175 292.311 360.811C289.086 359.448 286.561 357.457 284.737 354.84C282.931 352.224 281.954 349.035 281.806 345.276H291.896C292.044 347.248 292.652 348.888 293.721 350.196C294.789 351.505 296.181 352.482 297.895 353.127C299.627 353.772 301.562 354.094 303.7 354.094C305.93 354.094 307.883 353.762 309.56 353.099C311.255 352.417 312.582 351.477 313.541 350.279C314.499 349.063 314.987 347.644 315.006 346.022C314.987 344.548 314.554 343.332 313.707 342.373C312.859 341.397 311.67 340.586 310.141 339.941C308.629 339.277 306.86 338.688 304.833 338.172L298.392 336.513C293.73 335.315 290.044 333.5 287.335 331.067C284.644 328.616 283.299 325.364 283.299 321.309C283.299 317.974 284.202 315.053 286.008 312.547C287.833 310.04 290.311 308.096 293.444 306.714C296.577 305.313 300.125 304.613 304.087 304.613C308.104 304.613 311.624 305.313 314.646 306.714C317.687 308.096 320.074 310.022 321.806 312.491C323.538 314.942 324.432 317.762 324.487 320.95H314.619ZM352.829 319.54V327.28H328.42V319.54H352.829ZM334.446 309.368H344.453V349.229C344.453 350.574 344.656 351.606 345.061 352.325C345.485 353.025 346.038 353.504 346.72 353.762C347.402 354.02 348.157 354.149 348.987 354.149C349.613 354.149 350.184 354.103 350.7 354.011C351.235 353.919 351.64 353.836 351.917 353.762L353.603 361.585C353.069 361.77 352.304 361.972 351.309 362.194C350.332 362.415 349.134 362.544 347.715 362.581C345.209 362.654 342.951 362.276 340.942 361.447C338.934 360.599 337.34 359.291 336.16 357.522C334.999 355.753 334.428 353.541 334.446 350.887V309.368ZM371.081 362.857C368.39 362.857 365.967 362.378 363.811 361.419C361.673 360.443 359.978 359.005 358.724 357.107C357.49 355.209 356.872 352.869 356.872 350.086C356.872 347.69 357.315 345.709 358.199 344.143C359.084 342.576 360.291 341.323 361.82 340.383C363.35 339.443 365.073 338.734 366.99 338.255C368.925 337.757 370.924 337.398 372.988 337.176C375.476 336.918 377.494 336.688 379.042 336.485C380.59 336.264 381.714 335.933 382.415 335.49C383.133 335.03 383.493 334.32 383.493 333.362V333.196C383.493 331.113 382.875 329.501 381.641 328.358C380.406 327.216 378.627 326.644 376.305 326.644C373.854 326.644 371.91 327.179 370.473 328.248C369.054 329.317 368.095 330.579 367.598 332.035L358.254 330.708C358.992 328.128 360.208 325.972 361.903 324.24C363.599 322.489 365.672 321.18 368.123 320.314C370.574 319.43 373.283 318.987 376.25 318.987C378.296 318.987 380.332 319.227 382.359 319.706C384.386 320.185 386.239 320.978 387.916 322.083C389.593 323.171 390.938 324.654 391.951 326.534C392.983 328.414 393.499 330.763 393.499 333.583V362H383.88V356.167H383.548C382.94 357.347 382.083 358.452 380.977 359.484C379.89 360.498 378.517 361.318 376.858 361.945C375.218 362.553 373.292 362.857 371.081 362.857ZM373.679 355.504C375.688 355.504 377.43 355.108 378.904 354.315C380.378 353.504 381.512 352.435 382.304 351.109C383.115 349.782 383.52 348.335 383.52 346.769V341.765C383.207 342.023 382.673 342.263 381.917 342.484C381.18 342.705 380.351 342.899 379.429 343.064C378.508 343.23 377.595 343.378 376.692 343.507C375.789 343.636 375.006 343.746 374.343 343.838C372.85 344.041 371.514 344.373 370.335 344.834C369.155 345.294 368.224 345.939 367.543 346.769C366.861 347.58 366.52 348.63 366.52 349.92C366.52 351.763 367.192 353.154 368.538 354.094C369.883 355.034 371.597 355.504 373.679 355.504ZM401.226 362V319.54H410.929V326.617H411.371C412.145 324.166 413.472 322.277 415.352 320.95C417.25 319.605 419.415 318.932 421.848 318.932C422.401 318.932 423.018 318.96 423.7 319.015C424.4 319.052 424.981 319.116 425.442 319.208V328.414C425.018 328.266 424.345 328.137 423.424 328.027C422.521 327.898 421.645 327.833 420.798 327.833C418.973 327.833 417.333 328.229 415.877 329.022C414.44 329.796 413.306 330.874 412.477 332.256C411.648 333.638 411.233 335.232 411.233 337.038V362H401.226ZM438.877 348.676L438.849 336.596H440.452L455.711 319.54H467.404L448.635 340.438H446.561L438.877 348.676ZM429.754 362V305.387H439.761V362H429.754ZM456.402 362L442.581 342.677L449.326 335.628L468.372 362H456.402Z" fill="url(#paint0_linear_365_11152)"/>
<g filter="url(#filter0_d_365_11152)">
<rect x="126.46" y="97.0491" width="165.079" height="165.083" rx="30.4522" fill="#0C0C4F" shape-rendering="crispEdges"/>
<rect x="130.702" y="101.293" width="156.595" height="156.595" rx="28.5" stroke="white"/>
<g clip-path="url(#clip4_365_11152)">
<path d="M159.198 235.826H231.311L222.792 223.483H211.992C211.992 223.483 201.309 222.536 200.773 210.26V166.389C200.773 166.389 201.903 154.582 212.869 154.582H260.408L252.09 139.489H200.941V123.355L183.835 129.326V139.522H168.943L165.689 146.532H183.969V210.997C183.969 210.997 183.885 224.933 167.584 223.474C166.074 225.638 159.198 235.826 159.198 235.826Z" fill="white"/>
<path d="M193.147 223.105C193.147 223.105 193.863 214.385 200.806 210.36V167.629C200.806 167.629 200.924 155.689 212.822 154.615H260.408L255.846 146.699H209.694C209.694 146.699 203.255 147.37 200.705 151.529V123.355L193.147 126.173V223.106V223.105Z" fill="#E8E8E8"/>
</g>
<path d="M223.222 194.13C223.222 208.886 234.881 220.848 249.263 220.848C263.645 220.848 275.304 208.885 275.304 194.13C275.304 179.374 263.645 167.412 249.263 167.412C234.881 167.412 223.222 179.374 223.222 194.13Z" fill="#0C0C4F" stroke="white" stroke-width="2.32273"/>
<path fill-rule="evenodd" clip-rule="evenodd" d="M237.478 187.672L238.138 185.581C238.272 185.156 238.599 184.825 239.015 184.694L241.062 184.048C241.346 183.96 241.348 183.549 241.067 183.456L239.028 182.779C238.615 182.642 238.293 182.306 238.165 181.879L237.536 179.779C237.449 179.488 237.049 179.485 236.958 179.775L236.299 181.865C236.165 182.29 235.838 182.62 235.422 182.752L233.374 183.397C233.091 183.487 233.087 183.896 233.369 183.99L235.408 184.666C235.821 184.804 236.144 185.14 236.272 185.567L236.901 187.667C236.987 187.958 237.387 187.961 237.478 187.672Z" fill="#FAFAFA"/>
<path fill-rule="evenodd" clip-rule="evenodd" d="M269.841 186.455C268.997 185.486 267.68 184.941 266.399 184.717C265.108 184.503 263.755 184.523 262.48 184.755C259.902 185.202 257.559 186.298 255.516 187.649C254.455 188.313 253.55 189.08 252.612 189.862C252.161 190.257 251.749 190.678 251.32 191.093L250.148 192.289C248.875 193.655 247.62 194.899 246.405 195.93C245.186 196.956 244.046 197.736 242.923 198.28C241.8 198.827 240.598 199.149 239.033 199.2C237.481 199.257 235.645 198.969 233.68 198.495C231.706 198.022 229.632 197.349 227.315 196.77C228.123 199.071 229.341 201.105 230.904 202.964C232.486 204.791 234.461 206.456 236.997 207.551C239.498 208.671 242.64 209.073 245.578 208.466C248.524 207.884 251.109 206.486 253.198 204.868C255.293 203.234 256.988 201.373 258.417 199.438C258.811 198.903 259.02 198.604 259.305 198.186L260.094 196.987C260.643 196.246 261.142 195.401 261.684 194.666C262.748 193.127 263.797 191.59 265.016 190.174C265.63 189.456 266.277 188.769 267.04 188.108C267.421 187.786 267.833 187.471 268.289 187.187C268.751 186.88 269.24 186.64 269.841 186.455Z" fill="url(#paint1_linear_365_11152)"/>
<path fill-rule="evenodd" clip-rule="evenodd" d="M269.841 186.454C268.935 184.107 267.249 182.13 264.986 180.672C262.737 179.23 259.614 178.494 256.518 179.121C254.989 179.425 253.507 180.009 252.208 180.787C250.913 181.562 249.754 182.495 248.75 183.495C248.248 183.997 247.793 184.521 247.342 185.048L246.17 186.58L244.361 189.047C242.054 192.22 239.57 195.94 235.494 197.042C231.493 198.124 229.757 197.166 227.315 196.77C227.761 197.953 228.315 199.101 229.064 200.112C229.8 201.143 230.67 202.111 231.75 202.942C232.297 203.34 232.873 203.734 233.514 204.068C234.151 204.39 234.838 204.674 235.572 204.887C237.032 205.298 238.675 205.442 240.266 205.221C241.858 205.003 243.38 204.485 244.71 203.798C246.049 203.117 247.217 202.288 248.259 201.413C250.33 199.647 251.942 197.697 253.303 195.726C253.987 194.74 254.609 193.736 255.184 192.731L255.86 191.535C256.067 191.186 256.276 190.834 256.488 190.507C257.346 189.19 258.184 188.135 259.202 187.343C260.206 186.53 261.605 185.93 263.473 185.791C265.334 185.649 267.482 185.91 269.841 186.454Z" fill="#FAFAFA"/>
<path fill-rule="evenodd" clip-rule="evenodd" d="M259.774 205.961C259.774 207.686 261.138 209.084 262.818 209.084C264.499 209.084 265.86 207.686 265.86 205.961C265.86 204.237 264.499 202.839 262.818 202.839C261.138 202.839 259.774 204.237 259.774 205.961Z" fill="url(#paint2_linear_365_11152)"/>
</g>
</g>
<defs>
<filter id="filter0_d_365_11152" x="54.0604" y="28.6491" width="309.879" height="309.883" filterUnits="userSpaceOnUse" color-interpolation-filters="sRGB">
<feFlood flood-opacity="0" result="BackgroundImageFix"/>
<feColorMatrix in="SourceAlpha" type="matrix" values="0 0 0 0 0 0 0 0 0 0 0 0 0 0 0 0 0 0 127 0" result="hardAlpha"/>
<feOffset dy="4"/>
<feGaussianBlur stdDeviation="36.2"/>
<feComposite in2="hardAlpha" operator="out"/>
<feColorMatrix type="matrix" values="0 0 0 0 0.30306 0 0 0 0 0.361138 0 0 0 0 1 0 0 0 0.59 0"/>
<feBlend mode="normal" in2="BackgroundImageFix" result="effect1_dropShadow_365_11152"/>
<feBlend mode="normal" in="SourceGraphic" in2="effect1_dropShadow_365_11152" result="shape"/>
</filter>
<linearGradient id="paint0_linear_365_11152" x1="209" y1="289" x2="209" y2="378" gradientUnits="userSpaceOnUse">
<stop stop-color="#7F60A6"/>
<stop offset="0.810589"/>
</linearGradient>
<linearGradient id="paint1_linear_365_11152" x1="269.614" y1="185.631" x2="231.737" y2="206.143" gradientUnits="userSpaceOnUse">
<stop stop-color="#EC796B"/>
<stop offset="1" stop-color="#E175B1"/>
</linearGradient>
<linearGradient id="paint2_linear_365_11152" x1="265.858" y1="203.771" x2="259.767" y2="204.399" gradientUnits="userSpaceOnUse">
<stop stop-color="#EC796B"/>
<stop offset="1" stop-color="#E175B1"/>
</linearGradient>
<clipPath id="clip0_365_11152">
<rect width="417" height="378" fill="white"/>
</clipPath>
<clipPath id="clip1_365_11152">
<rect width="520" height="485.908" fill="white" transform="translate(-51.5 0.259766)"/>
</clipPath>
<clipPath id="clip2_365_11152">
<rect width="520" height="485.824" fill="white" transform="translate(-51.5 0.259766)"/>
</clipPath>
<clipPath id="clip3_365_11152">
<rect width="520" height="515.873" fill="white" transform="translate(-51.5 -14.7644)"/>
</clipPath>
<clipPath id="clip4_365_11152">
<rect width="101.209" height="112.471" fill="white" transform="translate(159.198 123.355)"/>
</clipPath>
</defs>
</svg>
