<svg width="343" height="222" viewBox="0 0 343 222" fill="none" xmlns="http://www.w3.org/2000/svg">
<g clip-path="url(#clip0_373_12432)">
<rect width="343" height="222" fill="black"/>
<g clip-path="url(#clip1_373_12432)">
<g clip-path="url(#clip2_373_12432)">
<g clip-path="url(#clip3_373_12432)">
<path d="M466.502 10.3843V10.6422H-49.3711V10.3843H466.502Z" fill="#D387FF" fill-opacity="0.18"/>
<path d="M466.502 20.9597V21.2177H-49.3711V20.9597H466.502Z" fill="#D387FF" fill-opacity="0.18"/>
<path d="M466.502 31.5352V31.7931H-49.3711V31.5352H466.502Z" fill="#D387FF" fill-opacity="0.18"/>
<path d="M7.50391 -14.7644H7.76184V501.109H7.50391V-14.7644Z" fill="#D387FF" fill-opacity="0.18"/>
<path d="M466.502 42.1106V42.3685H-49.3711V42.1106H466.502Z" fill="#D387FF" fill-opacity="0.18"/>
<path d="M18.0793 -14.7644H18.3373V501.109H18.0793V-14.7644Z" fill="#D387FF" fill-opacity="0.18"/>
<path d="M466.502 52.6858V52.9437H-49.3711V52.6858H466.502Z" fill="#D387FF" fill-opacity="0.18"/>
<path d="M28.6548 -14.7644H28.9127V501.109H28.6548V-14.7644Z" fill="#D387FF" fill-opacity="0.18"/>
<path d="M466.502 63.2612V63.5192H-49.3711V63.2612H466.502Z" fill="#D387FF" fill-opacity="0.18"/>
<path d="M39.2302 -14.7644H39.4882V501.109H39.2302V-14.7644Z" fill="#D387FF" fill-opacity="0.18"/>
<path d="M466.502 73.8367V74.0946H-49.3711V73.8367H466.502Z" fill="#D387FF" fill-opacity="0.18"/>
<path d="M49.8057 -14.7644H50.0636V501.109H49.8057V-14.7644Z" fill="#D387FF" fill-opacity="0.18"/>
<path d="M466.502 84.4121V84.67H-49.3711V84.4121H466.502Z" fill="#D387FF" fill-opacity="0.18"/>
<path d="M60.3809 -14.7644H60.6388V501.109H60.3809V-14.7644Z" fill="#D387FF" fill-opacity="0.18"/>
<path d="M466.502 94.9873V95.2452H-49.3711V94.9873H466.502Z" fill="#D387FF" fill-opacity="0.18"/>
<path d="M70.9563 -14.7644H71.2142V501.109H70.9563V-14.7644Z" fill="#D387FF" fill-opacity="0.18"/>
<path d="M466.502 105.563V105.821H-49.3711V105.563H466.502Z" fill="#D387FF" fill-opacity="0.18"/>
<path d="M81.5317 -14.7644H81.7897V501.109H81.5317V-14.7644Z" fill="#D387FF" fill-opacity="0.18"/>
<path d="M466.502 116.138V116.396H-49.3711V116.138H466.502Z" fill="#D387FF" fill-opacity="0.18"/>
<path d="M92.1072 -14.7644H92.3651V501.109H92.1072V-14.7644Z" fill="#D387FF" fill-opacity="0.18"/>
<path d="M466.502 126.714V126.972H-49.3711V126.714H466.502Z" fill="#D387FF" fill-opacity="0.18"/>
<path d="M102.683 -14.7644H102.941V501.109H102.683V-14.7644Z" fill="#D387FF" fill-opacity="0.18"/>
<path d="M466.502 137.289V137.547H-49.3711V137.289H466.502Z" fill="#D387FF" fill-opacity="0.18"/>
<path d="M113.258 -14.7644H113.516V501.109H113.258V-14.7644Z" fill="#D387FF" fill-opacity="0.18"/>
<path d="M466.502 147.865V148.122H-49.3711V147.865H466.502Z" fill="#D387FF" fill-opacity="0.18"/>
<path d="M123.833 -14.7644H124.091V501.109H123.833V-14.7644Z" fill="#D387FF" fill-opacity="0.18"/>
<path d="M466.502 158.44V158.698H-49.3711V158.44H466.502Z" fill="#D387FF" fill-opacity="0.18"/>
<path d="M134.409 -14.7644H134.667V501.109H134.409V-14.7644Z" fill="#D387FF" fill-opacity="0.18"/>
<path d="M466.502 169.015V169.273H-49.3711V169.015H466.502Z" fill="#D387FF" fill-opacity="0.18"/>
<path d="M144.984 -14.7644H145.242V501.109H144.984V-14.7644Z" fill="#D387FF" fill-opacity="0.18"/>
<path d="M466.502 179.591V179.849H-49.3711V179.591H466.502Z" fill="#D387FF" fill-opacity="0.18"/>
<path d="M155.56 -14.7644H155.818V501.109H155.56V-14.7644Z" fill="#D387FF" fill-opacity="0.18"/>
<path d="M466.502 190.166V190.424H-49.3711V190.166H466.502Z" fill="#D387FF" fill-opacity="0.18"/>
<path d="M166.135 -14.7644H166.393V501.109H166.135V-14.7644Z" fill="#D387FF" fill-opacity="0.18"/>
<path d="M466.502 200.741V200.999H-49.3711V200.741H466.502Z" fill="#D387FF" fill-opacity="0.18"/>
<path d="M176.71 -14.7644H176.968V501.109H176.71V-14.7644Z" fill="#D387FF" fill-opacity="0.18"/>
<path d="M466.502 211.317V211.575H-49.3711V211.317H466.502Z" fill="#D387FF" fill-opacity="0.18"/>
<path d="M187.286 -14.7644H187.544V501.109H187.286V-14.7644Z" fill="#D387FF" fill-opacity="0.18"/>
<path d="M466.502 221.892V222.15H-49.3711V221.892H466.502Z" fill="#D387FF" fill-opacity="0.18"/>
<path d="M197.861 -14.7644H198.119V501.109H197.861V-14.7644Z" fill="#D387FF" fill-opacity="0.18"/>
<path d="M208.437 -14.7644H208.694V501.109H208.437V-14.7644Z" fill="#D387FF" fill-opacity="0.18"/>
<path d="M219.012 -14.7644H219.27V501.109H219.012V-14.7644Z" fill="#D387FF" fill-opacity="0.18"/>
<path d="M229.587 -14.7644H229.845V501.109H229.587V-14.7644Z" fill="#D387FF" fill-opacity="0.18"/>
<path d="M240.163 -14.7644H240.421V501.109H240.163V-14.7644Z" fill="#D387FF" fill-opacity="0.18"/>
<path d="M250.738 -14.7644H250.996V501.109H250.738V-14.7644Z" fill="#D387FF" fill-opacity="0.18"/>
<path d="M261.313 -14.7644H261.571V501.109H261.313V-14.7644Z" fill="#D387FF" fill-opacity="0.18"/>
<path d="M271.889 -14.7644H272.147V501.109H271.889V-14.7644Z" fill="#D387FF" fill-opacity="0.18"/>
<path d="M282.464 -14.7644H282.722V501.109H282.464V-14.7644Z" fill="#D387FF" fill-opacity="0.18"/>
<path d="M293.04 -14.7644H293.297V501.109H293.04V-14.7644Z" fill="#D387FF" fill-opacity="0.18"/>
<path d="M303.615 -14.7644H303.873V501.109H303.615V-14.7644Z" fill="#D387FF" fill-opacity="0.18"/>
<path d="M314.19 -14.7644H314.448V501.109H314.19V-14.7644Z" fill="#D387FF" fill-opacity="0.18"/>
<path d="M324.766 -14.7644H325.024V501.109H324.766V-14.7644Z" fill="#D387FF" fill-opacity="0.18"/>
<path d="M335.341 -14.7644H335.599V501.109H335.341V-14.7644Z" fill="#D387FF" fill-opacity="0.18"/>
</g>
</g>
</g>
<path opacity="0.3" d="M25.2846 179.594C25.1159 178.016 24.4048 176.786 23.1514 175.907C21.9101 175.027 20.2951 174.587 18.3066 174.587C16.9086 174.587 15.7094 174.798 14.7091 175.22C13.7088 175.641 12.9435 176.214 12.4132 176.937C11.8829 177.66 11.6118 178.486 11.5997 179.414C11.5997 180.185 11.7745 180.854 12.124 181.42C12.4855 181.987 12.9736 182.469 13.5883 182.867C14.2029 183.252 14.8838 183.578 15.6311 183.843C16.3783 184.108 17.1315 184.331 17.8908 184.512L21.3617 185.379C22.7597 185.705 24.1035 186.145 25.3931 186.699C26.6947 187.253 27.8577 187.952 28.8821 188.796C29.9185 189.64 30.7381 190.658 31.3406 191.851C31.9432 193.044 32.2445 194.442 32.2445 196.045C32.2445 198.215 31.6901 200.125 30.5814 201.776C29.4726 203.415 27.8697 204.698 25.7727 205.626C23.6877 206.542 21.1629 207 18.1981 207C15.3177 207 12.817 206.554 10.6958 205.663C8.58675 204.771 6.93565 203.469 5.74251 201.758C4.56143 200.046 3.92268 197.961 3.82627 195.503H10.4247C10.5211 196.792 10.9188 197.865 11.6178 198.721C12.3168 199.576 13.2267 200.215 14.3475 200.637C15.4804 201.059 16.7459 201.27 18.1439 201.27C19.6021 201.27 20.8796 201.053 21.9764 200.619C23.0851 200.173 23.9529 199.558 24.5796 198.775C25.2063 197.98 25.5256 197.052 25.5377 195.991C25.5256 195.027 25.2424 194.231 24.688 193.605C24.1336 192.966 23.3563 192.436 22.356 192.014C21.3677 191.58 20.2108 191.194 18.8851 190.857L14.6729 189.772C11.6238 188.989 9.21345 187.802 7.44182 186.211C5.68225 184.608 4.80247 182.481 4.80247 179.829C4.80247 177.648 5.39301 175.738 6.57409 174.099C7.76722 172.46 9.3882 171.188 11.437 170.284C13.4858 169.368 15.8058 168.91 18.397 168.91C21.0243 168.91 23.3262 169.368 25.3027 170.284C27.2912 171.188 28.8519 172.448 29.9848 174.063C31.1177 175.666 31.7022 177.509 31.7384 179.594H25.2846ZM48.5194 206.982C45.7475 206.982 43.3672 206.374 41.3787 205.156C39.4022 203.939 37.8776 202.258 36.805 200.113C35.7445 197.955 35.2142 195.473 35.2142 192.665C35.2142 189.845 35.7565 187.356 36.8412 185.199C37.9258 183.029 39.4564 181.342 41.4329 180.137C43.4215 178.92 45.7716 178.311 48.4833 178.311C50.737 178.311 52.7315 178.727 54.467 179.558C56.2145 180.378 57.6065 181.541 58.643 183.047C59.6794 184.542 60.27 186.289 60.4146 188.29H54.1597C53.9066 186.952 53.304 185.837 52.3519 184.945C51.4119 184.042 50.1524 183.59 48.5736 183.59C47.2359 183.59 46.0608 183.951 45.0485 184.674C44.0361 185.385 43.2467 186.41 42.6803 187.748C42.1259 189.085 41.8487 190.688 41.8487 192.556C41.8487 194.448 42.1259 196.075 42.6803 197.437C43.2347 198.787 44.012 199.83 45.0123 200.565C46.0247 201.288 47.2118 201.649 48.5736 201.649C49.5378 201.649 50.3995 201.469 51.1588 201.107C51.9301 200.733 52.5749 200.197 53.0931 199.498C53.6113 198.799 53.9669 197.949 54.1597 196.949H60.4146C60.2579 198.914 59.6794 200.655 58.6791 202.174C57.6788 203.68 56.317 204.861 54.5935 205.717C52.8701 206.56 50.8454 206.982 48.5194 206.982ZM72.2514 207C70.4918 207 68.907 206.687 67.4969 206.06C66.0989 205.422 64.9901 204.482 64.1706 203.24C63.3631 201.999 62.9594 200.468 62.9594 198.648C62.9594 197.082 63.2486 195.786 63.8271 194.762C64.4056 193.737 65.195 192.918 66.1953 192.303C67.1956 191.688 68.3225 191.224 69.5759 190.911C70.8413 190.586 72.1489 190.351 73.4987 190.206C75.1257 190.037 76.4454 189.887 77.4578 189.754C78.4701 189.61 79.2053 189.393 79.6633 189.103C80.1333 188.802 80.3683 188.338 80.3683 187.711V187.603C80.3683 186.241 79.9646 185.187 79.1571 184.439C78.3496 183.692 77.1866 183.318 75.6681 183.318C74.0652 183.318 72.7937 183.668 71.8537 184.367C70.9257 185.066 70.299 185.892 69.9736 186.844L63.8633 185.976C64.3454 184.289 65.1408 182.879 66.2496 181.746C67.3583 180.601 68.7142 179.745 70.3171 179.179C71.92 178.6 73.6916 178.311 75.6319 178.311C76.9697 178.311 78.3014 178.468 79.6271 178.781C80.9528 179.094 82.164 179.613 83.2607 180.336C84.3575 181.047 85.2372 182.017 85.9001 183.246C86.575 184.475 86.9125 186.012 86.9125 187.856V206.44H80.6214V202.626H80.4045C80.0067 203.397 79.4463 204.12 78.7232 204.795C78.0122 205.458 77.1143 205.994 76.0296 206.404C74.957 206.801 73.6976 207 72.2514 207ZM73.9507 202.192C75.2643 202.192 76.4032 201.933 77.3674 201.414C78.3315 200.884 79.0727 200.185 79.591 199.317C80.1212 198.45 80.3864 197.503 80.3864 196.479V193.207C80.1815 193.376 79.832 193.532 79.3379 193.677C78.8558 193.822 78.3135 193.948 77.7109 194.057C77.1083 194.165 76.5117 194.262 75.9212 194.346C75.3306 194.43 74.8184 194.503 74.3846 194.563C73.4084 194.695 72.5346 194.912 71.7633 195.214C70.992 195.515 70.3833 195.937 69.9374 196.479C69.4915 197.009 69.2685 197.696 69.2685 198.54C69.2685 199.745 69.7084 200.655 70.5882 201.27C71.468 201.884 72.5888 202.192 73.9507 202.192ZM106.03 178.672V183.734H89.6154V178.672H106.03ZM93.7191 206.44V176.051C93.7191 174.183 94.1048 172.628 94.8761 171.387C95.6594 170.146 96.708 169.218 98.0216 168.603C99.3353 167.989 100.794 167.681 102.396 167.681C103.529 167.681 104.536 167.772 105.415 167.952C106.295 168.133 106.946 168.296 107.368 168.44L106.066 173.502C105.789 173.418 105.44 173.334 105.018 173.249C104.596 173.153 104.126 173.105 103.608 173.105C102.39 173.105 101.529 173.4 101.023 173.99C100.528 174.569 100.281 175.4 100.281 176.485V206.44H93.7191ZM123.692 178.672V183.734H107.278V178.672H123.692ZM111.381 206.44V176.051C111.381 174.183 111.767 172.628 112.538 171.387C113.322 170.146 114.37 169.218 115.684 168.603C116.998 167.989 118.456 167.681 120.059 167.681C121.192 167.681 122.198 167.772 123.078 167.952C123.958 168.133 124.608 168.296 125.03 168.44L123.729 173.502C123.451 173.418 123.102 173.334 122.68 173.249C122.258 173.153 121.788 173.105 121.27 173.105C120.053 173.105 119.191 173.4 118.685 173.99C118.191 174.569 117.944 175.4 117.944 176.485V206.44H111.381ZM138.358 206.982C135.647 206.982 133.297 206.386 131.308 205.193C129.319 203.999 127.777 202.33 126.68 200.185C125.595 198.04 125.053 195.533 125.053 192.665C125.053 189.796 125.595 187.284 126.68 185.126C127.777 182.969 129.319 181.294 131.308 180.101C133.297 178.907 135.647 178.311 138.358 178.311C141.07 178.311 143.42 178.907 145.409 180.101C147.397 181.294 148.934 182.969 150.019 185.126C151.115 187.284 151.664 189.796 151.664 192.665C151.664 195.533 151.115 198.04 150.019 200.185C148.934 202.33 147.397 203.999 145.409 205.193C143.42 206.386 141.07 206.982 138.358 206.982ZM138.395 201.74C139.865 201.74 141.094 201.336 142.082 200.529C143.071 199.709 143.806 198.612 144.288 197.238C144.782 195.864 145.029 194.334 145.029 192.647C145.029 190.947 144.782 189.411 144.288 188.037C143.806 186.651 143.071 185.548 142.082 184.729C141.094 183.909 139.865 183.499 138.395 183.499C136.888 183.499 135.635 183.909 134.634 184.729C133.646 185.548 132.905 186.651 132.411 188.037C131.929 189.411 131.688 190.947 131.688 192.647C131.688 194.334 131.929 195.864 132.411 197.238C132.905 198.612 133.646 199.709 134.634 200.529C135.635 201.336 136.888 201.74 138.395 201.74ZM162.235 169.417V206.44H155.691V169.417H162.235ZM177.742 206.928C175.56 206.928 173.608 206.368 171.884 205.247C170.161 204.126 168.799 202.499 167.799 200.366C166.798 198.233 166.298 195.641 166.298 192.592C166.298 189.507 166.804 186.904 167.817 184.783C168.841 182.65 170.221 181.041 171.957 179.956C173.692 178.859 175.626 178.311 177.76 178.311C179.387 178.311 180.724 178.588 181.773 179.142C182.821 179.685 183.653 180.342 184.268 181.113C184.882 181.872 185.358 182.589 185.696 183.264H185.967V169.417H192.529V206.44H186.093V202.065H185.696C185.358 202.74 184.87 203.457 184.231 204.216C183.593 204.964 182.749 205.602 181.701 206.133C180.652 206.663 179.332 206.928 177.742 206.928ZM179.567 201.559C180.953 201.559 182.134 201.185 183.111 200.438C184.087 199.679 184.828 198.624 185.334 197.275C185.84 195.925 186.093 194.352 186.093 192.556C186.093 190.76 185.84 189.2 185.334 187.874C184.84 186.548 184.105 185.518 183.129 184.783C182.165 184.048 180.977 183.68 179.567 183.68C178.109 183.68 176.892 184.06 175.916 184.819C174.939 185.578 174.204 186.627 173.71 187.964C173.216 189.302 172.969 190.833 172.969 192.556C172.969 194.292 173.216 195.84 173.71 197.202C174.216 198.552 174.958 199.619 175.934 200.402C176.922 201.173 178.133 201.559 179.567 201.559ZM214.806 188.326V193.713H198.138V188.326H214.806ZM240.572 179.594C240.403 178.016 239.692 176.786 238.438 175.907C237.197 175.027 235.582 174.587 233.594 174.587C232.196 174.587 230.996 174.798 229.996 175.22C228.996 175.641 228.23 176.214 227.7 176.937C227.17 177.66 226.899 178.486 226.887 179.414C226.887 180.185 227.061 180.854 227.411 181.42C227.772 181.987 228.261 182.469 228.875 182.867C229.49 183.252 230.171 183.578 230.918 183.843C231.665 184.108 232.418 184.331 233.178 184.512L236.649 185.379C238.047 185.705 239.39 186.145 240.68 186.699C241.982 187.253 243.145 187.952 244.169 188.796C245.205 189.64 246.025 190.658 246.628 191.851C247.23 193.044 247.532 194.442 247.532 196.045C247.532 198.215 246.977 200.125 245.868 201.776C244.76 203.415 243.157 204.698 241.06 205.626C238.975 206.542 236.45 207 233.485 207C230.605 207 228.104 206.554 225.983 205.663C223.874 204.771 222.223 203.469 221.029 201.758C219.848 200.046 219.21 197.961 219.113 195.503H225.712C225.808 196.792 226.206 197.865 226.905 198.721C227.604 199.576 228.514 200.215 229.635 200.637C230.767 201.059 232.033 201.27 233.431 201.27C234.889 201.27 236.167 201.053 237.263 200.619C238.372 200.173 239.24 199.558 239.867 198.775C240.493 197.98 240.813 197.052 240.825 195.991C240.813 195.027 240.529 194.231 239.975 193.605C239.421 192.966 238.643 192.436 237.643 192.014C236.655 191.58 235.498 191.194 234.172 190.857L229.96 189.772C226.911 188.989 224.5 187.802 222.729 186.211C220.969 184.608 220.089 182.481 220.089 179.829C220.089 177.648 220.68 175.738 221.861 174.099C223.054 172.46 224.675 171.188 226.724 170.284C228.773 169.368 231.093 168.91 233.684 168.91C236.311 168.91 238.613 169.368 240.59 170.284C242.578 171.188 244.139 172.448 245.272 174.063C246.405 175.666 246.989 177.509 247.025 179.594H240.572ZM265.56 178.672V183.734H249.597V178.672H265.56ZM253.538 172.02H260.082V198.088C260.082 198.968 260.215 199.643 260.48 200.113C260.757 200.571 261.119 200.884 261.565 201.053C262.011 201.221 262.505 201.306 263.047 201.306C263.457 201.306 263.83 201.276 264.168 201.215C264.517 201.155 264.783 201.101 264.963 201.053L266.066 206.169C265.717 206.289 265.216 206.422 264.566 206.566C263.927 206.711 263.144 206.795 262.216 206.82C260.576 206.868 259.1 206.621 257.786 206.078C256.473 205.524 255.43 204.668 254.659 203.511C253.9 202.354 253.526 200.908 253.538 199.173V172.02ZM277.496 207C275.737 207 274.152 206.687 272.742 206.06C271.344 205.422 270.235 204.482 269.415 203.24C268.608 201.999 268.204 200.468 268.204 198.648C268.204 197.082 268.493 195.786 269.072 194.762C269.65 193.737 270.44 192.918 271.44 192.303C272.44 191.688 273.567 191.224 274.821 190.911C276.086 190.586 277.394 190.351 278.744 190.206C280.371 190.037 281.69 189.887 282.703 189.754C283.715 189.61 284.45 189.393 284.908 189.103C285.378 188.802 285.613 188.338 285.613 187.711V187.603C285.613 186.241 285.209 185.187 284.402 184.439C283.594 183.692 282.431 183.318 280.913 183.318C279.31 183.318 278.038 183.668 277.098 184.367C276.17 185.066 275.544 185.892 275.218 186.844L269.108 185.976C269.59 184.289 270.386 182.879 271.494 181.746C272.603 180.601 273.959 179.745 275.562 179.179C277.165 178.6 278.936 178.311 280.877 178.311C282.214 178.311 283.546 178.468 284.872 178.781C286.198 179.094 287.409 179.613 288.506 180.336C289.602 181.047 290.482 182.017 291.145 183.246C291.82 184.475 292.157 186.012 292.157 187.856V206.44H285.866V202.626H285.649C285.252 203.397 284.691 204.12 283.968 204.795C283.257 205.458 282.359 205.994 281.274 206.404C280.202 206.801 278.942 207 277.496 207ZM279.195 202.192C280.509 202.192 281.648 201.933 282.612 201.414C283.576 200.884 284.318 200.185 284.836 199.317C285.366 198.45 285.631 197.503 285.631 196.479V193.207C285.426 193.376 285.077 193.532 284.583 193.677C284.101 193.822 283.558 193.948 282.956 194.057C282.353 194.165 281.756 194.262 281.166 194.346C280.575 194.43 280.063 194.503 279.629 194.563C278.653 194.695 277.779 194.912 277.008 195.214C276.237 195.515 275.628 195.937 275.182 196.479C274.736 197.009 274.513 197.696 274.513 198.54C274.513 199.745 274.953 200.655 275.833 201.27C276.713 201.884 277.834 202.192 279.195 202.192ZM297.21 206.44V178.672H303.556V183.3H303.845C304.351 181.697 305.219 180.462 306.448 179.594C307.689 178.715 309.105 178.275 310.696 178.275C311.058 178.275 311.462 178.293 311.908 178.329C312.366 178.353 312.745 178.395 313.046 178.456V184.475C312.769 184.379 312.329 184.295 311.727 184.222C311.136 184.138 310.564 184.096 310.009 184.096C308.816 184.096 307.744 184.355 306.792 184.873C305.851 185.379 305.11 186.084 304.568 186.988C304.026 187.892 303.754 188.935 303.754 190.116V206.44H297.21ZM321.833 197.726L321.815 189.826H322.863L332.842 178.672H340.489L328.214 192.339H326.858L321.833 197.726ZM315.867 206.44V169.417H322.411V206.44H315.867ZM333.294 206.44L324.255 193.804L328.666 189.194L341.122 206.44H333.294Z" fill="url(#paint0_linear_373_12432)"/>
<g filter="url(#filter0_d_373_12432)">
<rect x="122.493" y="37.9736" width="99.3133" height="99.3155" rx="18.3203" fill="#0C0C4F" shape-rendering="crispEdges"/>
<rect x="125.045" y="40.5269" width="94.2092" height="94.2092" rx="17.1459" stroke="white" stroke-width="0.601609"/>
<g clip-path="url(#clip4_373_12432)">
<path d="M142.188 121.463H185.572L180.447 114.038H173.949C173.949 114.038 167.523 113.468 167.2 106.082V79.6892C167.2 79.6892 167.88 72.5863 174.477 72.5863H203.077L198.073 63.5059H167.301V53.7998L157.01 57.3917V63.5259H148.051L146.093 67.7431H157.09V106.526C157.09 106.526 157.04 114.91 147.233 114.032C146.325 115.334 142.188 121.463 142.188 121.463Z" fill="white"/>
<path d="M162.612 113.81C162.612 113.81 163.043 108.564 167.22 106.142V80.4353C167.22 80.4353 167.291 73.252 174.449 72.6059H203.077L200.332 67.8438H172.567C172.567 67.8438 168.693 68.2472 167.159 70.7496V53.7998L162.612 55.495V113.811V113.81Z" fill="#E8E8E8"/>
</g>
<path d="M180.706 96.3784C180.706 105.256 187.72 112.452 196.372 112.452C205.024 112.452 212.038 105.256 212.038 96.3784C212.038 87.501 205.024 80.3047 196.372 80.3047C187.72 80.3047 180.706 87.501 180.706 96.3784Z" fill="#0C0C4F" stroke="white" stroke-width="1.39738"/>
<path fill-rule="evenodd" clip-rule="evenodd" d="M189.282 92.493L189.679 91.2353C189.76 90.9794 189.956 90.7804 190.207 90.7019L191.438 90.3133C191.609 90.2598 191.61 90.013 191.441 89.9568L190.215 89.5496C189.966 89.4669 189.772 89.265 189.695 89.0082L189.317 87.7444C189.265 87.5699 189.024 87.568 188.969 87.742L188.572 88.9998C188.492 89.2551 188.295 89.4542 188.045 89.5331L186.813 89.9213C186.642 89.9752 186.641 90.2215 186.81 90.2778L188.037 90.6849C188.285 90.7676 188.479 90.97 188.556 91.2268L188.935 92.4901C188.987 92.6651 189.227 92.667 189.282 92.493Z" fill="#FAFAFA"/>
<path fill-rule="evenodd" clip-rule="evenodd" d="M208.752 91.7612C208.245 91.1785 207.452 90.8505 206.682 90.716C205.905 90.5868 205.091 90.5988 204.324 90.7385C202.773 91.0077 201.363 91.6668 200.134 92.4799C199.496 92.8789 198.951 93.3406 198.387 93.8109C198.115 94.0487 197.868 94.302 197.61 94.5516L196.905 95.2713C196.139 96.0929 195.384 96.8412 194.653 97.4615C193.92 98.0789 193.234 98.5478 192.558 98.8753C191.882 99.2044 191.16 99.398 190.218 99.429C189.284 99.4628 188.179 99.2899 186.998 99.0045C185.81 98.7204 184.562 98.3154 183.168 97.9669C183.654 99.3515 184.387 100.575 185.327 101.694C186.279 102.793 187.467 103.794 188.993 104.453C190.498 105.126 192.388 105.368 194.155 105.004C195.927 104.653 197.483 103.812 198.74 102.839C200 101.856 201.02 100.736 201.879 99.572C202.117 99.2504 202.242 99.0703 202.414 98.819L202.889 98.0976C203.218 97.6514 203.519 97.1434 203.845 96.7013C204.485 95.7755 205.116 94.8507 205.85 93.9987C206.219 93.5666 206.608 93.1532 207.067 92.756C207.296 92.5621 207.544 92.3723 207.818 92.2014C208.097 92.017 208.39 91.8727 208.752 91.7612Z" fill="url(#paint1_linear_373_12432)"/>
<path fill-rule="evenodd" clip-rule="evenodd" d="M208.752 91.7606C208.207 90.3482 207.193 89.1593 205.831 88.282C204.478 87.4143 202.599 86.9715 200.737 87.3489C199.817 87.5315 198.926 87.8829 198.144 88.351C197.365 88.8172 196.667 89.3783 196.063 89.9803C195.762 90.2823 195.488 90.5974 195.216 90.9142L194.512 91.8361L193.423 93.3201C192.035 95.2294 190.541 97.467 188.089 98.1301C185.681 98.781 184.637 98.2045 183.168 97.9664C183.437 98.678 183.77 99.3691 184.221 99.9771C184.663 100.597 185.186 101.18 185.837 101.68C186.165 101.919 186.512 102.156 186.897 102.357C187.281 102.551 187.694 102.722 188.136 102.85C189.014 103.097 190.003 103.184 190.96 103.051C191.918 102.92 192.833 102.608 193.633 102.195C194.439 101.785 195.141 101.286 195.768 100.76C197.014 99.6976 197.984 98.5243 198.803 97.3383C199.215 96.7453 199.588 96.1412 199.934 95.5368L200.341 94.8173C200.466 94.607 200.591 94.3954 200.719 94.1984C201.235 93.4066 201.739 92.7717 202.352 92.2951C202.956 91.8063 203.797 91.4451 204.921 91.3612C206.041 91.2763 207.333 91.4331 208.752 91.7606Z" fill="#FAFAFA"/>
<path fill-rule="evenodd" clip-rule="evenodd" d="M202.696 103.496C202.696 104.534 203.516 105.375 204.527 105.375C205.538 105.375 206.357 104.534 206.357 103.496C206.357 102.459 205.538 101.617 204.527 101.617C203.516 101.617 202.696 102.459 202.696 103.496Z" fill="url(#paint2_linear_373_12432)"/>
</g>
</g>
<defs>
<filter id="filter0_d_373_12432" x="78.9364" y="-3.17644" width="186.426" height="186.428" filterUnits="userSpaceOnUse" color-interpolation-filters="sRGB">
<feFlood flood-opacity="0" result="BackgroundImageFix"/>
<feColorMatrix in="SourceAlpha" type="matrix" values="0 0 0 0 0 0 0 0 0 0 0 0 0 0 0 0 0 0 127 0" result="hardAlpha"/>
<feOffset dy="2.40644"/>
<feGaussianBlur stdDeviation="21.7783"/>
<feComposite in2="hardAlpha" operator="out"/>
<feColorMatrix type="matrix" values="0 0 0 0 0.30306 0 0 0 0 0.361138 0 0 0 0 1 0 0 0 0.59 0"/>
<feBlend mode="normal" in2="BackgroundImageFix" result="effect1_dropShadow_373_12432"/>
<feBlend mode="normal" in="SourceGraphic" in2="effect1_dropShadow_373_12432" result="shape"/>
</filter>
<linearGradient id="paint0_linear_373_12432" x1="171.5" y1="158.44" x2="171.5" y2="216.44" gradientUnits="userSpaceOnUse">
<stop stop-color="#7F60A6"/>
<stop offset="0.810589" stop-color="#232323"/>
</linearGradient>
<linearGradient id="paint1_linear_373_12432" x1="208.616" y1="91.2655" x2="185.829" y2="103.606" gradientUnits="userSpaceOnUse">
<stop stop-color="#EC796B"/>
<stop offset="1" stop-color="#E175B1"/>
</linearGradient>
<linearGradient id="paint2_linear_373_12432" x1="206.356" y1="102.178" x2="202.691" y2="102.556" gradientUnits="userSpaceOnUse">
<stop stop-color="#EC796B"/>
<stop offset="1" stop-color="#E175B1"/>
</linearGradient>
<clipPath id="clip0_373_12432">
<rect width="343" height="222" fill="white"/>
</clipPath>
<clipPath id="clip1_373_12432">
<rect width="520" height="399.908" fill="white" transform="translate(-49.5 0.259766)"/>
</clipPath>
<clipPath id="clip2_373_12432">
<rect width="520" height="485.824" fill="white" transform="translate(-49.5 0.259766)"/>
</clipPath>
<clipPath id="clip3_373_12432">
<rect width="520" height="515.873" fill="white" transform="translate(-49.5 -14.7644)"/>
</clipPath>
<clipPath id="clip4_373_12432">
<rect width="60.8885" height="67.6634" fill="white" transform="translate(142.188 53.7998)"/>
</clipPath>
</defs>
</svg>
