<svg width="45" height="45" viewBox="0 0 45 45" fill="none" xmlns="http://www.w3.org/2000/svg">
<rect x="0.970398" y="0.948364" width="44" height="44.001" rx="8.11668" fill="#7446FF"/>
<g clip-path="url(#clip0_455_819)">
<path d="M9.69635 37.9377H28.9172L26.6464 34.6478H23.7678C23.7678 34.6478 20.9204 34.3953 20.7775 31.1234V19.43C20.7775 19.43 21.0787 16.2831 24.0015 16.2831H36.6727L34.4555 12.2601H20.8223V7.95993L16.2629 9.55127V12.269H12.2936L11.4264 14.1374H16.2985V31.3198C16.2985 31.3198 16.2762 35.0343 11.9314 34.6455C11.529 35.2222 9.69635 37.9377 9.69635 37.9377Z" fill="white"/>
<path d="M18.7451 34.5471C18.7451 34.5471 18.9359 32.2228 20.7864 31.1499V19.7606C20.7864 19.7606 20.8179 16.578 23.9892 16.2918H36.6726L35.4567 14.182H23.1555C23.1555 14.182 21.4391 14.3607 20.7596 15.4694V7.95992L18.7451 8.71094V34.5473V34.5471Z" fill="#E8E8E8"/>
</g>
<path d="M26.7611 26.8241C26.7611 30.7571 29.8685 33.9454 33.7019 33.9454C37.5352 33.9454 40.6428 30.757 40.6428 26.8241C40.6428 22.891 37.5352 19.7028 33.7019 19.7028C29.8685 19.7028 26.7611 22.891 26.7611 26.8241Z" fill="#0C0C4F" stroke="white" stroke-width="0.619097"/>
<path fill-rule="evenodd" clip-rule="evenodd" d="M30.5609 25.1027L30.7366 24.5455C30.7724 24.4322 30.8596 24.344 30.9704 24.3092L31.5162 24.137C31.5917 24.1133 31.5923 24.004 31.5174 23.9791L30.9741 23.7987C30.8638 23.7621 30.7779 23.6726 30.7438 23.5588L30.5762 22.9989C30.5531 22.9216 30.4465 22.9208 30.4222 22.9979L30.2464 23.5551C30.2107 23.6682 30.1236 23.7564 30.0127 23.7914L29.4669 23.9634C29.3914 23.9872 29.3905 24.0964 29.4657 24.1213L30.009 24.3017C30.1192 24.3383 30.2052 24.428 30.2393 24.5417L30.4069 25.1015C30.43 25.179 30.5366 25.1798 30.5609 25.1027Z" fill="#FAFAFA"/>
<path fill-rule="evenodd" clip-rule="evenodd" d="M39.1869 24.7785C38.9619 24.5203 38.6108 24.375 38.2694 24.3154C37.9254 24.2582 37.5645 24.2635 37.2249 24.3254C36.5376 24.4447 35.9132 24.7367 35.3685 25.0969C35.0858 25.2737 34.8446 25.4782 34.5947 25.6866C34.4742 25.7919 34.3645 25.9041 34.2502 26.0147L33.9378 26.3336C33.5984 26.6976 33.2639 27.0292 32.9402 27.304C32.6153 27.5775 32.3114 27.7852 32.012 27.9303C31.7127 28.0762 31.3925 28.1619 30.9752 28.1757C30.5615 28.1906 30.0721 28.114 29.5486 27.9876C29.0223 27.8617 28.4695 27.6823 27.8519 27.5279C28.0674 28.1413 28.3919 28.6834 28.8086 29.1789C29.2301 29.6659 29.7566 30.1096 30.4327 30.4015C31.0992 30.6999 31.9367 30.807 32.7197 30.6454C33.5049 30.4903 34.1939 30.1176 34.7509 29.6864C35.3092 29.2509 35.761 28.7548 36.1418 28.239C36.2469 28.0965 36.3026 28.0167 36.3786 27.9054L36.5889 27.5858C36.7351 27.3881 36.8681 27.163 37.0127 26.9672C37.2963 26.557 37.5759 26.1473 37.9008 25.7698C38.0643 25.5783 38.2367 25.3952 38.4403 25.2192C38.5417 25.1333 38.6515 25.0492 38.773 24.9735C38.8963 24.8918 39.0265 24.8279 39.1869 24.7785Z" fill="url(#paint0_linear_455_819)"/>
<path fill-rule="evenodd" clip-rule="evenodd" d="M39.1869 24.7784C38.9452 24.1526 38.4959 23.6259 37.8927 23.2372C37.2933 22.8528 36.4608 22.6566 35.6357 22.8238C35.2282 22.9047 34.8333 23.0604 34.4868 23.2678C34.1418 23.4743 33.8327 23.7229 33.5651 23.9897C33.4315 24.1234 33.3102 24.263 33.1898 24.4034L32.8776 24.8118L32.3953 25.4693C31.7806 26.3152 31.1185 27.3066 30.032 27.6003C28.9655 27.8887 28.5029 27.6333 27.8519 27.5278C27.9709 27.8431 28.1184 28.1493 28.3183 28.4187C28.5144 28.6935 28.7461 28.9516 29.0341 29.1729C29.1797 29.2792 29.3334 29.384 29.5041 29.473C29.6741 29.5589 29.8572 29.6346 30.0528 29.6915C30.4419 29.8009 30.8799 29.8392 31.304 29.7803C31.7283 29.7223 32.1338 29.5844 32.4884 29.4012C32.8454 29.2196 33.1565 28.9986 33.4343 28.7653C33.9864 28.2948 34.4159 27.775 34.7786 27.2496C34.9612 26.9868 35.1268 26.7192 35.28 26.4514L35.4603 26.1327C35.5154 26.0395 35.5712 25.9457 35.6278 25.8584C35.8563 25.5076 36.0797 25.2263 36.3512 25.0152C36.6188 24.7986 36.9915 24.6386 37.4895 24.6014C37.9855 24.5638 38.5581 24.6333 39.1869 24.7784Z" fill="#FAFAFA"/>
<path fill-rule="evenodd" clip-rule="evenodd" d="M36.5036 29.9777C36.5036 30.4373 36.867 30.8101 37.3149 30.8101C37.7629 30.8101 38.1257 30.4373 38.1257 29.9777C38.1257 29.5181 37.7629 29.1453 37.3149 29.1453C36.867 29.1453 36.5036 29.5181 36.5036 29.9777Z" fill="url(#paint1_linear_455_819)"/>
<defs>
<linearGradient id="paint0_linear_455_819" x1="39.1263" y1="24.5589" x2="29.0307" y2="30.0261" gradientUnits="userSpaceOnUse">
<stop stop-color="#EC796B"/>
<stop offset="1" stop-color="#E175B1"/>
</linearGradient>
<linearGradient id="paint1_linear_455_819" x1="38.1252" y1="29.3938" x2="36.5016" y2="29.5612" gradientUnits="userSpaceOnUse">
<stop stop-color="#EC796B"/>
<stop offset="1" stop-color="#E175B1"/>
</linearGradient>
<clipPath id="clip0_455_819">
<rect width="26.9762" height="29.9778" fill="white" transform="translate(9.69635 7.95993)"/>
</clipPath>
</defs>
</svg>
