<svg xmlns="http://www.w3.org/2000/svg" width="30" height="24" viewBox="0 0 30 24" fill="none">
  <path d="M26.8325 0.211879C26.8325 0.211879 29.5461 -0.826978 29.3199 1.69596C29.2446 2.73483 28.5662 6.37083 28.0386 10.3037L26.2295 21.9537C26.2295 21.9537 26.0788 23.6604 24.722 23.9573C23.3652 24.254 21.3301 22.9184 20.9532 22.6216C20.6517 22.399 15.3 19.0598 13.4155 17.4273C12.8879 16.982 12.2849 16.0916 13.4909 15.0527L21.4055 7.63234C22.31 6.74187 23.2145 4.66416 19.4456 7.1871L8.89297 14.2365C8.89297 14.2365 7.68695 14.9785 5.42569 14.3107L0.526199 12.8266C0.526199 12.8266 -1.28284 11.7136 1.8076 10.6004C9.34526 7.11284 18.6166 3.55104 26.8325 0.211879Z" fill="white"/>
</svg>