
<svg width="1920" height="916" viewBox="0 0 1920 916" fill="none" xmlns="http://www.w3.org/2000/svg">
<rect width="1920" height="916" fill="url(#paint0_linear_299_306)"/>
<g clip-path="url(#clip0_299_306)">
<g style="mix-blend-mode:color-dodge">
<path d="M1592.97 743.5C1264.54 743.5 998.289 478.56 998.289 151.74C998.289 -175.08 1264.54 -440.021 1592.97 -440.021C1921.4 -440.021 2187.65 -175.08 2187.65 151.74C2187.65 478.56 1921.4 743.5 1592.97 743.5Z" stroke="#FFFFFF" stroke-width="1.05413"/>
<path d="M510.789 151.769C510.789 201.301 540.885 248.612 595.598 291.755C650.301 334.892 729.507 373.775 827.453 406.443C1023.34 471.777 1294 512.201 1593 512.201C1891.99 512.201 2162.65 471.777 2358.54 406.443C2456.49 373.775 2535.7 334.892 2590.39 291.755C2645.11 248.612 2675.2 201.301 2675.2 151.769C2675.2 102.238 2645.11 54.9271 2590.39 11.7839C2535.7 -31.3533 2456.49 -70.2362 2358.54 -102.905C2162.65 -168.239 1891.99 -208.662 1593 -208.662C1294 -208.662 1023.34 -168.239 827.453 -102.905C729.507 -70.2362 650.301 -31.3533 595.598 11.7839C540.885 54.9271 510.789 102.238 510.789 151.769Z" stroke="#FFFFFF" stroke-width="1.05413"/>
<path d="M293.289 151.77C293.289 211.401 329.472 268.331 395.19 320.224C460.899 372.113 556.032 418.874 673.658 458.161C908.901 536.73 1233.94 585.341 1593 585.341C1952.05 585.341 2277.09 536.73 2512.33 458.161C2629.96 418.874 2725.09 372.113 2790.81 320.224C2856.52 268.331 2892.7 211.401 2892.7 151.77C2892.7 92.139 2856.52 35.2084 2790.81 -16.6847C2725.09 -68.5729 2629.96 -115.335 2512.33 -154.621C2277.09 -233.191 1952.05 -281.801 1593 -281.801C1233.94 -281.801 908.901 -233.191 673.658 -154.621C556.032 -115.335 460.899 -68.5729 395.19 -16.6847C329.472 35.2084 293.289 92.139 293.289 151.77Z" stroke="#FFFFFF" stroke-width="1.05413"/>
<path d="M-141 631.471H950.11C1054.62 631.471 1139.35 547.16 1139.35 443.161V144.593C1139.35 -105.008 1342.69 -307.35 1593.52 -307.35C1844.35 -307.35 2047.7 -105.008 2047.7 144.593V518.702C2047.7 622.703 2132.42 707.011 2236.94 707.011H4752.54" stroke="#FFFFFF"/>
<path d="M-29.25 697.225H950.111C1089.46 697.225 1202.43 584.812 1202.43 446.146V144.593C1202.43 -70.3414 1377.53 -244.58 1593.53 -244.58C1809.51 -244.58 1984.62 -70.3414 1984.62 144.593V518.702C1984.62 657.369 2097.59 769.781 2236.94 769.781H4750.02" stroke="#FFFFFF"/>
<path d="M-21.75 762.981H950.11C1124.3 762.981 1265.51 622.466 1265.51 449.13V144.593C1265.51 -35.6738 1412.37 -181.81 1593.52 -181.81C1774.68 -181.81 1921.53 -35.6738 1921.53 144.593V518.702C1921.53 692.036 2062.74 832.551 2236.93 832.551H4799.22" stroke="#FFFFFF"/>
<path d="M-173.25 828.734H950.11C1159.14 828.734 1328.59 660.117 1328.59 452.117V144.593C1328.59 -1.00765 1447.2 -119.04 1593.52 -119.04C1739.83 -119.04 1858.45 -1.00765 1858.45 144.593V518.702C1858.45 726.702 2027.91 895.321 2236.94 895.321H4758.86" stroke="#FFFFFF"/>
<path d="M-97.5 900.46H962.727C1199.62 900.46 1391.67 709.36 1391.67 473.625V144.593C1391.67 33.6585 1482.04 -56.2705 1593.52 -56.2705C1705 -56.2705 1795.38 33.6585 1795.38 144.593V518.701C1795.38 761.368 1993.07 958.09 2236.94 958.09H4773.99" stroke="#FFFFFF"/>
</g>
</g>
<defs>
<linearGradient id="paint0_linear_299_306" x1="960" y1="0" x2="960" y2="916" gradientUnits="userSpaceOnUse">
<stop stop-color="#E7F0FE"/>
<stop offset="1" stop-color="#F9EAF2"/>
</linearGradient>
<clipPath id="clip0_299_306">
<rect width="1920" height="1115" fill="white" transform="translate(0 -199)"/>
</clipPath>
</defs>
</svg>