<svg width="21" height="21" viewBox="0 0 21 21" fill="none" xmlns="http://www.w3.org/2000/svg">
<g clip-path="url(#clip0_879_639)">
<path d="M18.7912 9.24737V10.014C18.7902 11.8111 18.2083 13.5596 17.1323 14.9989C16.0563 16.4382 14.5439 17.4911 12.8206 18.0006C11.0974 18.5101 9.25556 18.449 7.5699 17.8262C5.88425 17.2034 4.44506 16.0525 3.46698 14.5449C2.4889 13.0374 2.02434 11.2541 2.14258 9.46097C2.26081 7.66784 2.95552 5.96098 4.12308 4.59493C5.29064 3.22889 6.8685 2.27686 8.62134 1.88083C10.3742 1.4848 12.2081 1.66598 13.8495 2.39737" stroke="white" stroke-width="2" stroke-linecap="round" stroke-linejoin="round"/>
<path d="M18.7911 3.34738L10.4578 11.689L7.95776 9.18905" stroke="white" stroke-width="2" stroke-linecap="round" stroke-linejoin="round"/>
</g>
<defs>
<clipPath id="clip0_879_639">
<rect width="20" height="20" fill="white" transform="translate(0.457764 0.0140381)"/>
</clipPath>
</defs>
</svg>
