<svg xmlns="http://www.w3.org/2000/svg" width="136" height="136" viewBox="0 0 136 136" fill="none">
  <path fill-rule="evenodd" clip-rule="evenodd" d="M22.6887 57.9726C22.6814 57.707 22.8289 57.4561 23.065 57.3233C49.4726 42.8099 77.8502 33.1736 106.862 28.4292C107.098 28.3923 107.335 28.4661 107.504 28.6358C107.667 28.8055 107.748 29.0416 107.711 29.2704C102.959 58.2899 93.3302 86.6675 78.8168 113.075C78.684 113.311 78.4331 113.459 78.1675 113.451C77.8945 113.451 77.651 113.304 77.5255 113.06L58.6735 77.4665L23.0724 58.6145C22.8363 58.4891 22.6887 58.2456 22.6887 57.9726ZM60.1197 77.0533L78.1822 111.171C91.8767 85.9444 101.115 58.9318 105.881 31.2994L60.1197 77.0533ZM104.841 30.2591C77.2083 35.0256 50.1957 44.256 24.9687 57.9579L59.0867 76.0204L104.841 30.2591ZM26.0091 94.2157C25.7287 93.9279 25.7287 93.4631 26.0091 93.1753L42.3229 76.8689C42.6106 76.5811 43.0755 76.5811 43.3558 76.8689C43.6436 77.1566 43.6436 77.6215 43.3558 77.9092L27.0494 94.2157C26.7617 94.5034 26.2968 94.5034 26.0091 94.2157ZM28.776 107.364C28.4956 107.076 28.4956 106.612 28.776 106.324L52.3502 82.7495C52.638 82.4618 53.1028 82.4618 53.3906 82.7495C53.6783 83.0373 53.6783 83.5021 53.3906 83.7899L29.8163 107.364C29.5286 107.644 29.0637 107.644 28.776 107.364ZM42.9648 110.478C42.677 110.19 42.677 109.725 42.9648 109.437L59.2712 93.131C59.559 92.8433 60.0238 92.8433 60.3116 93.131C60.5919 93.4114 60.5919 93.8763 60.3116 94.164L43.9978 110.478C43.71 110.758 43.2452 110.758 42.9648 110.478Z" fill="url(#paint0_linear_18_1822)"/>
  <defs>
    <linearGradient id="paint0_linear_18_1822" x1="107.72" y1="70.9358" x2="15.3477" y2="70.9358" gradientUnits="userSpaceOnUse">
      <stop stop-color="#9B5584"/>
      <stop offset="1" stop-color="#181872"/>
    </linearGradient>
  </defs>
</svg>