
<svg width="416" height="417" viewBox="0 0 416 417" fill="none" xmlns="http://www.w3.org/2000/svg">
<path d="M117.54 231.826L118.873 231.286C124.398 229.12 129.225 225.486 132.833 220.776C136.442 216.065 138.694 210.458 139.346 204.56C139.497 203.018 139.536 201.467 139.463 199.92C139.118 194.304 137.391 188.859 134.436 184.071C131.481 179.283 127.388 175.299 122.523 172.473C116.765 169.184 109.8 167.382 105.646 162.255C100.239 155.569 101.6 145.955 103.249 137.584C104.898 129.213 106.24 119.563 100.798 112.922C97.3829 108.75 91.9044 106.704 86.525 106.11C72.2702 104.551 58.0243 112.318 49.6894 123.816C41.3546 135.313 38.3811 149.947 38.8766 164.102C39.5975 183.926 47.2385 203.929 61.8448 217.599C76.4511 231.268 98.3831 237.701 117.54 231.826Z" fill="url(#paint0_linear_29_1889)"/>
<path d="M144.054 52.3289C147.548 37.3282 138.219 22.3357 123.218 18.8422C108.218 15.3487 93.2252 24.677 89.7317 39.6777C86.2382 54.6784 95.5666 69.6709 110.567 73.1645C125.568 76.658 140.56 67.3296 144.054 52.3289Z" fill="url(#paint1_linear_29_1889)"/>
<path d="M348.393 65.5525C339.13 49.4144 313.981 34.709 295.23 35.4749L296.546 35.3218C281.363 33.9521 265.774 49.1892 266.333 64.4262C266.738 75.6805 273.965 85.3399 279.984 94.8552C286.003 104.37 291.175 116.057 287.211 126.618C283.102 137.539 270.09 144.071 268.288 155.596C267.018 163.634 272.091 171.815 279.191 175.762C286.292 179.709 294.951 180.069 302.934 178.465C329.687 173.158 351.772 152.478 357.701 125.861C362.981 102.289 358.449 82.9792 348.393 65.5525Z" fill="url(#paint2_linear_29_1889)"/>
<path d="M341.256 103.388C361.277 103.388 377.506 87.1586 377.506 67.1383C377.506 47.1181 361.277 30.8884 341.256 30.8884C321.236 30.8884 305.007 47.1181 305.007 67.1383C305.007 87.1586 321.236 103.388 341.256 103.388Z" fill="#260B64"/>
<path d="M345.185 99.2522C338.251 99.2549 331.463 97.2685 325.624 93.5286C319.785 89.7888 315.142 84.4526 312.245 78.153C309.348 71.8535 308.319 64.8552 309.28 57.9884C310.241 51.1216 313.152 44.6746 317.667 39.4124C313.866 42.6603 310.779 46.6591 308.599 51.1575C306.418 55.6559 305.192 60.5567 304.997 65.5519C304.801 70.5471 305.641 75.5287 307.464 80.1837C309.286 84.8386 312.051 89.0664 315.586 92.6012C319.121 96.136 323.349 98.9015 328.004 100.724C332.659 102.546 337.64 103.386 342.636 103.191C347.631 102.995 352.532 101.769 357.03 99.5886C361.528 97.4082 365.527 94.3209 368.775 90.5208C362.212 96.1641 353.841 99.2626 345.185 99.2522Z" fill="white"/>
<path d="M370.505 60.016C371.683 55.048 368.611 50.0655 363.643 48.8875C358.675 47.7094 353.692 50.7818 352.514 55.7499C351.336 60.718 354.409 65.7004 359.377 66.8784C364.345 68.0565 369.327 64.9841 370.505 60.016Z" fill="#FAFAFA"/>
<path d="M355.025 43.2329C355.025 43.9707 354.806 44.6919 354.396 45.3054C353.986 45.9188 353.404 46.397 352.722 46.6793C352.04 46.9617 351.29 47.0355 350.567 46.8916C349.843 46.7477 349.178 46.3924 348.657 45.8707C348.135 45.3489 347.78 44.6843 347.636 43.9606C347.492 43.237 347.566 42.4869 347.848 41.8053C348.13 41.1236 348.608 40.541 349.222 40.1311C349.835 39.7212 350.557 39.5024 351.294 39.5024C352.284 39.5024 353.233 39.8955 353.932 40.5951C354.632 41.2946 355.025 42.2435 355.025 43.2329Z" fill="#FAFAFA"/>
<path d="M361.531 91.8994C363.063 91.8994 364.306 90.6569 364.306 89.1242C364.306 87.5914 363.063 86.3489 361.531 86.3489C359.998 86.3489 358.755 87.5914 358.755 89.1242C358.755 90.6569 359.998 91.8994 361.531 91.8994Z" fill="white"/>
<path d="M111.98 10.0918L113.926 13.651L117.477 15.5883L113.926 17.5346L111.98 21.0938L110.034 17.5346L106.484 15.5883L110.034 13.651L111.98 10.0918Z" fill="#FAFAFA"/>
<path d="M322.442 131.114L324.389 134.664L327.939 136.611L324.389 138.557L322.442 142.107L320.496 138.557L316.946 136.611L320.496 134.664L322.442 131.114Z" fill="white"/>
<path d="M90.1383 275.897L92.0847 279.456L95.6349 281.394L92.0847 283.34L90.1383 286.89L88.192 283.34L84.6418 281.394L88.192 279.456L90.1383 275.897Z" fill="white"/>
<path d="M76.6675 288.945L77.5145 290.494L79.0553 291.332L77.5145 292.179L76.6675 293.72L75.8295 292.179L74.2797 291.332L75.8295 290.494L76.6675 288.945Z" fill="white"/>
<path d="M73.9642 142.62C74.4958 138.773 69.0534 135.601 64.9535 135.268C63.0072 135.115 60.9798 135.412 59.1327 134.763C55.1319 133.376 53.537 128.203 49.6354 126.554C46.716 125.329 43.328 126.419 40.5256 127.843C37.7233 129.267 34.903 131.06 31.7402 131.267C28.992 131.438 26.0004 130.42 23.6306 131.763C21.8285 132.763 20.9274 134.826 19.2515 136.052C17.5755 137.277 15.521 137.493 13.5207 137.602C11.5203 137.71 9.43885 137.728 7.60968 138.566C5.78052 139.404 4.27574 141.332 4.65419 143.305L73.9642 142.62Z" fill="#FAFAFA"/>
<path d="M127.389 230.718C128.163 225.086 120.18 220.446 114.233 219.968C111.377 219.734 108.421 220.175 105.718 219.229C99.8699 217.193 97.5272 209.633 91.8234 207.227C87.5524 205.425 82.6416 207.029 78.5057 209.11C74.3698 211.192 70.2789 213.814 65.6565 214.111C61.6287 214.364 57.2675 212.877 53.7444 214.841C51.1223 216.301 49.7526 219.346 47.3378 221.103C44.9229 222.861 41.9314 223.221 38.9579 223.374C35.9844 223.527 33.0198 223.563 30.3166 224.834C27.6134 226.104 25.4329 228.88 25.9915 231.763L127.389 230.718Z" fill="#260B64"/>
<path d="M407.926 169.815C408.602 164.913 401.682 160.876 396.483 160.462C394.005 160.254 391.428 160.642 389.076 159.822C383.985 158.02 381.958 151.469 376.993 149.379C373.28 147.811 369 149.207 365.405 151.019C361.81 152.83 358.251 155.109 354.223 155.362C350.727 155.587 346.933 154.289 343.87 156.001C341.59 157.272 340.392 159.903 338.292 161.408C336.193 162.913 333.552 163.21 331.002 163.381C328.452 163.552 325.812 163.543 323.488 164.607C321.163 165.67 319.243 168.13 319.721 170.644L407.926 169.815Z" fill="#FAFAFA"/>
<path d="M22.5134 72.8059L22.964 73.5628C23.4759 74.414 24.2198 75.1016 25.1085 75.5452L25.9014 75.9326L25.1445 76.3922C24.2941 76.9023 23.609 77.6469 23.1712 78.5367L22.7747 79.3296L22.3242 78.5727C21.8122 77.7216 21.0684 77.034 20.1797 76.5904L19.3867 76.2029L20.1436 75.7434C20.9921 75.2309 21.6767 74.4869 22.117 73.5989L22.5134 72.8059Z" fill="white"/>
<path d="M107.343 73.2103C111.352 63.3817 106.634 52.1641 96.8056 48.1551C86.977 44.1462 75.7594 48.8639 71.7505 58.6925C67.7415 68.5211 72.4592 79.7387 82.2878 83.7477C92.1164 87.7566 103.334 83.0389 107.343 73.2103Z" fill="#260B64"/>
<path d="M87.0838 71.959C87.0838 72.5791 86.8999 73.1854 86.5553 73.7011C86.2108 74.2167 85.7211 74.6186 85.1481 74.856C84.5751 75.0933 83.9446 75.1554 83.3363 75.0344C82.7281 74.9134 82.1693 74.6148 81.7308 74.1762C81.2923 73.7377 80.9936 73.179 80.8726 72.5707C80.7516 71.9624 80.8137 71.332 81.0511 70.759C81.2884 70.186 81.6903 69.6963 82.206 69.3517C82.7216 69.0072 83.3279 68.8233 83.9481 68.8233C84.3602 68.8221 84.7685 68.9024 85.1495 69.0595C85.5305 69.2167 85.8766 69.4476 86.168 69.739C86.4594 70.0304 86.6904 70.3766 86.8475 70.7576C87.0047 71.1386 87.085 71.5468 87.0838 71.959Z" fill="white"/>
<path d="M82.5785 62.9122C82.5785 63.2687 82.4728 63.6171 82.2748 63.9134C82.0768 64.2098 81.7953 64.4408 81.466 64.5772C81.1367 64.7136 80.7744 64.7493 80.4248 64.6797C80.0752 64.6102 79.7541 64.4386 79.5021 64.1865C79.25 63.9345 79.0784 63.6134 79.0089 63.2638C78.9393 62.9142 78.975 62.5519 79.1114 62.2226C79.2478 61.8933 79.4788 61.6118 79.7752 61.4138C80.0715 61.2158 80.4199 61.1101 80.7764 61.1101C81.2543 61.1101 81.7127 61.3 82.0507 61.6379C82.3886 61.9759 82.5785 62.4343 82.5785 62.9122Z" fill="white"/>
<path d="M70.9097 70.6344C70.9907 70.9678 54.4562 86.8536 58.7182 90.2055C62.9803 93.5575 80.9115 84.9163 96.1936 72.5717C111.476 60.2271 125.442 45.2333 121.622 41.2686C117.801 37.3039 98.6985 49.0448 98.6985 49.0448L100.987 50.5046C100.987 50.5046 112.53 43.0978 116.188 45.9992C119.847 48.9007 109.421 60.1099 94.7248 70.8326C80.0284 81.5553 65.8276 89.0972 63.629 86.1507C61.4304 83.2042 71.8197 73.4006 71.8197 73.4006L70.9097 70.6344Z" fill="white"/>
<path d="M78.9741 52.415C79.1273 52.6042 77.8208 53.7125 76.352 55.9291C74.3932 58.7756 73.3124 62.1343 73.2435 65.589C73.1746 69.0437 74.1207 72.4428 75.9646 75.3651C77.3432 77.6448 78.6047 78.7982 78.4425 78.9694C78.2803 79.1406 76.8026 78.2125 75.0906 75.9418C74.0934 74.6132 73.3063 73.1393 72.7568 71.5716C71.3422 67.6836 71.4257 63.4082 72.9911 59.5784C73.6093 58.0335 74.4568 56.5907 75.505 55.2984C77.2892 53.1088 78.866 52.2798 78.9741 52.415Z" fill="white"/>
<path d="M30.8392 27.0677C30.8699 25.7473 31.2915 24.4656 32.0507 23.3848C32.8099 22.304 33.8726 21.4727 35.1044 20.996C36.3361 20.5193 37.6816 20.4186 38.9706 20.7067C40.2596 20.9947 41.4342 21.6586 42.3458 22.6144C43.2574 23.5701 43.8651 24.7748 44.092 26.0759C44.3188 27.3771 44.1547 28.7163 43.6203 29.9242C43.086 31.132 42.2054 32.1543 41.0899 32.8616C39.9745 33.5689 38.6743 33.9295 37.3539 33.8978C35.5845 33.8553 33.9044 33.112 32.6828 31.8312C31.4612 30.5505 30.7981 28.8371 30.8392 27.0677Z" fill="white"/>
<path d="M39.6877 24.6711C39.6931 24.4555 39.7623 24.2464 39.8866 24.0702C40.0108 23.894 40.1845 23.7586 40.3857 23.6811C40.5869 23.6035 40.8065 23.5874 41.0169 23.6347C41.2273 23.682 41.4189 23.7906 41.5675 23.9468C41.7161 24.103 41.8151 24.2998 41.8519 24.5122C41.8888 24.7247 41.8618 24.9433 41.7744 25.1404C41.687 25.3375 41.5431 25.5042 41.361 25.6196C41.1788 25.7349 40.9665 25.7937 40.751 25.7884C40.6078 25.7849 40.4667 25.7532 40.3357 25.6952C40.2048 25.6371 40.0866 25.5538 39.9878 25.4501C39.8891 25.3463 39.8118 25.2241 39.7603 25.0904C39.7088 24.9568 39.6841 24.8143 39.6877 24.6711Z" fill="#F5F5F5"/>
<path d="M41.8592 27.212C41.861 27.0852 41.9006 26.9617 41.9728 26.8573C42.045 26.753 42.1466 26.6724 42.2647 26.626C42.3828 26.5795 42.512 26.5692 42.636 26.5964C42.7599 26.6236 42.873 26.687 42.9608 26.7787C43.0486 26.8703 43.1072 26.9859 43.1291 27.1109C43.151 27.2359 43.1352 27.3646 43.0837 27.4806C43.0323 27.5966 42.9475 27.6947 42.8402 27.7624C42.7328 27.8301 42.6078 27.8644 42.4809 27.8608C42.3128 27.8561 42.1534 27.7854 42.037 27.664C41.9206 27.5425 41.8568 27.3802 41.8592 27.212Z" fill="#F5F5F5"/>
<path d="M41.0123 29.1582C41.0426 29.1582 41.0727 29.1643 41.1006 29.1762C41.1286 29.188 41.1538 29.2055 41.1748 29.2273C41.1959 29.2492 41.2123 29.2751 41.2231 29.3035C41.2338 29.3319 41.2388 29.3621 41.2376 29.3925C41.2376 29.4232 41.2315 29.4537 41.2197 29.4821C41.208 29.5106 41.1907 29.5364 41.1689 29.5581C41.1472 29.5799 41.1214 29.5972 41.0929 29.6089C41.0645 29.6207 41.034 29.6268 41.0033 29.6268C40.9725 29.6256 40.9423 29.6184 40.9143 29.6055C40.8863 29.5927 40.8611 29.5744 40.8402 29.5518C40.8193 29.5292 40.803 29.5027 40.7924 29.4738C40.7817 29.4449 40.7768 29.4142 40.778 29.3835C40.7803 29.3229 40.806 29.2656 40.8497 29.2236C40.8934 29.1816 40.9517 29.1582 41.0123 29.1582Z" fill="#F5F5F5"/>
<path d="M141.67 406.264C142.693 402.921 142.774 399.361 141.904 395.975C141.034 392.589 139.247 389.509 136.739 387.073C134.232 384.637 131.101 382.94 127.691 382.169C124.282 381.397 120.725 381.582 117.414 382.701C117.482 378.98 116.531 375.31 114.664 372.091C112.796 368.871 110.084 366.224 106.819 364.435C103.555 362.647 99.864 361.786 96.1455 361.945C92.4269 362.104 88.8227 363.277 85.7231 365.337C82.263 358.724 73.1082 355.885 66.4763 359.39C59.8445 362.895 57.1052 372.104 60.6554 378.673C57.9343 378.002 55.0706 378.211 52.4754 379.269C49.8801 380.327 47.6865 382.179 46.2095 384.561C44.7324 386.943 44.0477 389.731 44.2536 392.526C44.4596 395.321 45.5455 397.979 47.3557 400.118C36.5429 395.37 22.4232 404.921 22.7836 416.689L153.618 416.311C152.681 414.563 149.456 406.579 141.67 406.264Z" fill="#E576B8"/>
<path d="M377.885 406.264C378.908 402.921 378.988 399.361 378.118 395.975C377.249 392.589 375.462 389.509 372.954 387.073C370.446 384.637 367.316 382.94 363.906 382.169C360.496 381.397 356.94 381.582 353.628 382.701C353.696 378.98 352.745 375.31 350.878 372.091C349.011 368.871 346.298 366.224 343.034 364.435C339.77 362.647 336.079 361.786 332.36 361.945C328.641 362.104 325.037 363.277 321.938 365.337C318.469 358.724 309.278 355.885 302.691 359.39C296.104 362.895 293.32 372.104 296.87 378.673C294.149 378.002 291.285 378.211 288.69 379.269C286.095 380.327 283.901 382.179 282.424 384.561C280.947 386.943 280.262 389.731 280.468 392.526C280.674 395.321 281.76 397.979 283.57 400.118C272.757 395.37 258.638 404.921 258.989 416.689L389.842 416.311C388.941 414.563 385.67 406.579 377.885 406.264Z" fill="#E576B8"/>
<path d="M249.555 416.311C251.947 409.25 251.849 401.583 249.276 394.586C247.645 390.207 244.941 386.08 240.977 383.611C237.012 381.142 231.66 380.628 227.686 383.079C227.689 380.22 227.041 377.398 225.792 374.826C224.544 372.254 222.727 369.999 220.478 368.233C218.23 366.467 215.61 365.234 212.815 364.63C210.021 364.025 207.126 364.064 204.348 364.742C204.663 362.36 204.382 359.937 203.531 357.69C202.679 355.443 201.284 353.443 199.47 351.867C197.656 350.291 195.48 349.19 193.136 348.661C190.792 348.133 188.353 348.194 186.039 348.839C188.318 341.387 181.903 333.917 174.262 332.394H171.721C171.721 332.394 155.664 331.998 153.699 332.394C146.058 333.917 139.643 341.405 141.923 348.839C139.608 348.194 137.169 348.133 134.825 348.661C132.481 349.19 130.305 350.291 128.491 351.867C126.677 353.443 125.282 355.443 124.431 357.69C123.579 359.937 123.298 362.36 123.613 364.742C120.836 364.064 117.94 364.025 115.146 364.63C112.351 365.234 109.731 366.467 107.483 368.233C105.235 369.999 103.418 372.254 102.169 374.826C100.92 377.398 100.273 380.22 100.275 383.079C96.3015 380.628 90.9582 381.142 86.9845 383.611C83.0108 386.08 80.3166 390.207 78.6857 394.586C76.1127 401.583 76.0142 409.25 78.4064 416.311H249.555Z" fill="#E576B8"/>
<g opacity="0.6">
<path opacity="0.6" d="M249.555 416.311C251.947 409.25 251.849 401.583 249.276 394.586C247.645 390.207 244.941 386.08 240.977 383.611C237.012 381.142 231.66 380.628 227.686 383.079C227.689 380.22 227.041 377.398 225.792 374.826C224.544 372.254 222.727 369.999 220.478 368.233C218.23 366.467 215.61 365.234 212.815 364.63C210.021 364.025 207.126 364.064 204.348 364.742C204.663 362.36 204.382 359.937 203.531 357.69C202.679 355.443 201.284 353.443 199.47 351.867C197.656 350.291 195.48 349.19 193.136 348.661C190.792 348.133 188.353 348.194 186.039 348.839C188.318 341.387 181.903 333.917 174.262 332.394H171.721C171.721 332.394 155.664 331.998 153.699 332.394C146.058 333.917 139.643 341.405 141.923 348.839C139.608 348.194 137.169 348.133 134.825 348.661C132.481 349.19 130.305 350.291 128.491 351.867C126.677 353.443 125.282 355.443 124.431 357.69C123.579 359.937 123.298 362.36 123.613 364.742C120.836 364.064 117.94 364.025 115.146 364.63C112.351 365.234 109.731 366.467 107.483 368.233C105.235 369.999 103.418 372.254 102.169 374.826C100.92 377.398 100.273 380.22 100.275 383.079C96.3015 380.628 90.9582 381.142 86.9845 383.611C83.0108 386.08 80.3166 390.207 78.6857 394.586C76.1127 401.583 76.0142 409.25 78.4064 416.311H249.555Z" fill="white"/>
</g>
<path d="M332.57 416.311C334.96 409.249 334.858 401.582 332.282 394.586C330.651 390.207 327.948 386.08 323.983 383.611C320.018 381.142 314.666 380.628 310.692 383.079C310.697 380.22 310.05 377.396 308.802 374.823C307.554 372.251 305.737 369.995 303.488 368.229C301.24 366.462 298.618 365.23 295.823 364.626C293.028 364.022 290.132 364.062 287.355 364.742C287.669 362.36 287.388 359.937 286.537 357.69C285.686 355.443 284.291 353.443 282.477 351.867C280.663 350.291 278.486 349.19 276.142 348.661C273.798 348.133 271.36 348.194 269.045 348.839C271.325 341.387 264.909 333.917 257.268 332.394H254.736C254.736 332.394 238.67 331.998 236.715 332.394C229.074 333.917 222.658 341.405 224.938 348.839C222.623 348.194 220.185 348.133 217.841 348.661C215.497 349.19 213.32 350.291 211.506 351.867C209.692 353.443 208.297 355.443 207.446 357.69C206.595 359.937 206.314 362.36 206.628 364.742C203.851 364.062 200.956 364.022 198.161 364.625C195.366 365.229 192.745 366.462 190.497 368.229C188.25 369.996 186.433 372.251 185.186 374.824C183.939 377.397 183.294 380.22 183.3 383.079C179.326 380.628 173.974 381.142 170.009 383.611C166.044 386.08 163.332 390.207 161.71 394.586C159.13 401.581 159.028 409.249 161.422 416.311H332.57Z" fill="#E576B8"/>
<g opacity="0.8">
<path opacity="0.8" d="M332.57 416.329C334.96 409.267 334.858 401.6 332.282 394.604C330.651 390.225 327.948 386.098 323.983 383.629C320.018 381.16 314.666 380.646 310.692 383.097C310.697 380.238 310.05 377.414 308.802 374.842C307.554 372.269 305.737 370.013 303.488 368.247C301.24 366.48 298.618 365.248 295.823 364.644C293.028 364.04 290.132 364.08 287.355 364.761C287.669 362.378 287.388 359.955 286.537 357.708C285.686 355.462 284.291 353.461 282.477 351.885C280.663 350.309 278.486 349.208 276.142 348.679C273.798 348.151 271.36 348.212 269.045 348.857C271.325 341.405 264.909 333.935 257.268 332.412H254.736C254.736 332.412 238.67 332.016 236.715 332.412C229.074 333.935 222.658 341.423 224.938 348.857C222.623 348.212 220.185 348.151 217.841 348.679C215.497 349.208 213.32 350.309 211.506 351.885C209.692 353.461 208.297 355.462 207.446 357.708C206.595 359.955 206.314 362.378 206.628 364.761C203.851 364.08 200.956 364.04 198.161 364.644C195.366 365.248 192.745 366.48 190.497 368.247C188.25 370.014 186.433 372.269 185.186 374.842C183.939 377.415 183.294 380.238 183.3 383.097C179.326 380.646 173.974 381.16 170.009 383.629C166.044 386.098 163.332 390.225 161.71 394.604C159.13 401.599 159.028 409.268 161.422 416.329H332.57Z" fill="white"/>
</g>
<path d="M172.235 326.6L154.925 327.069V294.901L172.235 294.432V326.6Z" fill="#455A64"/>
<path d="M173.208 302.344H154.186C153.504 302.344 152.952 302.896 152.952 303.578V303.605C152.952 304.287 153.504 304.84 154.186 304.84H173.208C173.889 304.84 174.442 304.287 174.442 303.605V303.578C174.442 302.896 173.889 302.344 173.208 302.344Z" fill="#455A64"/>
<path d="M173.208 307.363H154.186C153.504 307.363 152.952 307.915 152.952 308.597V308.624C152.952 309.306 153.504 309.858 154.186 309.858H173.208C173.889 309.858 174.442 309.306 174.442 308.624V308.597C174.442 307.915 173.889 307.363 173.208 307.363Z" fill="#455A64"/>
<path d="M173.208 312.382H154.186C153.504 312.382 152.952 312.934 152.952 313.616V313.643C152.952 314.325 153.504 314.878 154.186 314.878H173.208C173.889 314.878 174.442 314.325 174.442 313.643V313.616C174.442 312.934 173.889 312.382 173.208 312.382Z" fill="#455A64"/>
<path d="M173.208 317.401H154.186C153.504 317.401 152.952 317.953 152.952 318.635V318.662C152.952 319.344 153.504 319.897 154.186 319.897H173.208C173.889 319.897 174.442 319.344 174.442 318.662V318.635C174.442 317.953 173.889 317.401 173.208 317.401Z" fill="#455A64"/>
<path d="M173.208 322.419H154.186C153.504 322.419 152.952 322.972 152.952 323.654V323.681C152.952 324.363 153.504 324.915 154.186 324.915H173.208C173.889 324.915 174.442 324.363 174.442 323.681V323.654C174.442 322.972 173.889 322.419 173.208 322.419Z" fill="#455A64"/>
<path d="M151.78 332.583L154.925 326.6H172.234L176.019 332.583H151.78Z" fill="#455A64"/>
<path d="M173.586 302.326C173.586 302.461 169.162 302.56 163.674 302.56C158.187 302.56 153.808 302.461 153.808 302.326C153.808 302.19 158.223 302.091 163.674 302.091C169.126 302.091 173.586 302.217 173.586 302.326Z" fill="#263238"/>
<path d="M173.181 304.849C173.181 304.975 168.801 305.083 163.413 305.083C158.025 305.083 153.646 304.975 153.646 304.849C153.646 304.723 158.016 304.605 163.413 304.605C168.81 304.605 173.181 304.714 173.181 304.849Z" fill="#263238"/>
<path d="M173.712 307.363C173.712 307.489 169.252 307.597 163.746 307.597C158.241 307.597 153.772 307.489 153.772 307.363C153.772 307.237 158.277 307.128 163.746 307.128C169.216 307.128 173.712 307.237 173.712 307.363Z" fill="#263238"/>
<path d="M172.748 309.859C169.597 310.096 166.437 310.174 163.278 310.093C160.122 310.174 156.964 310.096 153.817 309.859C153.817 309.732 158.052 309.624 163.278 309.624C168.504 309.624 172.748 309.732 172.748 309.859Z" fill="#263238"/>
<path d="M173.433 312.427C173.433 312.562 169.099 312.661 163.746 312.661C158.394 312.661 154.051 312.562 154.051 312.427C154.051 312.291 158.385 312.192 163.746 312.192C169.108 312.192 173.433 312.3 173.433 312.427Z" fill="#263238"/>
<path d="M173.685 314.878C173.685 315.013 169.288 315.112 163.864 315.112C158.439 315.112 154.051 315.013 154.051 314.878C154.051 314.742 158.448 314.643 163.864 314.643C169.279 314.643 173.685 314.751 173.685 314.878Z" fill="#263238"/>
<path d="M173.127 317.4C173.127 317.527 168.982 317.635 163.864 317.635C158.746 317.635 154.61 317.527 154.61 317.4C157.688 317.163 160.777 317.085 163.864 317.166C166.953 317.085 170.045 317.163 173.127 317.4Z" fill="#263238"/>
<path d="M173.28 319.896C170.198 320.134 167.106 320.212 164.017 320.131C160.93 320.212 157.841 320.134 154.763 319.896C154.763 319.77 158.908 319.662 164.017 319.662C169.126 319.662 173.28 319.77 173.28 319.896Z" fill="#263238"/>
<path d="M172.685 322.356C169.621 322.589 166.548 322.667 163.476 322.591C160.404 322.667 157.331 322.588 154.267 322.356C157.331 322.124 160.404 322.046 163.476 322.122C166.548 322.046 169.621 322.124 172.685 322.356Z" fill="#263238"/>
<path d="M172.613 324.915C169.651 325.148 166.68 325.226 163.71 325.15C160.741 325.226 157.769 325.147 154.808 324.915C157.769 324.684 160.741 324.605 163.71 324.681C166.68 324.605 169.651 324.683 172.613 324.915Z" fill="#263238"/>
<path d="M255.196 326.6L237.895 327.069V294.901L255.196 294.432V326.6Z" fill="#455A64"/>
<path d="M256.169 302.344H237.147C236.466 302.344 235.913 302.896 235.913 303.578V303.605C235.913 304.287 236.466 304.84 237.147 304.84H256.169C256.851 304.84 257.403 304.287 257.403 303.605V303.578C257.403 302.896 256.851 302.344 256.169 302.344Z" fill="#455A64"/>
<path d="M256.169 307.363H237.147C236.466 307.363 235.913 307.915 235.913 308.597V308.624C235.913 309.306 236.466 309.858 237.147 309.858H256.169C256.851 309.858 257.403 309.306 257.403 308.624V308.597C257.403 307.915 256.851 307.363 256.169 307.363Z" fill="#455A64"/>
<path d="M256.169 312.382H237.147C236.466 312.382 235.913 312.934 235.913 313.616V313.643C235.913 314.325 236.466 314.878 237.147 314.878H256.169C256.851 314.878 257.403 314.325 257.403 313.643V313.616C257.403 312.934 256.851 312.382 256.169 312.382Z" fill="#455A64"/>
<path d="M256.169 317.401H237.147C236.466 317.401 235.913 317.953 235.913 318.635V318.662C235.913 319.344 236.466 319.897 237.147 319.897H256.169C256.851 319.897 257.403 319.344 257.403 318.662V318.635C257.403 317.953 256.851 317.401 256.169 317.401Z" fill="#455A64"/>
<path d="M256.169 322.419H237.147C236.466 322.419 235.913 322.972 235.913 323.654V323.681C235.913 324.363 236.466 324.915 237.147 324.915H256.169C256.851 324.915 257.403 324.363 257.403 323.681V323.654C257.403 322.972 256.851 322.419 256.169 322.419Z" fill="#455A64"/>
<path d="M234.75 332.583L237.895 326.6H255.196L258.989 332.583H234.75Z" fill="#455A64"/>
<path d="M256.547 302.326C256.547 302.461 252.132 302.56 246.681 302.56C241.229 302.56 236.814 302.461 236.814 302.326C236.814 302.19 241.229 302.091 246.681 302.091C252.132 302.091 256.547 302.217 256.547 302.326Z" fill="#263238"/>
<path d="M256.142 304.849C256.142 304.975 251.772 305.083 246.374 305.083C240.977 305.083 236.607 304.975 236.607 304.849C236.607 304.723 240.977 304.605 246.374 304.605C251.772 304.605 256.142 304.714 256.142 304.849Z" fill="#263238"/>
<path d="M256.682 307.363C256.682 307.489 252.177 307.597 246.708 307.597C241.238 307.597 236.733 307.489 236.733 307.363C236.733 307.237 241.238 307.128 246.708 307.128C252.177 307.128 256.682 307.237 256.682 307.363Z" fill="#263238"/>
<path d="M255.709 309.859C252.561 310.096 249.404 310.174 246.248 310.093C243.092 310.174 239.935 310.096 236.787 309.859C236.787 309.732 241.022 309.624 246.248 309.624C251.474 309.624 255.709 309.732 255.709 309.859Z" fill="#263238"/>
<path d="M256.403 312.427C256.403 312.562 252.06 312.661 246.708 312.661C241.355 312.661 237.012 312.562 237.012 312.427C237.012 312.291 241.355 312.192 246.708 312.192C252.06 312.192 256.403 312.3 256.403 312.427Z" fill="#263238"/>
<path d="M256.646 314.878C256.646 315.013 252.258 315.112 246.834 315.112C241.409 315.112 237.012 315.013 237.012 314.878C237.012 314.742 241.409 314.643 246.834 314.643C252.258 314.643 256.646 314.751 256.646 314.878Z" fill="#263238"/>
<path d="M256.088 317.4C256.088 317.527 251.943 317.635 246.834 317.635C241.725 317.635 237.571 317.527 237.571 317.4C240.652 317.163 243.744 317.085 246.834 317.166C249.92 317.085 253.009 317.163 256.088 317.4Z" fill="#263238"/>
<path d="M256.241 319.896C253.162 320.134 250.074 320.212 246.987 320.131C243.897 320.212 240.806 320.134 237.724 319.896C237.724 319.77 241.869 319.662 246.987 319.662C252.105 319.662 256.241 319.77 256.241 319.896Z" fill="#263238"/>
<path d="M255.628 322.356C252.567 322.589 249.497 322.667 246.428 322.591C243.357 322.667 240.283 322.589 237.219 322.356C240.283 322.124 243.357 322.046 246.428 322.122C249.497 322.046 252.567 322.124 255.628 322.356Z" fill="#263238"/>
<path d="M255.583 324.915C252.622 325.147 249.65 325.226 246.681 325.15C243.711 325.226 240.74 325.148 237.778 324.915C240.74 324.683 243.711 324.605 246.681 324.681C249.65 324.605 252.622 324.684 255.583 324.915Z" fill="#263238"/>
<path d="M178.551 99.5228L178.83 259.138H158.637V100.235C158.636 97.3792 159.018 94.5364 159.773 91.7826L168.18 61.0472C168.513 59.8398 169.928 59.8668 170.324 62.0294L177.641 91.9808C178.241 94.4501 178.546 96.9817 178.551 99.5228Z" fill="#D9D3DD"/>
<path d="M178.037 118.86C178.037 118.986 173.856 119.094 168.684 119.094C163.512 119.094 159.322 118.986 159.322 118.86C162.437 118.622 165.562 118.544 168.684 118.625C171.804 118.544 174.926 118.622 178.037 118.86Z" fill="#E47796"/>
<path d="M178.155 138.854C178.155 138.98 173.838 139.089 168.513 139.089C163.188 139.089 158.863 138.98 158.863 138.854C162.073 138.611 165.294 138.529 168.513 138.611C171.729 138.53 174.947 138.611 178.155 138.854Z" fill="#263238"/>
<path d="M163.512 134.664C163.386 134.664 163.278 134.097 163.278 133.385C163.278 132.673 163.386 132.105 163.512 132.105C163.638 132.105 163.747 132.682 163.747 133.385C163.747 134.088 163.674 134.664 163.512 134.664Z" fill="#263238"/>
<path d="M165.485 134.43C165.615 134.43 165.72 133.962 165.72 133.385C165.72 132.808 165.615 132.34 165.485 132.34C165.356 132.34 165.251 132.808 165.251 133.385C165.251 133.962 165.356 134.43 165.485 134.43Z" fill="#263238"/>
<path d="M178.758 190.359C178.758 190.494 174.316 190.603 168.846 190.603C163.377 190.603 158.935 190.494 158.935 190.359C158.935 190.224 163.377 190.125 168.846 190.125C174.316 190.125 178.758 190.233 178.758 190.359Z" fill="#263238"/>
<path d="M163.602 196.351C163.476 196.351 163.368 195.775 163.368 195.063C163.368 194.351 163.476 193.774 163.602 193.774C163.728 193.774 163.837 194.351 163.837 195.063C163.837 195.775 163.737 196.351 163.602 196.351Z" fill="#263238"/>
<path d="M165.134 196.586C164.999 196.586 164.9 195.982 164.9 195.234C164.9 194.486 164.999 193.891 165.134 193.891C165.269 193.891 165.368 194.495 165.368 195.234C165.368 195.973 165.26 196.586 165.134 196.586Z" fill="#263238"/>
<path d="M172.18 240.152C169.918 240.384 167.642 240.462 165.368 240.386C163.095 240.462 160.819 240.384 158.556 240.152C160.819 239.915 163.095 239.836 165.368 239.918C167.642 239.837 169.918 239.915 172.18 240.152Z" fill="#263238"/>
<path d="M178.263 97.4413C178.263 97.5675 173.919 97.6756 168.558 97.6756C163.197 97.6756 158.845 97.5675 158.845 97.4413C158.845 97.3152 163.197 97.207 168.558 97.207C173.919 97.207 178.263 97.3152 178.263 97.4413Z" fill="#263238"/>
<path d="M160.71 98.6847C160.71 98.6306 160.935 98.6126 161.061 98.8739C161.102 98.9501 161.124 99.0352 161.124 99.1217C161.124 99.2082 161.102 99.2933 161.061 99.3695C160.992 99.4611 160.896 99.5295 160.787 99.5656C160.678 99.6016 160.56 99.6037 160.45 99.5714C160.339 99.5392 160.241 99.4742 160.169 99.385C160.096 99.2959 160.052 99.1867 160.043 99.0721C160.042 98.986 160.063 98.9011 160.104 98.8254C160.145 98.7497 160.205 98.6857 160.277 98.6396C160.521 98.4864 160.701 98.6396 160.674 98.6396C160.647 98.6396 160.557 98.7387 160.503 98.8559C160.449 98.973 160.458 99.0451 160.584 99.0901C160.71 99.1352 160.755 99.0901 160.773 98.937C160.791 98.7838 160.692 98.6847 160.71 98.6847Z" fill="#263238"/>
<path d="M168.675 98.6847C168.675 98.6306 168.901 98.6126 169.027 98.8739C169.068 98.9501 169.089 99.0352 169.089 99.1217C169.089 99.2082 169.068 99.2933 169.027 99.3695C168.957 99.4611 168.862 99.5295 168.752 99.5656C168.643 99.6016 168.526 99.6037 168.415 99.5714C168.305 99.5392 168.207 99.4742 168.134 99.385C168.062 99.2959 168.018 99.1867 168.009 99.0721C168.007 98.986 168.028 98.9011 168.069 98.8254C168.11 98.7497 168.17 98.6857 168.243 98.6396C168.486 98.4864 168.666 98.6396 168.639 98.6396C168.612 98.6396 168.522 98.7387 168.468 98.8559C168.414 98.973 168.423 99.0451 168.549 99.0901C168.675 99.1352 168.72 99.0901 168.747 98.937C168.774 98.7838 168.657 98.6847 168.675 98.6847Z" fill="#263238"/>
<path d="M176.641 98.6847C176.641 98.6306 176.866 98.6126 176.992 98.8739C177.033 98.9501 177.055 99.0352 177.055 99.1217C177.055 99.2082 177.033 99.2933 176.992 99.3695C176.925 99.462 176.831 99.531 176.722 99.5667C176.614 99.6023 176.497 99.6026 176.388 99.5677C176.276 99.5394 176.175 99.4763 176.101 99.3873C176.026 99.2982 175.982 99.1879 175.974 99.0721C175.973 98.986 175.994 98.9011 176.035 98.8254C176.076 98.7497 176.135 98.6857 176.208 98.6396C176.461 98.4864 176.632 98.6396 176.605 98.6396C176.578 98.6396 176.488 98.7387 176.433 98.8559C176.379 98.973 176.433 99.0451 176.515 99.0901C176.596 99.1352 176.686 99.0901 176.713 98.937C176.74 98.7838 176.623 98.6847 176.641 98.6847Z" fill="#263238"/>
<path d="M160.71 140.593C160.71 140.53 160.935 140.512 161.061 140.774C161.102 140.85 161.124 140.935 161.124 141.021C161.124 141.108 161.102 141.193 161.061 141.269C160.992 141.361 160.896 141.429 160.787 141.465C160.678 141.501 160.56 141.503 160.45 141.471C160.339 141.439 160.241 141.374 160.169 141.285C160.096 141.196 160.052 141.086 160.043 140.972C160.043 140.886 160.064 140.801 160.105 140.726C160.146 140.65 160.205 140.586 160.277 140.539C160.521 140.386 160.701 140.539 160.674 140.539C160.647 140.539 160.557 140.647 160.503 140.756C160.449 140.864 160.458 140.954 160.584 140.99C160.71 141.026 160.755 140.99 160.773 140.837C160.791 140.683 160.692 140.656 160.71 140.593Z" fill="#263238"/>
<path d="M168.675 140.593C168.675 140.53 168.901 140.512 169.027 140.774C169.068 140.85 169.089 140.935 169.089 141.021C169.089 141.108 169.068 141.193 169.027 141.269C168.957 141.361 168.862 141.429 168.752 141.465C168.643 141.501 168.526 141.503 168.415 141.471C168.305 141.439 168.207 141.374 168.134 141.285C168.062 141.196 168.018 141.086 168.009 140.972C168.008 140.886 168.03 140.801 168.071 140.726C168.111 140.65 168.171 140.586 168.243 140.539C168.486 140.386 168.666 140.539 168.639 140.539C168.612 140.539 168.522 140.647 168.468 140.756C168.414 140.864 168.423 140.954 168.549 140.99C168.675 141.026 168.72 140.99 168.747 140.837C168.774 140.683 168.657 140.656 168.675 140.593Z" fill="#263238"/>
<path d="M176.641 140.593C176.641 140.53 176.866 140.512 176.992 140.774C177.033 140.85 177.055 140.935 177.055 141.021C177.055 141.108 177.033 141.193 176.992 141.269C176.925 141.362 176.831 141.431 176.722 141.466C176.614 141.502 176.497 141.502 176.388 141.467C176.276 141.439 176.175 141.376 176.101 141.287C176.026 141.198 175.982 141.088 175.974 140.972C175.974 140.886 175.995 140.801 176.036 140.726C176.077 140.65 176.136 140.586 176.208 140.539C176.46 140.386 176.632 140.539 176.605 140.539C176.578 140.539 176.487 140.647 176.433 140.756C176.379 140.864 176.433 140.954 176.515 140.99C176.596 141.026 176.686 140.99 176.713 140.837C176.74 140.683 176.623 140.656 176.641 140.593Z" fill="#263238"/>
<path d="M160.71 186.593C160.71 186.53 160.935 186.512 161.061 186.773C161.102 186.849 161.124 186.934 161.124 187.021C161.124 187.107 161.102 187.192 161.061 187.269C160.993 187.362 160.898 187.433 160.788 187.47C160.678 187.507 160.56 187.509 160.449 187.476C160.338 187.443 160.239 187.377 160.167 187.287C160.094 187.197 160.051 187.087 160.043 186.971C160.043 186.885 160.064 186.801 160.105 186.725C160.146 186.65 160.205 186.586 160.277 186.539C160.521 186.386 160.701 186.539 160.674 186.539C160.647 186.539 160.557 186.638 160.503 186.746C160.449 186.854 160.458 186.944 160.584 186.98C160.71 187.016 160.755 186.98 160.773 186.827C160.791 186.674 160.692 186.656 160.71 186.593Z" fill="#263238"/>
<path d="M168.675 186.593C168.675 186.53 168.901 186.512 169.027 186.773C169.068 186.849 169.089 186.934 169.089 187.021C169.089 187.107 169.068 187.192 169.027 187.269C168.96 187.364 168.864 187.435 168.754 187.472C168.644 187.509 168.525 187.511 168.414 187.476C168.303 187.443 168.205 187.377 168.132 187.287C168.06 187.197 168.017 187.087 168.009 186.971C168.008 186.885 168.03 186.801 168.071 186.725C168.111 186.65 168.171 186.586 168.243 186.539C168.486 186.386 168.666 186.539 168.639 186.539C168.612 186.539 168.522 186.638 168.468 186.746C168.414 186.854 168.423 186.944 168.549 186.98C168.675 187.016 168.72 186.98 168.747 186.827C168.774 186.674 168.657 186.656 168.675 186.593Z" fill="#263238"/>
<path d="M176.641 186.593C176.641 186.53 176.866 186.512 176.992 186.773C177.033 186.849 177.055 186.934 177.055 187.021C177.055 187.107 177.033 187.192 176.992 187.269C176.926 187.363 176.833 187.434 176.724 187.471C176.616 187.508 176.498 187.51 176.388 187.476C176.276 187.445 176.175 187.379 176.101 187.289C176.027 187.199 175.983 187.088 175.974 186.971C175.974 186.885 175.995 186.801 176.036 186.725C176.077 186.65 176.136 186.586 176.208 186.539C176.46 186.386 176.632 186.539 176.605 186.539C176.578 186.539 176.487 186.638 176.433 186.746C176.379 186.854 176.433 186.944 176.515 186.98C176.596 187.016 176.686 186.98 176.713 186.827C176.74 186.674 176.623 186.656 176.641 186.593Z" fill="#263238"/>
<path d="M160.71 236.746C160.71 236.683 160.935 236.665 161.061 236.926C161.102 237.003 161.124 237.088 161.124 237.174C161.124 237.261 161.102 237.346 161.061 237.422C160.992 237.514 160.896 237.582 160.787 237.618C160.678 237.654 160.56 237.656 160.45 237.624C160.339 237.592 160.241 237.527 160.169 237.438C160.096 237.348 160.052 237.239 160.043 237.125C160.043 237.039 160.064 236.954 160.105 236.878C160.146 236.803 160.205 236.739 160.277 236.692C160.521 236.539 160.701 236.692 160.674 236.692C160.647 236.692 160.557 236.8 160.503 236.908C160.449 237.016 160.458 237.107 160.584 237.143C160.71 237.179 160.755 237.143 160.773 236.989C160.791 236.836 160.692 236.809 160.71 236.746Z" fill="#263238"/>
<path d="M168.675 236.746C168.675 236.683 168.901 236.665 169.027 236.926C169.068 237.003 169.089 237.088 169.089 237.174C169.089 237.261 169.068 237.346 169.027 237.422C168.957 237.514 168.862 237.582 168.752 237.618C168.643 237.654 168.526 237.656 168.415 237.624C168.305 237.592 168.207 237.527 168.134 237.438C168.062 237.348 168.018 237.239 168.009 237.125C168.008 237.039 168.03 236.954 168.071 236.878C168.111 236.803 168.171 236.739 168.243 236.692C168.486 236.539 168.666 236.692 168.639 236.692C168.612 236.692 168.522 236.8 168.468 236.908C168.414 237.016 168.423 237.107 168.549 237.143C168.675 237.179 168.72 237.143 168.747 236.989C168.774 236.836 168.657 236.809 168.675 236.746Z" fill="#263238"/>
<path d="M233.057 99.5228L232.768 259.138H252.961V100.235C252.958 97.3795 252.576 94.5373 251.826 91.7826L243.419 61.0472C243.085 59.8398 241.671 59.8668 241.274 62.0294L233.958 91.9808C233.357 94.4497 233.054 96.9818 233.057 99.5228Z" fill="#D9D3DD"/>
<path d="M233.588 118.86C236.7 118.622 239.822 118.544 242.941 118.625C246.064 118.544 249.189 118.622 252.303 118.86C252.303 118.986 248.113 119.094 242.941 119.094C237.769 119.094 233.588 118.986 233.588 118.86Z" fill="#E47796"/>
<path d="M233.471 138.854C236.682 138.611 239.903 138.529 243.121 138.611C246.337 138.53 249.555 138.611 252.763 138.854C252.763 138.98 248.447 139.089 243.121 139.089C237.796 139.089 233.471 138.98 233.471 138.854Z" fill="#263238"/>
<path d="M248.113 134.664C247.987 134.664 247.879 134.097 247.879 133.385C247.879 132.673 247.987 132.105 248.113 132.105C248.239 132.105 248.348 132.682 248.348 133.385C248.348 134.088 248.248 134.664 248.113 134.664Z" fill="#263238"/>
<path d="M246.14 134.43C246.269 134.43 246.374 133.962 246.374 133.385C246.374 132.808 246.269 132.34 246.14 132.34C246.011 132.34 245.906 132.808 245.906 133.385C245.906 133.962 246.011 134.43 246.14 134.43Z" fill="#263238"/>
<path d="M232.867 190.359C232.867 190.233 237.319 190.125 242.779 190.125C248.24 190.125 252.691 190.233 252.691 190.359C252.691 190.485 248.249 190.603 242.779 190.603C237.31 190.603 232.867 190.494 232.867 190.359Z" fill="#263238"/>
<path d="M248.023 196.351C247.897 196.351 247.789 195.775 247.789 195.063C247.789 194.351 247.897 193.774 248.023 193.774C248.149 193.774 248.257 194.351 248.257 195.063C248.257 195.775 248.149 196.351 248.023 196.351Z" fill="#263238"/>
<path d="M246.5 196.586C246.365 196.586 246.266 195.982 246.266 195.234C246.266 194.486 246.365 193.891 246.5 193.891C246.636 193.891 246.735 194.495 246.735 195.234C246.735 195.973 246.627 196.586 246.5 196.586Z" fill="#263238"/>
<path d="M239.445 240.152C241.707 239.915 243.984 239.837 246.257 239.918C248.533 239.836 250.813 239.915 253.078 240.152C250.812 240.384 248.533 240.462 246.257 240.386C243.984 240.462 241.708 240.384 239.445 240.152Z" fill="#263238"/>
<path d="M233.363 97.4413C233.363 97.3152 237.715 97.207 243.076 97.207C248.438 97.207 252.781 97.3152 252.781 97.4413C252.781 97.5675 248.438 97.6756 243.076 97.6756C237.715 97.6756 233.363 97.5675 233.363 97.4413Z" fill="#263238"/>
<path d="M250.916 98.6846C250.916 98.7477 250.871 98.8378 250.916 98.9639C250.961 99.0901 250.988 99.1441 251.105 99.1171C251.222 99.0901 251.249 99.018 251.195 98.8828C251.141 98.7477 251.033 98.7297 251.015 98.6666C250.997 98.6035 251.168 98.4864 251.411 98.6666C251.484 98.7127 251.544 98.7767 251.585 98.8524C251.626 98.9281 251.647 99.013 251.646 99.0991C251.64 99.2141 251.597 99.3242 251.524 99.4134C251.451 99.5025 251.352 99.566 251.24 99.5947C251.13 99.6303 251.012 99.6303 250.902 99.5947C250.792 99.5591 250.696 99.4897 250.627 99.3964C250.586 99.3203 250.565 99.2352 250.565 99.1487C250.565 99.0622 250.586 98.977 250.627 98.9009C250.69 98.5855 250.916 98.6035 250.916 98.6846Z" fill="#263238"/>
<path d="M242.968 98.6846C242.968 98.7477 242.923 98.8378 242.968 98.9639C243.013 99.0901 243.031 99.1441 243.157 99.1171C243.283 99.0901 243.302 99.018 243.238 98.8828C243.175 98.7477 243.085 98.7297 243.067 98.6666C243.049 98.6035 243.22 98.4864 243.464 98.6666C243.536 98.7127 243.596 98.7767 243.637 98.8524C243.678 98.9281 243.699 99.013 243.698 99.0991C243.692 99.2141 243.649 99.3242 243.577 99.4134C243.504 99.5025 243.404 99.566 243.293 99.5947C243.183 99.6303 243.064 99.6303 242.954 99.5947C242.844 99.5591 242.748 99.4897 242.68 99.3964C242.639 99.3203 242.617 99.2352 242.617 99.1487C242.617 99.0622 242.639 98.977 242.68 98.9009C242.725 98.5855 242.968 98.6035 242.968 98.6846Z" fill="#263238"/>
<path d="M234.985 98.6846C234.985 98.7477 234.94 98.8378 234.985 98.9639C235.03 99.0901 235.048 99.1441 235.174 99.1171C235.3 99.0901 235.318 99.018 235.255 98.8828C235.192 98.7477 235.102 98.7297 235.084 98.6666C235.066 98.6035 235.237 98.4864 235.48 98.6666C235.553 98.7127 235.613 98.7767 235.654 98.8524C235.695 98.9281 235.716 99.013 235.715 99.0991C235.705 99.2137 235.662 99.3228 235.589 99.412C235.516 99.5012 235.418 99.5662 235.308 99.5984C235.197 99.6306 235.08 99.6286 234.971 99.5925C234.862 99.5565 234.766 99.4881 234.696 99.3964C234.655 99.3203 234.634 99.2352 234.634 99.1487C234.634 99.0622 234.655 98.977 234.696 98.9009C234.759 98.5855 234.985 98.6035 234.985 98.6846Z" fill="#263238"/>
<path d="M250.916 140.593C250.916 140.656 250.871 140.737 250.916 140.864C250.961 140.99 250.988 141.053 251.105 141.017C251.222 140.981 251.249 140.918 251.195 140.783C251.141 140.647 251.033 140.629 251.015 140.566C250.997 140.503 251.168 140.386 251.411 140.566C251.483 140.613 251.543 140.677 251.583 140.753C251.624 140.828 251.646 140.913 251.646 140.999C251.64 141.114 251.597 141.224 251.524 141.313C251.451 141.402 251.352 141.466 251.24 141.494C251.13 141.53 251.012 141.53 250.902 141.494C250.792 141.459 250.696 141.389 250.627 141.296C250.586 141.22 250.565 141.135 250.565 141.048C250.565 140.962 250.586 140.877 250.627 140.801C250.69 140.512 250.916 140.53 250.916 140.593Z" fill="#263238"/>
<path d="M242.968 140.593C242.968 140.656 242.923 140.737 242.968 140.864C243.013 140.99 243.031 141.053 243.157 141.017C243.283 140.981 243.302 140.918 243.238 140.783C243.175 140.647 243.085 140.629 243.067 140.566C243.049 140.503 243.22 140.386 243.464 140.566C243.536 140.613 243.595 140.677 243.636 140.753C243.677 140.828 243.698 140.913 243.698 140.999C243.692 141.114 243.649 141.224 243.577 141.313C243.504 141.402 243.404 141.466 243.293 141.494C243.183 141.53 243.064 141.53 242.954 141.494C242.844 141.459 242.748 141.389 242.68 141.296C242.639 141.22 242.617 141.135 242.617 141.048C242.617 140.962 242.639 140.877 242.68 140.801C242.725 140.512 242.968 140.53 242.968 140.593Z" fill="#263238"/>
<path d="M234.985 140.593C234.985 140.656 234.94 140.737 234.985 140.864C235.03 140.99 235.048 141.053 235.174 141.017C235.3 140.981 235.318 140.918 235.255 140.783C235.192 140.647 235.102 140.629 235.084 140.566C235.066 140.503 235.237 140.386 235.48 140.566C235.552 140.613 235.612 140.677 235.653 140.753C235.694 140.828 235.715 140.913 235.715 140.999C235.705 141.113 235.662 141.223 235.589 141.312C235.516 141.401 235.418 141.466 235.308 141.498C235.197 141.53 235.08 141.528 234.971 141.492C234.862 141.456 234.766 141.388 234.696 141.296C234.655 141.22 234.634 141.135 234.634 141.048C234.634 140.962 234.655 140.877 234.696 140.801C234.759 140.512 234.985 140.53 234.985 140.593Z" fill="#263238"/>
<path d="M250.916 186.593C250.916 186.656 250.871 186.737 250.916 186.863C250.961 186.989 250.988 187.052 251.105 187.016C251.222 186.98 251.249 186.926 251.195 186.782C251.141 186.638 251.033 186.638 251.015 186.575C250.997 186.512 251.168 186.386 251.411 186.575C251.483 186.622 251.543 186.686 251.583 186.761C251.624 186.837 251.646 186.921 251.646 187.007C251.636 187.122 251.592 187.231 251.52 187.32C251.447 187.409 251.349 187.474 251.239 187.507C251.128 187.539 251.011 187.537 250.902 187.501C250.792 187.465 250.697 187.396 250.627 187.305C250.586 187.229 250.565 187.143 250.565 187.057C250.565 186.97 250.586 186.885 250.627 186.809C250.69 186.512 250.916 186.53 250.916 186.593Z" fill="#263238"/>
<path d="M242.968 186.593C242.968 186.656 242.923 186.737 242.968 186.863C243.013 186.989 243.031 187.052 243.157 187.016C243.283 186.98 243.302 186.926 243.238 186.782C243.175 186.638 243.085 186.638 243.067 186.575C243.049 186.512 243.22 186.386 243.464 186.575C243.536 186.622 243.595 186.686 243.636 186.761C243.677 186.837 243.698 186.921 243.698 187.007C243.689 187.122 243.645 187.231 243.572 187.32C243.5 187.409 243.402 187.474 243.291 187.507C243.181 187.539 243.063 187.537 242.954 187.501C242.845 187.465 242.749 187.396 242.68 187.305C242.639 187.229 242.617 187.143 242.617 187.057C242.617 186.97 242.639 186.885 242.68 186.809C242.725 186.512 242.968 186.53 242.968 186.593Z" fill="#263238"/>
<path d="M234.985 186.593C234.985 186.656 234.94 186.737 234.985 186.863C235.03 186.989 235.048 187.052 235.174 187.016C235.3 186.98 235.318 186.926 235.255 186.782C235.192 186.638 235.102 186.638 235.084 186.575C235.066 186.512 235.237 186.386 235.48 186.575C235.552 186.622 235.612 186.686 235.653 186.761C235.694 186.837 235.715 186.921 235.715 187.007C235.706 187.123 235.663 187.233 235.591 187.323C235.518 187.413 235.42 187.479 235.309 187.512C235.198 187.545 235.079 187.543 234.97 187.506C234.86 187.469 234.764 187.398 234.696 187.305C234.655 187.229 234.634 187.143 234.634 187.057C234.634 186.97 234.655 186.885 234.696 186.809C234.759 186.512 234.985 186.53 234.985 186.593Z" fill="#263238"/>
<path d="M250.916 236.746C250.916 236.809 250.871 236.89 250.916 237.016C250.961 237.143 250.988 237.206 251.105 237.17C251.222 237.134 251.249 237.07 251.195 236.935C251.141 236.8 251.033 236.782 251.015 236.719C250.997 236.656 251.168 236.539 251.411 236.719C251.483 236.766 251.543 236.83 251.583 236.905C251.624 236.981 251.646 237.066 251.646 237.152C251.64 237.267 251.597 237.377 251.524 237.466C251.451 237.555 251.352 237.619 251.24 237.647C251.13 237.683 251.012 237.683 250.902 237.647C250.792 237.612 250.696 237.542 250.627 237.449C250.586 237.373 250.565 237.288 250.565 237.201C250.565 237.115 250.586 237.03 250.627 236.953C250.69 236.665 250.916 236.683 250.916 236.746Z" fill="#263238"/>
<path d="M242.968 236.746C242.968 236.809 242.923 236.89 242.968 237.016C243.013 237.143 243.031 237.206 243.157 237.17C243.283 237.134 243.302 237.07 243.238 236.935C243.175 236.8 243.085 236.782 243.067 236.719C243.049 236.656 243.22 236.539 243.464 236.719C243.536 236.766 243.595 236.83 243.636 236.905C243.677 236.981 243.698 237.066 243.698 237.152C243.692 237.267 243.649 237.377 243.577 237.466C243.504 237.555 243.404 237.619 243.293 237.647C243.183 237.683 243.064 237.683 242.954 237.647C242.844 237.612 242.748 237.542 242.68 237.449C242.639 237.373 242.617 237.288 242.617 237.201C242.617 237.115 242.639 237.03 242.68 236.953C242.725 236.665 242.968 236.683 242.968 236.746Z" fill="#263238"/>
<path d="M270.586 286.53L270.352 293.261L222.172 300.307L222.379 288.026L270.586 286.53Z" fill="#263238"/>
<path d="M205.421 0C205.421 0 181.317 28.1854 180.669 54.4064C180.038 79.8975 180.669 150.388 180.669 150.388V236.287H230.227V60.9661C230.227 60.9661 229.768 50.5949 225.271 34.682C221.09 20.0938 205.421 0 205.421 0Z" fill="#E47796"/>
<path d="M230.164 76.6627C230.164 76.7889 219.027 76.897 205.286 76.897C191.544 76.897 180.407 76.7889 180.407 76.6627C180.407 76.5366 191.544 76.4285 205.286 76.4285C219.027 76.4285 230.164 76.5366 230.164 76.6627Z" fill="#263238"/>
<path d="M183.498 125.266C183.498 125.266 183.498 125.266 183.498 125.365V125.437H183.444V125.392H183.498V125.554H183.426C183.309 123.752 183.228 113.552 183.228 101.307C183.228 94.5307 183.273 88.4035 183.291 83.8801C183.291 81.6996 183.354 79.9154 183.372 78.5999C183.372 78.0232 183.372 77.5456 183.417 77.1672C183.392 76.9999 183.392 76.8299 183.417 76.6626C183.451 76.8285 183.466 76.9978 183.462 77.1672C183.462 77.5456 183.462 78.0232 183.507 78.5999C183.507 79.9154 183.507 81.6996 183.579 83.8801C183.579 88.3855 183.624 94.5307 183.651 101.307C183.651 113.552 183.561 123.707 183.453 125.554H183.381V125.392H183.498V125.437H183.444V125.365C183.435 125.302 183.444 125.266 183.498 125.266Z" fill="#263238"/>
<path d="M187.003 125.554C186.877 125.554 186.769 114.606 186.769 101.109C186.769 87.6106 186.877 76.6626 187.003 76.6626C187.129 76.6626 187.237 87.6106 187.237 101.109C187.237 114.606 187.102 125.554 187.003 125.554Z" fill="#263238"/>
<path d="M190.652 125.554C190.526 125.554 190.4 114.606 190.373 101.109C190.346 87.6106 190.427 76.6626 190.562 76.6626C190.697 76.6626 190.814 87.6106 190.842 101.109C190.869 114.606 190.787 125.554 190.652 125.554Z" fill="#263238"/>
<path d="M194.112 125.554C193.977 125.554 193.878 114.606 193.878 101.109C193.878 87.6106 193.977 76.6626 194.112 76.6626C194.248 76.6626 194.347 87.6106 194.347 101.109C194.347 114.606 194.239 125.554 194.112 125.554Z" fill="#263238"/>
<path d="M197.663 126.69C197.536 126.69 197.428 115.49 197.428 101.676C197.428 87.8629 197.536 76.6626 197.663 76.6626C197.789 76.6626 197.915 87.8719 197.915 101.676C197.915 115.481 197.798 126.69 197.663 126.69Z" fill="#263238"/>
<path d="M201.213 126.69C201.087 126.69 200.979 115.49 200.979 101.676C200.979 87.8629 201.087 76.6626 201.213 76.6626C201.339 76.6626 201.456 87.8629 201.456 101.676C201.456 115.49 201.348 126.69 201.213 126.69Z" fill="#263238"/>
<path d="M204.772 126.69C204.637 126.69 204.538 115.49 204.538 101.676C204.538 87.8629 204.637 76.6626 204.772 76.6626C204.907 76.6626 205.006 87.8629 205.006 101.676C205.006 115.49 204.898 126.69 204.772 126.69Z" fill="#263238"/>
<path d="M208.322 126.69C208.196 126.69 208.088 115.49 208.088 101.676C208.088 87.8629 208.196 76.6626 208.322 76.6626C208.448 76.6626 208.556 87.8629 208.556 101.676C208.556 115.49 208.448 126.69 208.322 126.69Z" fill="#263238"/>
<path d="M211.872 126.69C211.746 126.69 211.638 115.49 211.638 101.676C211.638 87.8629 211.746 76.6626 211.872 76.6626C211.998 76.6626 212.107 87.8629 212.107 101.676C212.107 115.49 212.008 126.69 211.872 126.69Z" fill="#263238"/>
<path d="M215.603 125.554C215.477 125.554 215.333 114.606 215.288 101.109C215.242 87.6106 215.288 76.6626 215.432 76.6626C215.576 76.6626 215.702 87.6106 215.756 101.109C215.81 114.606 215.738 125.554 215.603 125.554Z" fill="#263238"/>
<path d="M218.982 125.554C218.948 125.392 218.933 125.225 218.937 125.059C218.937 124.68 218.937 124.212 218.892 123.635C218.892 122.329 218.892 120.554 218.82 118.391C218.82 113.886 218.775 107.83 218.748 101.109C218.72 94.3866 218.802 88.3044 218.82 83.8261C218.82 81.6635 218.874 79.8884 218.892 78.5819C218.892 78.0052 218.892 77.5366 218.937 77.1582C218.933 76.9918 218.948 76.8255 218.982 76.6626C219.022 76.8246 219.037 76.9917 219.027 77.1582C219.027 77.5366 219.027 78.0052 219.072 78.5819C219.072 79.8884 219.072 81.6635 219.144 83.8261C219.144 88.3314 219.189 94.3866 219.216 101.109C219.243 107.83 219.162 113.913 219.144 118.391C219.144 120.554 219.09 122.329 219.072 123.635C219.072 124.212 219.072 124.68 219.027 125.059C219.037 125.225 219.022 125.392 218.982 125.554Z" fill="#263238"/>
<path d="M222.532 125.554C222.406 125.554 222.298 114.606 222.298 101.109C222.298 87.6106 222.406 76.6626 222.532 76.6626C222.658 76.6626 222.766 87.6106 222.766 101.109C222.766 114.606 222.667 125.554 222.532 125.554Z" fill="#263238"/>
<path d="M226.091 125.554C225.956 125.554 225.857 114.606 225.857 101.109C225.857 87.6106 225.956 76.6626 226.091 76.6626C226.226 76.6626 226.325 87.6106 226.325 101.109C226.325 114.606 226.217 125.554 226.091 125.554Z" fill="#263238"/>
<path d="M229.641 125.554C229.515 125.554 229.407 114.606 229.407 101.109C229.407 87.6106 229.515 76.6626 229.641 76.6626C229.768 76.6626 229.876 87.6106 229.876 101.109C229.876 114.606 229.768 125.554 229.641 125.554Z" fill="#263238"/>
<path d="M230.164 125.554C230.164 125.681 219.063 125.789 205.376 125.789C191.689 125.789 180.596 125.681 180.596 125.554C180.596 125.428 191.689 125.32 205.376 125.32C219.063 125.32 230.164 125.428 230.164 125.554Z" fill="#263238"/>
<path d="M187.255 289.026L139.769 287.557C139.769 287.557 141.571 271.933 143.085 270.437C145.302 268.229 182.867 229.475 182.867 229.475C182.867 229.475 189.463 146.216 190.012 143.819C190.562 141.422 201.06 110.876 201.609 110.146C202.159 109.416 202.709 107.75 205.475 107.569C208.241 107.389 209.89 110.507 209.89 110.507C209.89 110.507 220.568 144.378 221.117 147.135L229.84 231.34C229.984 232.349 268.099 271.888 268.964 273.789C269.829 275.69 270.559 286.539 270.559 286.539L223.145 290.017L187.255 289.026Z" fill="#D9D3DD"/>
<path d="M221.09 146.09C219.531 140.305 210.052 110.245 210.052 110.245C210.052 110.245 208.403 107.119 205.637 107.299C202.871 107.479 202.33 109.146 201.771 109.876C201.213 110.606 190.706 141.161 190.184 143.558C190.13 143.774 190.031 144.657 189.886 146.09H221.09Z" fill="#E4CCDF"/>
<path d="M188.201 302.524L187.805 279.24L190.553 270.509L190.4 199.739L189.886 146.09H221.09L220.514 270.581L223.667 278.826V313.508H207.349L207.088 277.79C207.085 277.356 206.912 276.941 206.604 276.636C206.297 276.33 205.881 276.159 205.448 276.159C205.012 276.161 204.595 276.336 204.288 276.645C203.98 276.954 203.808 277.372 203.808 277.808L203.889 313.508H188.346L188.201 302.524Z" fill="#E4CCDF"/>
<path d="M139.769 287.557L140.003 294.279L188.183 301.325L187.976 289.053L139.769 287.557Z" fill="#263238"/>
<path d="M140.364 283.403C140.364 283.268 150.906 283.169 163.9 283.169C176.893 283.169 187.435 283.268 187.435 283.403C187.435 283.538 176.902 283.638 163.9 283.638C150.897 283.638 140.364 283.484 140.364 283.403Z" fill="#263238"/>
<path d="M144.076 287.692C143.848 286.992 143.769 286.253 143.842 285.521C143.768 284.791 143.848 284.055 144.076 283.358C144.31 284.054 144.39 284.791 144.31 285.521C144.389 286.253 144.309 286.994 144.076 287.692Z" fill="#263238"/>
<path d="M147.924 287.602C147.612 286.25 147.612 284.845 147.924 283.493C148.236 284.845 148.236 286.25 147.924 287.602Z" fill="#263238"/>
<path d="M152.303 287.909C151.991 286.423 151.991 284.889 152.303 283.403C152.615 284.889 152.615 286.423 152.303 287.909Z" fill="#263238"/>
<path d="M156.547 288.08C156.223 286.523 156.223 284.915 156.547 283.358C156.859 284.917 156.859 286.521 156.547 288.08Z" fill="#263238"/>
<path d="M160.521 288.206C160.207 286.605 160.207 284.959 160.521 283.358C160.834 284.959 160.834 286.605 160.521 288.206Z" fill="#263238"/>
<path d="M164.684 288.206C164.37 286.605 164.37 284.959 164.684 283.358C164.997 284.959 164.997 286.605 164.684 288.206Z" fill="#263238"/>
<path d="M168.847 288.206C168.533 286.605 168.533 284.959 168.847 283.358C169.16 284.959 169.16 286.605 168.847 288.206Z" fill="#263238"/>
<path d="M173.009 288.584C172.697 286.856 172.697 285.086 173.009 283.358C173.322 285.086 173.322 286.856 173.009 288.584Z" fill="#263238"/>
<path d="M177.19 288.719C176.878 286.946 176.878 285.132 177.19 283.358C177.503 285.132 177.503 286.946 177.19 288.719Z" fill="#263238"/>
<path d="M181.335 289.17C181.023 287.245 181.023 285.283 181.335 283.358C181.648 285.283 181.648 287.245 181.335 289.17Z" fill="#263238"/>
<path d="M185.498 288.206C185.625 288.617 185.68 289.047 185.66 289.476V289.783V290.089H185.3V289.35C185.3 288.801 185.3 288.251 185.3 287.674C185.219 286.228 185.298 284.778 185.534 283.349C185.765 284.778 185.844 286.228 185.769 287.674C185.769 288.251 185.769 288.801 185.769 289.35V290.089H185.3V289.476C185.289 289.044 185.356 288.614 185.498 288.206Z" fill="#263238"/>
<path d="M173.613 279.159C177.047 279.159 179.83 276.376 179.83 272.942C179.83 269.508 177.047 266.725 173.613 266.725C170.179 266.725 167.396 269.508 167.396 272.942C167.396 276.376 170.179 279.159 173.613 279.159Z" fill="#E47796"/>
<path d="M142.49 280.989C142.49 280.502 144.076 272.942 144.076 272.942L183.975 231.493L184.561 208.209L182.867 229.439L143.544 269.662C142.614 270.623 142.001 271.847 141.787 273.167L140.247 283.494L142.49 280.989Z" fill="#263238"/>
<path d="M204.961 162.219C205.096 162.219 205.195 187.683 205.195 219.076C205.195 250.469 205.096 275.943 204.961 275.943C204.826 275.943 204.727 250.487 204.727 219.076C204.727 187.665 204.835 162.219 204.961 162.219Z" fill="#263238"/>
<path d="M204.502 152.983H202.303V156.857H204.502V152.983Z" fill="#455A64"/>
<path d="M209.44 152.983H207.241V156.857H209.44V152.983Z" fill="#455A64"/>
<path d="M196.563 143.035L199.411 146.036H211.602L214.459 143.17C214.459 143.17 211.476 140.161 205.448 140.161C202.26 140.176 199.156 141.18 196.563 143.035Z" fill="#263238"/>
<path d="M221.018 161.075C221.018 161.21 214.08 161.309 205.529 161.309C196.978 161.309 190.031 161.21 190.031 161.075C190.031 160.939 196.969 160.84 205.529 160.84C214.089 160.84 221.018 160.948 221.018 161.075Z" fill="#263238"/>
<path d="M216.207 129.682C216.207 129.808 211.521 129.916 205.736 129.916C199.951 129.916 195.275 129.808 195.275 129.682C195.275 129.555 199.96 129.447 205.736 129.447C211.512 129.447 216.207 129.555 216.207 129.682Z" fill="#263238"/>
<path d="M192.68 163.706C192.68 163.778 192.563 163.832 192.518 163.985C192.472 164.138 192.518 164.264 192.698 164.282C192.878 164.3 192.932 164.174 192.905 164.003C192.878 163.832 192.77 163.778 192.779 163.715C192.788 163.652 193.004 163.598 193.202 163.85C193.257 163.928 193.291 164.017 193.304 164.111C193.317 164.205 193.306 164.301 193.274 164.39C193.22 164.503 193.134 164.596 193.027 164.659C192.92 164.723 192.797 164.753 192.672 164.746C192.548 164.739 192.428 164.696 192.329 164.621C192.229 164.547 192.154 164.445 192.112 164.327C192.089 164.235 192.089 164.137 192.112 164.044C192.136 163.952 192.182 163.866 192.247 163.796C192.509 163.561 192.698 163.652 192.68 163.706Z" fill="#263238"/>
<path d="M195.797 163.706C195.797 163.778 195.68 163.832 195.635 163.985C195.59 164.138 195.635 164.264 195.815 164.282C195.996 164.3 196.05 164.174 196.023 164.003C195.996 163.832 195.887 163.778 195.896 163.715C195.906 163.652 196.122 163.598 196.32 163.85C196.374 163.928 196.409 164.017 196.422 164.111C196.434 164.205 196.424 164.301 196.392 164.39C196.341 164.505 196.255 164.601 196.147 164.666C196.039 164.73 195.914 164.76 195.788 164.751C195.662 164.749 195.54 164.706 195.44 164.63C195.34 164.554 195.266 164.448 195.23 164.327C195.205 164.235 195.204 164.137 195.228 164.044C195.251 163.951 195.299 163.865 195.365 163.796C195.581 163.561 195.815 163.652 195.797 163.706Z" fill="#263238"/>
<path d="M199.176 163.706C199.176 163.778 199.059 163.832 199.014 163.985C198.969 164.138 199.014 164.264 199.194 164.282C199.375 164.3 199.429 164.174 199.402 164.003C199.375 163.832 199.267 163.778 199.276 163.715C199.285 163.652 199.501 163.598 199.699 163.85C199.753 163.928 199.788 164.017 199.801 164.111C199.813 164.205 199.803 164.301 199.771 164.39C199.72 164.505 199.634 164.601 199.526 164.666C199.418 164.73 199.293 164.76 199.167 164.751C199.041 164.749 198.919 164.706 198.819 164.63C198.719 164.554 198.645 164.448 198.609 164.327C198.584 164.235 198.583 164.137 198.607 164.044C198.63 163.951 198.678 163.865 198.744 163.796C198.96 163.561 199.194 163.652 199.176 163.706Z" fill="#263238"/>
<path d="M202.555 163.706C202.555 163.778 202.438 163.832 202.393 163.985C202.348 164.138 202.393 164.264 202.573 164.282C202.754 164.3 202.808 164.174 202.781 164.003C202.754 163.832 202.646 163.778 202.655 163.715C202.664 163.652 202.88 163.598 203.078 163.85C203.132 163.928 203.167 164.017 203.18 164.111C203.192 164.205 203.182 164.301 203.15 164.39C203.099 164.505 203.013 164.601 202.905 164.666C202.797 164.73 202.672 164.76 202.546 164.751C202.42 164.749 202.298 164.706 202.198 164.63C202.098 164.554 202.024 164.448 201.988 164.327C201.963 164.235 201.962 164.137 201.986 164.044C202.009 163.951 202.057 163.865 202.123 163.796C202.339 163.561 202.573 163.652 202.555 163.706Z" fill="#263238"/>
<path d="M220.523 244.117C220.523 244.252 213.756 244.351 205.412 244.351C197.068 244.351 190.301 244.252 190.301 244.117C190.301 243.982 197.059 243.883 205.412 243.883C213.765 243.883 220.523 243.991 220.523 244.117Z" fill="#263238"/>
<path d="M220.82 190.494C220.82 190.62 213.99 190.729 205.565 190.729C197.14 190.729 190.31 190.62 190.31 190.494C190.31 190.368 197.14 190.26 205.565 190.26C213.99 190.26 220.82 190.359 220.82 190.494Z" fill="#263238"/>
<path d="M220.82 219.428C220.82 219.554 214.071 219.662 205.745 219.662C197.419 219.662 190.706 219.509 190.706 219.428C190.706 219.347 197.455 219.193 205.772 219.193C214.089 219.193 220.82 219.256 220.82 219.428Z" fill="#263238"/>
<path d="M203.411 279.457C200.799 279.688 198.175 279.767 195.554 279.691C192.93 279.767 190.303 279.688 187.688 279.457C190.303 279.219 192.93 279.141 195.554 279.222C198.175 279.141 200.799 279.219 203.411 279.457Z" fill="#263238"/>
<path d="M203.52 285.854C200.992 286.098 198.452 286.179 195.915 286.097C193.38 286.179 190.843 286.098 188.319 285.854C190.844 285.622 193.38 285.544 195.915 285.62C198.452 285.544 200.992 285.622 203.52 285.854Z" fill="#263238"/>
<path d="M203.835 291.333C201.238 291.57 198.629 291.648 196.023 291.567C193.416 291.648 190.807 291.57 188.21 291.333C190.808 291.101 193.416 291.022 196.023 291.098C198.629 291.022 201.238 291.101 203.835 291.333Z" fill="#263238"/>
<path d="M203.619 297.226C201.076 297.458 198.521 297.536 195.969 297.46C193.416 297.536 190.862 297.458 188.319 297.226C190.861 296.988 193.416 296.91 195.969 296.991C198.521 296.91 201.076 296.988 203.619 297.226Z" fill="#263238"/>
<path d="M203.619 302.605C201.076 302.837 198.521 302.915 195.969 302.839C193.416 302.915 190.862 302.837 188.319 302.605C190.862 302.373 193.416 302.295 195.969 302.371C198.521 302.295 201.076 302.373 203.619 302.605Z" fill="#263238"/>
<path d="M203.619 307.985C201.076 308.222 198.521 308.3 195.969 308.219C193.416 308.3 190.861 308.222 188.319 307.985C190.862 307.753 193.416 307.674 195.969 307.75C198.521 307.674 201.076 307.753 203.619 307.985Z" fill="#263238"/>
<path d="M222.992 279.457C220.376 279.689 217.75 279.767 215.125 279.691C212.504 279.767 209.88 279.689 207.268 279.457C209.88 279.219 212.504 279.141 215.125 279.222C217.75 279.141 220.377 279.219 222.992 279.457Z" fill="#263238"/>
<path d="M223.091 285.854C220.566 286.098 218.029 286.179 215.495 286.097C212.96 286.179 210.423 286.098 207.899 285.854C210.424 285.622 212.96 285.544 215.495 285.62C218.029 285.544 220.566 285.622 223.091 285.854Z" fill="#263238"/>
<path d="M223.406 291.333C220.812 291.57 218.206 291.648 215.603 291.567C212.996 291.648 210.388 291.57 207.791 291.333C210.388 291.101 212.996 291.022 215.603 291.098C218.206 291.023 220.812 291.101 223.406 291.333Z" fill="#263238"/>
<path d="M223.199 297.226C220.656 297.458 218.101 297.536 215.549 297.46C212.996 297.536 210.442 297.458 207.899 297.226C210.441 296.988 212.996 296.91 215.549 296.991C218.101 296.91 220.656 296.988 223.199 297.226Z" fill="#263238"/>
<path d="M223.199 302.605C220.656 302.837 218.101 302.915 215.549 302.839C212.996 302.915 210.442 302.837 207.899 302.605C210.442 302.373 212.996 302.295 215.549 302.371C218.101 302.295 220.656 302.373 223.199 302.605Z" fill="#263238"/>
<path d="M223.199 307.985C220.656 308.222 218.101 308.3 215.549 308.219C212.996 308.3 210.441 308.222 207.899 307.985C210.442 307.753 212.996 307.674 215.549 307.75C218.101 307.674 220.656 307.753 223.199 307.985Z" fill="#263238"/>
<path d="M206.763 141.873C206.835 141.981 205.988 142.621 204.88 143.296C204.24 143.771 203.515 144.119 202.745 144.324C202.673 144.207 203.52 143.576 204.628 142.9C205.266 142.422 205.991 142.073 206.763 141.873Z" fill="#D9D3DD"/>
<path d="M208.232 142.008C208.34 142.134 207.574 142.738 206.583 143.342C206.015 143.781 205.356 144.088 204.655 144.243C204.592 144.126 205.349 143.549 206.34 142.945C206.912 142.526 207.552 142.209 208.232 142.008Z" fill="#D9D3DD"/>
<path d="M189.977 144.188C190.112 144.188 190.31 172.392 190.436 207.173C190.562 241.954 190.544 270.176 190.436 270.176C190.328 270.176 190.103 241.981 189.986 207.182C189.868 172.383 189.85 144.188 189.977 144.188Z" fill="#263238"/>
<path d="M220.523 269.887C220.388 269.887 220.415 243.36 220.568 210.642C220.721 177.925 220.955 151.397 221.09 151.397C221.226 151.397 221.199 177.916 221.036 210.642C220.874 243.369 220.649 269.887 220.523 269.887Z" fill="#263238"/>
<path d="M270 283.448C270 283.575 259.467 283.683 246.464 283.683C233.462 283.683 222.928 283.575 222.928 283.448C222.928 283.322 233.462 283.214 246.464 283.214C259.467 283.214 270 283.313 270 283.448Z" fill="#263238"/>
<path d="M266.279 287.783C266.051 287.083 265.971 286.343 266.045 285.611C265.971 284.882 266.05 284.145 266.279 283.448C266.507 284.145 266.587 284.882 266.513 285.611C266.586 286.343 266.507 287.083 266.279 287.783Z" fill="#263238"/>
<path d="M262.431 287.692C262.204 287.033 262.124 286.332 262.197 285.638C262.124 284.941 262.204 284.237 262.431 283.574C262.664 284.236 262.744 284.941 262.666 285.638C262.744 286.332 262.664 287.034 262.431 287.692Z" fill="#263238"/>
<path d="M258.061 287.954C257.749 286.468 257.749 284.934 258.061 283.448C258.373 284.934 258.373 286.468 258.061 287.954Z" fill="#263238"/>
<path d="M253.781 288.17C253.469 286.612 253.469 285.007 253.781 283.448C254.093 285.007 254.093 286.612 253.781 288.17Z" fill="#263238"/>
<path d="M249.834 288.296C249.521 286.696 249.521 285.049 249.834 283.448C250.148 285.049 250.148 286.696 249.834 288.296Z" fill="#263238"/>
<path d="M245.671 288.296C245.358 286.696 245.358 285.049 245.671 283.448C245.985 285.049 245.985 286.696 245.671 288.296Z" fill="#263238"/>
<path d="M241.508 288.296C241.195 286.696 241.195 285.049 241.508 283.448C241.822 285.049 241.822 286.696 241.508 288.296Z" fill="#263238"/>
<path d="M237.345 289.26C237.033 287.336 237.033 285.373 237.345 283.448C237.658 285.373 237.658 287.336 237.345 289.26Z" fill="#263238"/>
<path d="M233.183 289.603C232.87 287.563 232.87 285.488 233.183 283.448C233.495 285.488 233.495 287.563 233.183 289.603Z" fill="#263238"/>
<path d="M228.209 290.017C227.896 287.839 227.896 285.627 228.209 283.448C228.521 285.627 228.521 287.839 228.209 290.017Z" fill="#263238"/>
<path d="M267.955 279.799L267.243 274.221L228.092 232.772L227.65 210.219L229.903 231.457L267.648 271.689C268.586 272.646 269.2 273.872 269.406 275.195L270.235 281.935L267.955 279.799Z" fill="#263238"/>
<path d="M245.671 272.942H227.65V277.799H245.671V272.942Z" fill="#E47796"/>
<path d="M205.421 0C205.547 0 205.682 17.0302 205.709 38.034C205.736 59.0379 205.664 76.068 205.538 76.068C205.412 76.068 205.277 59.0379 205.241 38.034C205.205 17.0302 205.295 0 205.421 0Z" fill="#263238"/>
<path d="M207.169 71.4995C207.169 71.4455 207.394 71.3103 207.709 71.4995C207.8 71.5695 207.872 71.6598 207.921 71.7632C207.969 71.8666 207.993 71.9801 207.989 72.0942C207.971 72.2406 207.911 72.3787 207.816 72.4919C207.722 72.6051 207.597 72.6886 207.456 72.7323C207.315 72.7761 207.165 72.7783 207.023 72.7386C206.88 72.699 206.753 72.6191 206.655 72.5087C206.586 72.4173 206.54 72.3105 206.522 72.1976C206.503 72.0847 206.512 71.9688 206.547 71.86C206.664 71.4905 206.952 71.4545 206.961 71.5176C206.97 71.5806 206.862 71.6978 206.871 71.9231C206.88 72.1483 207.025 72.3826 207.313 72.2835C207.369 72.2692 207.42 72.2406 207.462 72.2005C207.503 72.1604 207.534 72.1102 207.55 72.0548C207.567 71.9993 207.568 71.9406 207.555 71.8844C207.542 71.8281 207.514 71.7762 207.475 71.7338C207.349 71.5896 207.178 71.5626 207.169 71.4995Z" fill="#263238"/>
<path d="M207.169 58.7493C207.169 58.6952 207.394 58.5601 207.709 58.7493C207.798 58.8211 207.869 58.9118 207.917 59.0148C207.965 59.1177 207.99 59.2303 207.989 59.344C207.972 59.4911 207.913 59.6303 207.82 59.7447C207.726 59.8591 207.6 59.9438 207.459 59.9886C207.318 60.0335 207.167 60.0364 207.025 59.9972C206.882 59.9579 206.753 59.8781 206.655 59.7675C206.586 59.676 206.54 59.5693 206.522 59.4564C206.503 59.3434 206.512 59.2276 206.547 59.1187C206.664 58.7493 206.952 58.7133 206.961 58.7763C206.97 58.8394 206.862 58.9566 206.871 59.1818C206.88 59.4071 207.025 59.6323 207.313 59.5422C207.369 59.528 207.42 59.4994 207.462 59.4593C207.503 59.4192 207.534 59.369 207.55 59.3135C207.567 59.2581 207.568 59.1994 207.555 59.1431C207.542 59.0869 207.514 59.035 207.475 58.9926C207.349 58.8394 207.178 58.8124 207.169 58.7493Z" fill="#263238"/>
<path d="M207.169 45.9903C207.169 45.9362 207.394 45.801 207.71 45.9903C207.8 46.0602 207.872 46.1506 207.921 46.254C207.969 46.3574 207.993 46.4708 207.989 46.585C207.975 46.7327 207.916 46.8727 207.822 46.9868C207.727 47.1009 207.6 47.1838 207.457 47.2247C207.331 47.2748 207.193 47.2869 207.061 47.2595C206.928 47.2321 206.806 47.1664 206.71 47.0706C206.614 46.9748 206.549 46.853 206.521 46.7202C206.494 46.5875 206.506 46.4496 206.556 46.3237C206.673 45.9632 206.962 45.9272 206.971 45.9813C206.98 46.0353 206.872 46.1705 206.881 46.3867C206.89 46.603 207.034 46.8463 207.322 46.7562C207.61 46.6661 207.619 46.3958 207.484 46.1975C207.349 45.9993 207.178 46.0624 207.169 45.9903Z" fill="#263238"/>
<path d="M207.169 33.2402C207.169 33.1861 207.394 33.0509 207.709 33.2852C207.8 33.3551 207.872 33.4455 207.921 33.5489C207.969 33.6523 207.993 33.7657 207.989 33.8799C207.975 34.0276 207.916 34.1676 207.821 34.2817C207.727 34.3958 207.6 34.4787 207.457 34.5197C207.316 34.5684 207.164 34.5729 207.021 34.5327C206.877 34.4924 206.75 34.4093 206.655 34.2944C206.586 34.2029 206.54 34.0962 206.522 33.9833C206.503 33.8703 206.512 33.7545 206.547 33.6456C206.664 33.2762 206.952 33.2492 206.961 33.3032C206.97 33.3573 206.862 33.4834 206.871 33.7087C206.88 33.934 207.025 34.1683 207.313 34.0691C207.369 34.0549 207.42 34.0263 207.462 33.9862C207.503 33.9461 207.534 33.8959 207.55 33.8404C207.567 33.785 207.568 33.7263 207.555 33.67C207.542 33.6138 207.514 33.5619 207.475 33.5195C207.349 33.3303 207.178 33.3032 207.169 33.2402Z" fill="#263238"/>
<path d="M207.169 20.4903C207.169 20.4362 207.394 20.301 207.709 20.4903C207.799 20.563 207.871 20.6552 207.919 20.7598C207.967 20.8644 207.991 20.9787 207.989 21.094C207.971 21.2404 207.911 21.3784 207.816 21.4916C207.722 21.6048 207.597 21.6883 207.456 21.7321C207.315 21.7758 207.165 21.778 207.023 21.7384C206.88 21.6987 206.753 21.6189 206.655 21.5085C206.586 21.417 206.54 21.3103 206.522 21.1973C206.503 21.0844 206.512 20.9686 206.547 20.8597C206.664 20.4903 206.952 20.4542 206.961 20.5173C206.97 20.5804 206.862 20.6975 206.871 20.9228C206.88 21.148 207.025 21.3733 207.313 21.2832C207.369 21.2689 207.42 21.2403 207.462 21.2002C207.503 21.1602 207.534 21.1099 207.55 21.0545C207.567 20.9991 207.568 20.9404 207.555 20.8841C207.542 20.8278 207.514 20.7759 207.475 20.7336C207.349 20.5804 207.178 20.5533 207.169 20.4903Z" fill="#263238"/>
<path d="M207.169 7.73109C207.169 7.73109 207.394 7.55088 207.709 7.77614C207.799 7.84701 207.87 7.93757 207.919 8.04074C207.967 8.14391 207.991 8.25689 207.989 8.37085C207.974 8.51935 207.916 8.66017 207.821 8.7756C207.726 8.89104 207.6 8.97593 207.457 9.01961C207.316 9.06706 207.164 9.07095 207.021 9.03076C206.878 8.99057 206.751 8.90818 206.655 8.79435C206.586 8.70288 206.54 8.59614 206.522 8.4832C206.503 8.37026 206.512 8.25444 206.547 8.14558C206.664 7.77614 206.952 7.7401 206.961 7.80317C206.97 7.86625 206.862 7.98339 206.871 8.20865C206.88 8.43392 207.025 8.65919 207.313 8.56908C207.601 8.47897 207.61 8.20865 207.475 8.01042C207.34 7.81218 207.178 7.80317 207.169 7.73109Z" fill="#263238"/>
<path d="M193.455 21.7336C193.247 22.2026 193.003 22.6545 192.725 23.0852C192.22 23.9322 191.535 25.1847 190.733 26.7526C189.931 28.3204 189.039 30.2217 188.147 32.3752C187.255 34.5288 186.426 36.9527 185.678 39.5297C184.931 42.1067 184.399 44.6207 183.993 46.9094C183.588 49.1981 183.345 51.2886 183.209 53.0457C183.074 54.8028 182.984 56.2355 182.966 57.2176C182.968 57.7299 182.935 58.2417 182.867 58.7494C182.794 58.2423 182.763 57.7299 182.777 57.2176C182.777 56.2265 182.777 54.7938 182.876 53.0277C183.003 50.9539 183.235 48.8878 183.57 46.8373C183.986 44.331 184.54 41.8493 185.228 39.4036C185.934 36.9557 186.777 34.5491 187.751 32.195C188.557 30.2796 189.459 28.4061 190.454 26.5814C191.301 25.0225 192.04 23.7971 192.59 22.9771C192.842 22.5385 193.131 22.1225 193.455 21.7336Z" fill="#D9D3DD"/>
<path d="M197.645 14.309C197.753 14.3721 197.482 15.102 197.023 15.94C196.563 16.778 196.122 17.4087 195.987 17.3456C195.851 17.2826 196.149 16.5527 196.608 15.7147C197.068 14.8767 197.527 14.246 197.645 14.309Z" fill="#D9D3DD"/>
<path d="M184.669 123.626C184.543 123.626 184.435 113.615 184.435 101.262C184.435 88.9081 184.543 78.9062 184.669 78.9062C184.795 78.9062 184.903 88.9171 184.903 101.262C184.903 113.606 184.795 123.626 184.669 123.626Z" fill="#D9D3DD"/>
<path d="M188.003 109.542C187.766 107.298 187.688 105.04 187.769 102.784C187.686 100.514 187.764 98.2407 188.003 95.9814C188.235 98.2292 188.313 100.49 188.237 102.748C188.315 105.016 188.237 107.286 188.003 109.542Z" fill="#D9D3DD"/>
<path d="M191.851 104.857C191.611 104.051 191.529 103.207 191.607 102.37C191.529 101.533 191.611 100.689 191.851 99.8833C192.163 101.527 192.163 103.214 191.851 104.857Z" fill="#D9D3DD"/>
<path d="M182.741 183.799C182.606 183.799 182.498 171.995 182.498 157.443C182.498 142.891 182.597 131.123 182.741 131.123C182.885 131.123 182.975 142.927 182.975 157.488C182.975 172.049 182.867 183.799 182.741 183.799Z" fill="#D9D3DD"/>
<path d="M276.082 21.7339L278.029 25.2841L281.579 27.2304L278.029 29.1677L276.082 32.7269L274.145 29.1677L270.586 27.2304L274.145 25.2841L276.082 21.7339Z" fill="#263238"/>
<path d="M284.949 38.0342L285.832 39.6651L287.463 40.5482L285.832 41.4402L284.949 43.0621L284.057 41.4402L282.435 40.5482L284.057 39.6651L284.949 38.0342Z" fill="#263238"/>
<path d="M101.104 145.54L103.042 149.099L106.601 151.037L103.042 152.983L101.104 156.542L99.1581 152.983L95.5989 151.037L99.1581 149.099L101.104 145.54Z" fill="#263238"/>
<path d="M289.734 195.234L291.68 198.784L295.239 200.731L291.68 202.677L289.734 206.227L287.796 202.677L284.237 200.731L287.796 198.784L289.734 195.234Z" fill="#263238"/>
<path d="M88.1921 157.173L89.0841 158.804L90.706 159.687L89.0841 160.579L88.1921 162.201L87.309 160.579L85.6781 159.687L87.309 158.804L88.1921 157.173Z" fill="#263238"/>
<path d="M114.368 125.068L115.26 126.69L116.882 127.582L115.26 128.465L114.368 130.096L113.476 128.465L111.854 127.582L113.476 126.69L114.368 125.068Z" fill="#263238"/>
<path d="M323.397 186.737H319.685V416.68H323.397V186.737Z" fill="#263238"/>
<path d="M362.828 186.566H359.116V416.41H362.828V186.566Z" fill="#263238"/>
<path d="M361.386 186.737H319.685V189.611H361.386V186.737Z" fill="#263238"/>
<path d="M362.828 237.368H319.685V240.242H362.828V237.368Z" fill="#263238"/>
<path d="M362.423 351.172H319.685V354.047H362.423V351.172Z" fill="#263238"/>
<path d="M360.592 298.281L320.718 352.922L323.04 354.616L362.914 299.975L360.592 298.281Z" fill="#263238"/>
<path d="M360.185 239.799L319.978 298.476L322.35 300.101L362.556 241.424L360.185 239.799Z" fill="#263238"/>
<path d="M360.175 353.701L319.969 412.378L322.34 414.003L362.547 355.326L360.175 353.701Z" fill="#263238"/>
<path d="M360.626 188.484L320.874 236.078L323.08 237.921L362.832 190.327L360.626 188.484Z" fill="#263238"/>
<path d="M362.828 297.198H319.685V300.073H362.828V297.198Z" fill="#263238"/>
<path d="M338.139 416.455C338.013 416.455 337.905 365.364 337.905 302.362C337.905 239.359 338.013 188.25 338.139 188.25C338.265 188.25 338.373 239.332 338.373 302.362C338.373 365.391 338.274 416.455 338.139 416.455Z" fill="#263238"/>
<path d="M339.797 416.41C339.671 416.41 339.562 365.698 339.562 303.164C339.562 240.63 339.671 189.909 339.797 189.909C339.923 189.909 340.031 240.603 340.031 303.164C340.031 365.725 339.932 416.41 339.797 416.41Z" fill="#263238"/>
<path d="M347.717 416.518C347.582 416.518 347.483 365.788 347.483 303.218C347.483 240.648 347.582 189.909 347.717 189.909C347.852 189.909 347.951 240.63 347.951 303.218C347.951 365.806 347.843 416.518 347.717 416.518Z" fill="#263238"/>
<path d="M353.646 416.41C353.52 416.41 353.412 365.698 353.412 303.164C353.412 240.63 353.52 189.909 353.646 189.909C353.772 189.909 353.88 240.603 353.88 303.164C353.88 365.725 353.799 416.41 353.646 416.41Z" fill="#263238"/>
<path d="M353.646 207.606C351.688 207.918 349.693 207.918 347.735 207.606C349.693 207.293 351.688 207.293 353.646 207.606Z" fill="#263238"/>
<path d="M353.646 202.641C351.688 202.953 349.693 202.953 347.735 202.641C349.693 202.328 351.688 202.328 353.646 202.641Z" fill="#263238"/>
<path d="M353.646 197.676C351.688 197.988 349.693 197.988 347.735 197.676C349.693 197.363 351.688 197.363 353.646 197.676Z" fill="#263238"/>
<path d="M353.646 192.711C351.688 193.023 349.693 193.023 347.735 192.711C349.693 192.398 351.688 192.398 353.646 192.711Z" fill="#263238"/>
<path d="M353.646 213.201C351.688 213.513 349.693 213.513 347.735 213.201C349.693 212.889 351.688 212.889 353.646 213.201Z" fill="#263238"/>
<path d="M353.646 218.797C351.688 219.109 349.693 219.109 347.735 218.797C349.693 218.484 351.688 218.484 353.646 218.797Z" fill="#263238"/>
<path d="M353.646 224.392C351.688 224.705 349.693 224.705 347.735 224.392C349.693 224.08 351.688 224.08 353.646 224.392Z" fill="#263238"/>
<path d="M353.646 229.988C351.688 230.3 349.693 230.3 347.735 229.988C349.692 229.664 351.689 229.664 353.646 229.988Z" fill="#263238"/>
<path d="M353.646 235.575C351.689 235.899 349.692 235.899 347.735 235.575C349.693 235.262 351.688 235.262 353.646 235.575Z" fill="#263238"/>
<path d="M353.646 241.17C351.688 241.483 349.693 241.483 347.735 241.17C349.693 240.858 351.688 240.858 353.646 241.17Z" fill="#263238"/>
<path d="M353.646 246.766C351.688 247.078 349.693 247.078 347.735 246.766C349.693 246.453 351.688 246.453 353.646 246.766Z" fill="#263238"/>
<path d="M353.646 252.361C351.688 252.674 349.693 252.674 347.735 252.361C349.693 252.049 351.688 252.049 353.646 252.361Z" fill="#263238"/>
<path d="M353.646 257.957C351.688 258.27 349.693 258.27 347.735 257.957C349.693 257.645 351.688 257.645 353.646 257.957Z" fill="#263238"/>
<path d="M353.646 263.58C351.688 263.892 349.693 263.892 347.735 263.58C349.693 263.267 351.688 263.267 353.646 263.58Z" fill="#263238"/>
<path d="M353.646 269.148C351.688 269.461 349.693 269.461 347.735 269.148C349.693 268.836 351.688 268.836 353.646 269.148Z" fill="#263238"/>
<path d="M353.646 274.744C351.688 275.056 349.693 275.056 347.735 274.744C349.693 274.432 351.688 274.432 353.646 274.744Z" fill="#263238"/>
<path d="M353.646 280.339C351.688 280.652 349.693 280.652 347.735 280.339C349.693 280.027 351.688 280.027 353.646 280.339Z" fill="#263238"/>
<path d="M353.646 285.935C351.688 286.248 349.693 286.248 347.735 285.935C349.693 285.623 351.688 285.623 353.646 285.935Z" fill="#263238"/>
<path d="M353.646 291.513C351.688 291.825 349.693 291.825 347.735 291.513C349.693 291.2 351.688 291.2 353.646 291.513Z" fill="#263238"/>
<path d="M353.646 297.126C351.688 297.439 349.693 297.439 347.735 297.126C349.693 296.814 351.688 296.814 353.646 297.126Z" fill="#263238"/>
<path d="M353.646 302.722C351.688 303.034 349.693 303.034 347.735 302.722C349.693 302.41 351.688 302.41 353.646 302.722Z" fill="#263238"/>
<path d="M353.646 308.318C351.688 308.63 349.693 308.63 347.735 308.318C349.693 308.005 351.688 308.005 353.646 308.318Z" fill="#263238"/>
<path d="M353.646 313.913C351.688 314.226 349.693 314.226 347.735 313.913C349.693 313.601 351.688 313.601 353.646 313.913Z" fill="#263238"/>
<path d="M353.646 319.509C351.688 319.821 349.693 319.821 347.735 319.509C349.693 319.197 351.688 319.197 353.646 319.509Z" fill="#263238"/>
<path d="M353.646 325.104C351.688 325.417 349.693 325.417 347.735 325.104C349.693 324.792 351.688 324.792 353.646 325.104Z" fill="#263238"/>
<path d="M353.646 330.7C351.688 331.012 349.693 331.012 347.735 330.7C349.693 330.388 351.688 330.388 353.646 330.7Z" fill="#263238"/>
<path d="M353.646 336.296C351.688 336.608 349.693 336.608 347.735 336.296C349.693 335.983 351.688 335.983 353.646 336.296Z" fill="#263238"/>
<path d="M353.646 341.891C351.688 342.204 349.693 342.204 347.735 341.891C349.693 341.579 351.688 341.579 353.646 341.891Z" fill="#263238"/>
<path d="M353.646 347.487C351.688 347.799 349.693 347.799 347.735 347.487C349.693 347.175 351.688 347.175 353.646 347.487Z" fill="#263238"/>
<path d="M353.646 353.083C351.688 353.395 349.693 353.395 347.735 353.083C349.693 352.77 351.688 352.77 353.646 353.083Z" fill="#263238"/>
<path d="M353.646 358.678C351.688 358.991 349.693 358.991 347.735 358.678C349.693 358.366 351.688 358.366 353.646 358.678Z" fill="#263238"/>
<path d="M353.646 364.274C351.688 364.586 349.693 364.586 347.735 364.274C349.693 363.961 351.688 363.961 353.646 364.274Z" fill="#263238"/>
<path d="M353.646 369.905C351.688 370.218 349.693 370.218 347.735 369.905C349.692 369.581 351.689 369.581 353.646 369.905Z" fill="#263238"/>
<path d="M353.646 375.456C351.689 375.78 349.692 375.78 347.735 375.456C349.693 375.144 351.688 375.144 353.646 375.456Z" fill="#263238"/>
<path d="M353.646 381.052C351.688 381.364 349.693 381.364 347.735 381.052C349.693 380.739 351.688 380.739 353.646 381.052Z" fill="#263238"/>
<path d="M353.646 386.647C351.688 386.96 349.693 386.96 347.735 386.647C349.693 386.335 351.688 386.335 353.646 386.647Z" fill="#263238"/>
<path d="M353.646 392.243C351.688 392.555 349.693 392.555 347.735 392.243C349.693 391.931 351.688 391.931 353.646 392.243Z" fill="#263238"/>
<path d="M353.646 397.839C351.688 398.151 349.693 398.151 347.735 397.839C349.693 397.526 351.688 397.526 353.646 397.839Z" fill="#263238"/>
<path d="M353.646 403.434C351.688 403.747 349.693 403.747 347.735 403.434C349.693 403.122 351.688 403.122 353.646 403.434Z" fill="#263238"/>
<path d="M353.646 409.03C351.688 409.342 349.693 409.342 347.735 409.03C349.693 408.718 351.688 408.718 353.646 409.03Z" fill="#263238"/>
<path d="M353.646 414.625C351.688 414.938 349.693 414.938 347.735 414.625C349.693 414.313 351.688 414.313 353.646 414.625Z" fill="#263238"/>
<path d="M321.541 302.848C321.448 302.86 321.355 302.86 321.262 302.848H320.451L317.306 302.893L305.691 302.965L266.946 303.037L267.18 302.803V310.859L266.946 310.624L305.691 310.696L317.306 310.777H320.451H321.262H321.541C321.448 310.79 321.355 310.79 321.262 310.777H320.451L317.306 310.823L305.691 310.895L266.946 310.967H266.711V302.443H266.946L305.691 302.515L317.306 302.587H320.451H321.262C321.37 302.657 321.464 302.745 321.541 302.848Z" fill="#263238"/>
<path d="M319.766 310.435L319.622 310.327L319.216 309.957L317.667 308.507L311.891 302.992L312.116 302.884C312.233 305.137 312.368 307.696 312.522 310.525V310.949L312.206 310.651L304.313 303.037L304.646 302.893C304.646 305.344 304.574 307.912 304.538 310.579V311.075L304.178 310.732L296.248 303.055L296.636 302.902C296.591 305.29 296.537 307.831 296.492 310.417V310.949L296.104 310.579L292.347 306.975L288.346 303.1L288.742 302.929V311.039L288.355 310.678L280.326 303.118L280.687 302.965C280.687 305.777 280.687 308.462 280.687 311.012V311.498L280.344 311.156L272.325 303.046L272.604 302.929C272.604 305.912 272.604 308.507 272.604 310.741V311.138L272.379 310.813C270.649 308.327 269.297 306.362 268.351 305.002L267.315 303.47L267.054 303.073L266.973 302.929C266.973 302.929 266.973 302.929 267.081 303.046L267.369 303.434L268.468 304.93L272.577 310.669L272.352 310.741C272.352 308.507 272.352 305.912 272.352 302.929V302.533L272.631 302.812L280.741 310.832L280.399 310.976C280.399 308.426 280.399 305.74 280.399 302.929V302.325L280.759 302.668L288.805 310.192L288.418 310.363C288.418 307.906 288.418 305.392 288.418 302.821V302.325L288.814 302.704L292.824 306.587L296.573 310.192L296.176 310.354C296.23 307.777 296.284 305.236 296.329 302.848V302.325L296.708 302.695L304.628 310.381L304.259 310.534C304.304 307.831 304.358 305.299 304.403 302.857V302.389L304.736 302.713L312.585 310.372L312.305 310.498C312.179 307.678 312.071 305.092 311.972 302.866V302.524L312.215 302.758L317.901 308.363L319.406 309.867L319.784 310.264C319.73 310.345 319.775 310.435 319.766 310.435Z" fill="#263238"/>
<path d="M322.415 240.242H322.136H321.316L318.171 240.287L306.565 240.359L267.82 240.431L268.054 240.197V248.262L267.82 248.027L306.565 248.099L318.18 248.172L321.361 248.262H322.181C322.274 248.248 322.368 248.248 322.46 248.262H322.181H321.361L318.225 248.307L306.611 248.379L267.865 248.451H267.63V239.927H267.865L306.611 239.999L318.216 240.071L321.361 240.116H322.181C322.264 240.149 322.342 240.191 322.415 240.242Z" fill="#263238"/>
<path d="M320.64 247.784C320.64 247.784 320.586 247.784 320.496 247.667L320.091 247.306L318.541 245.856L312.765 240.341L312.99 240.233C313.107 242.486 313.242 245.045 313.396 247.874V248.298L313.089 248L305.187 240.386L305.529 240.242C305.529 242.693 305.457 245.261 305.421 247.928V248.424L305.061 248.081C302.556 245.648 299.889 243.08 297.122 240.404L297.519 240.242C297.465 242.639 297.42 245.18 297.366 247.757V248.298L296.978 247.928L293.23 244.324L289.229 240.449L289.626 240.278V248.388L289.247 248.018L281.219 240.467L281.579 240.314C281.579 243.126 281.579 245.808 281.579 248.361V248.838L281.246 248.505L273.226 240.395L273.505 240.278C273.505 243.252 273.505 245.847 273.505 248.09V248.487L273.28 248.162L269.261 242.351C268.82 241.702 268.468 241.188 268.225 240.819L267.964 240.422C267.901 240.332 267.874 240.278 267.883 240.278C267.892 240.278 267.883 240.278 267.991 240.395C268.099 240.512 268.162 240.621 268.279 240.774L269.37 242.279L273.487 248.018L273.262 248.09C273.262 245.847 273.262 243.252 273.217 240.278V239.882L273.496 240.161L281.606 248.181L281.264 248.325C281.264 245.772 281.264 243.089 281.264 240.278V239.783L281.633 240.125L289.671 247.649L289.292 247.82C289.292 245.357 289.292 242.843 289.292 240.278V239.729L289.689 240.107L293.689 243.991L297.438 247.595L297.041 247.757C297.095 245.18 297.149 242.639 297.203 240.242V239.719L297.582 240.089L305.493 247.775L305.133 247.928C305.133 245.225 305.223 242.693 305.268 240.251V239.783L305.601 240.107L313.459 247.766L313.17 247.892C313.053 245.072 312.936 242.486 312.837 240.26V239.918L313.071 240.152L318.766 245.757L320.262 247.261L320.64 247.649C320.643 247.694 320.643 247.739 320.64 247.784Z" fill="#263238"/>
<path d="M415.64 416.419C415.64 416.545 322.595 416.653 207.836 416.653C93.0758 416.653 0.0136719 416.545 0.0136719 416.419C0.0136719 416.293 93.0398 416.185 207.836 416.185C322.631 416.185 415.64 416.284 415.64 416.419Z" fill="#263238"/>
<defs>
<linearGradient id="paint0_linear_29_1889" x1="139.499" y1="169.958" x2="30.1329" y2="169.958" gradientUnits="userSpaceOnUse">
<stop stop-color="#9B5584"/>
<stop offset="1" stop-color="#181872"/>
</linearGradient>
<linearGradient id="paint1_linear_29_1889" x1="123.218" y1="18.8422" x2="109.475" y2="77.8542" gradientUnits="userSpaceOnUse">
<stop stop-color="#9B5584"/>
<stop offset="1" stop-color="#181872"/>
</linearGradient>
<linearGradient id="paint2_linear_29_1889" x1="359.924" y1="107.297" x2="258.237" y2="107.297" gradientUnits="userSpaceOnUse">
<stop stop-color="#9B5584"/>
<stop offset="1" stop-color="#181872"/>
</linearGradient>
</defs>
</svg>
